<?xml version="1.0" encoding="utf-8" standalone="no"?>
<!DOCTYPE svg PUBLIC "-//W3C//DTD SVG 1.1//EN"
  "http://www.w3.org/Graphics/SVG/1.1/DTD/svg11.dtd">
<svg xmlns:xlink="http://www.w3.org/1999/xlink" width="1296pt" height="648pt" viewBox="0 0 1296 648" xmlns="http://www.w3.org/2000/svg" version="1.1">
 <metadata>
  <rdf:RDF xmlns:dc="http://purl.org/dc/elements/1.1/" xmlns:cc="http://creativecommons.org/ns#" xmlns:rdf="http://www.w3.org/1999/02/22-rdf-syntax-ns#">
   <cc:Work>
    <dc:type rdf:resource="http://purl.org/dc/dcmitype/StillImage"/>
    <dc:date>2024-01-17T20:34:56.133411</dc:date>
    <dc:format>image/svg+xml</dc:format>
    <dc:creator>
     <cc:Agent>
      <dc:title>Matplotlib v3.6.0, https://matplotlib.org/</dc:title>
     </cc:Agent>
    </dc:creator>
   </cc:Work>
  </rdf:RDF>
 </metadata>
 <defs>
  <style type="text/css">*{stroke-linejoin: round; stroke-linecap: butt}</style>
 </defs>
 <g id="figure_1">
  <g id="patch_1">
   <path d="M 0 648 
L 1296 648 
L 1296 0 
L 0 0 
z
" style="fill: #ffffff"/>
  </g>
  <g id="axes_1">
   <g id="patch_2">
    <path d="M 79.22 576.16 
L 1225.51 576.16 
L 1225.51 37.32 
L 79.22 37.32 
z
" style="fill: #ffffff"/>
   </g>
   <g id="matplotlib.axis_1">
    <g id="xtick_1">
     <g id="line2d_1">
      <path d="M 245.767158 576.16 
L 245.767158 37.32 
" clip-path="url(#p8756d79dbb)" style="fill: none; stroke: #b0b0b0; stroke-width: 0.8; stroke-linecap: square"/>
     </g>
     <g id="line2d_2">
      <defs>
       <path id="m0f73bf9505" d="M 0 0 
L 0 3.5 
" style="stroke: #000000; stroke-width: 0.8"/>
      </defs>
      <g>
       <use xlink:href="#m0f73bf9505" x="245.767158" y="576.16" style="stroke: #000000; stroke-width: 0.8"/>
      </g>
     </g>
     <g id="text_1">
      <!-- 10 -->
      <g transform="translate(229.860908 602.156094) scale(0.25 -0.25)">
       <defs>
        <path id="DejaVuSans-31" d="M 794 531 
L 1825 531 
L 1825 4091 
L 703 3866 
L 703 4441 
L 1819 4666 
L 2450 4666 
L 2450 531 
L 3481 531 
L 3481 0 
L 794 0 
L 794 531 
z
" transform="scale(0.015625)"/>
        <path id="DejaVuSans-30" d="M 2034 4250 
Q 1547 4250 1301 3770 
Q 1056 3291 1056 2328 
Q 1056 1369 1301 889 
Q 1547 409 2034 409 
Q 2525 409 2770 889 
Q 3016 1369 3016 2328 
Q 3016 3291 2770 3770 
Q 2525 4250 2034 4250 
z
M 2034 4750 
Q 2819 4750 3233 4129 
Q 3647 3509 3647 2328 
Q 3647 1150 3233 529 
Q 2819 -91 2034 -91 
Q 1250 -91 836 529 
Q 422 1150 422 2328 
Q 422 3509 836 4129 
Q 1250 4750 2034 4750 
z
" transform="scale(0.015625)"/>
       </defs>
       <use xlink:href="#DejaVuSans-31"/>
       <use xlink:href="#DejaVuSans-30" x="63.623047"/>
      </g>
     </g>
    </g>
    <g id="xtick_2">
     <g id="line2d_3">
      <path d="M 467.284559 576.16 
L 467.284559 37.32 
" clip-path="url(#p8756d79dbb)" style="fill: none; stroke: #b0b0b0; stroke-width: 0.8; stroke-linecap: square"/>
     </g>
     <g id="line2d_4">
      <g>
       <use xlink:href="#m0f73bf9505" x="467.284559" y="576.16" style="stroke: #000000; stroke-width: 0.8"/>
      </g>
     </g>
     <g id="text_2">
      <!-- 15 -->
      <g transform="translate(451.378309 602.156094) scale(0.25 -0.25)">
       <defs>
        <path id="DejaVuSans-35" d="M 691 4666 
L 3169 4666 
L 3169 4134 
L 1269 4134 
L 1269 2991 
Q 1406 3038 1543 3061 
Q 1681 3084 1819 3084 
Q 2600 3084 3056 2656 
Q 3513 2228 3513 1497 
Q 3513 744 3044 326 
Q 2575 -91 1722 -91 
Q 1428 -91 1123 -41 
Q 819 9 494 109 
L 494 744 
Q 775 591 1075 516 
Q 1375 441 1709 441 
Q 2250 441 2565 725 
Q 2881 1009 2881 1497 
Q 2881 1984 2565 2268 
Q 2250 2553 1709 2553 
Q 1456 2553 1204 2497 
Q 953 2441 691 2322 
L 691 4666 
z
" transform="scale(0.015625)"/>
       </defs>
       <use xlink:href="#DejaVuSans-31"/>
       <use xlink:href="#DejaVuSans-35" x="63.623047"/>
      </g>
     </g>
    </g>
    <g id="xtick_3">
     <g id="line2d_5">
      <path d="M 688.80196 576.16 
L 688.80196 37.32 
" clip-path="url(#p8756d79dbb)" style="fill: none; stroke: #b0b0b0; stroke-width: 0.8; stroke-linecap: square"/>
     </g>
     <g id="line2d_6">
      <g>
       <use xlink:href="#m0f73bf9505" x="688.80196" y="576.16" style="stroke: #000000; stroke-width: 0.8"/>
      </g>
     </g>
     <g id="text_3">
      <!-- 20 -->
      <g transform="translate(672.89571 602.156094) scale(0.25 -0.25)">
       <defs>
        <path id="DejaVuSans-32" d="M 1228 531 
L 3431 531 
L 3431 0 
L 469 0 
L 469 531 
Q 828 903 1448 1529 
Q 2069 2156 2228 2338 
Q 2531 2678 2651 2914 
Q 2772 3150 2772 3378 
Q 2772 3750 2511 3984 
Q 2250 4219 1831 4219 
Q 1534 4219 1204 4116 
Q 875 4013 500 3803 
L 500 4441 
Q 881 4594 1212 4672 
Q 1544 4750 1819 4750 
Q 2544 4750 2975 4387 
Q 3406 4025 3406 3419 
Q 3406 3131 3298 2873 
Q 3191 2616 2906 2266 
Q 2828 2175 2409 1742 
Q 1991 1309 1228 531 
z
" transform="scale(0.015625)"/>
       </defs>
       <use xlink:href="#DejaVuSans-32"/>
       <use xlink:href="#DejaVuSans-30" x="63.623047"/>
      </g>
     </g>
    </g>
    <g id="xtick_4">
     <g id="line2d_7">
      <path d="M 910.319361 576.16 
L 910.319361 37.32 
" clip-path="url(#p8756d79dbb)" style="fill: none; stroke: #b0b0b0; stroke-width: 0.8; stroke-linecap: square"/>
     </g>
     <g id="line2d_8">
      <g>
       <use xlink:href="#m0f73bf9505" x="910.319361" y="576.16" style="stroke: #000000; stroke-width: 0.8"/>
      </g>
     </g>
     <g id="text_4">
      <!-- 25 -->
      <g transform="translate(894.413111 602.156094) scale(0.25 -0.25)">
       <use xlink:href="#DejaVuSans-32"/>
       <use xlink:href="#DejaVuSans-35" x="63.623047"/>
      </g>
     </g>
    </g>
    <g id="xtick_5">
     <g id="line2d_9">
      <path d="M 1131.836762 576.16 
L 1131.836762 37.32 
" clip-path="url(#p8756d79dbb)" style="fill: none; stroke: #b0b0b0; stroke-width: 0.8; stroke-linecap: square"/>
     </g>
     <g id="line2d_10">
      <g>
       <use xlink:href="#m0f73bf9505" x="1131.836762" y="576.16" style="stroke: #000000; stroke-width: 0.8"/>
      </g>
     </g>
     <g id="text_5">
      <!-- 30 -->
      <g transform="translate(1115.930512 602.156094) scale(0.25 -0.25)">
       <defs>
        <path id="DejaVuSans-33" d="M 2597 2516 
Q 3050 2419 3304 2112 
Q 3559 1806 3559 1356 
Q 3559 666 3084 287 
Q 2609 -91 1734 -91 
Q 1441 -91 1130 -33 
Q 819 25 488 141 
L 488 750 
Q 750 597 1062 519 
Q 1375 441 1716 441 
Q 2309 441 2620 675 
Q 2931 909 2931 1356 
Q 2931 1769 2642 2001 
Q 2353 2234 1838 2234 
L 1294 2234 
L 1294 2753 
L 1863 2753 
Q 2328 2753 2575 2939 
Q 2822 3125 2822 3475 
Q 2822 3834 2567 4026 
Q 2313 4219 1838 4219 
Q 1578 4219 1281 4162 
Q 984 4106 628 3988 
L 628 4550 
Q 988 4650 1302 4700 
Q 1616 4750 1894 4750 
Q 2613 4750 3031 4423 
Q 3450 4097 3450 3541 
Q 3450 3153 3228 2886 
Q 3006 2619 2597 2516 
z
" transform="scale(0.015625)"/>
       </defs>
       <use xlink:href="#DejaVuSans-33"/>
       <use xlink:href="#DejaVuSans-30" x="63.623047"/>
      </g>
     </g>
    </g>
    <g id="text_6">
     <!-- Ground Truth Distance (m) -->
     <g transform="translate(486.216563 630.351406) scale(0.25 -0.25)">
      <defs>
       <path id="DejaVuSans-47" d="M 3809 666 
L 3809 1919 
L 2778 1919 
L 2778 2438 
L 4434 2438 
L 4434 434 
Q 4069 175 3628 42 
Q 3188 -91 2688 -91 
Q 1594 -91 976 548 
Q 359 1188 359 2328 
Q 359 3472 976 4111 
Q 1594 4750 2688 4750 
Q 3144 4750 3555 4637 
Q 3966 4525 4313 4306 
L 4313 3634 
Q 3963 3931 3569 4081 
Q 3175 4231 2741 4231 
Q 1884 4231 1454 3753 
Q 1025 3275 1025 2328 
Q 1025 1384 1454 906 
Q 1884 428 2741 428 
Q 3075 428 3337 486 
Q 3600 544 3809 666 
z
" transform="scale(0.015625)"/>
       <path id="DejaVuSans-72" d="M 2631 2963 
Q 2534 3019 2420 3045 
Q 2306 3072 2169 3072 
Q 1681 3072 1420 2755 
Q 1159 2438 1159 1844 
L 1159 0 
L 581 0 
L 581 3500 
L 1159 3500 
L 1159 2956 
Q 1341 3275 1631 3429 
Q 1922 3584 2338 3584 
Q 2397 3584 2469 3576 
Q 2541 3569 2628 3553 
L 2631 2963 
z
" transform="scale(0.015625)"/>
       <path id="DejaVuSans-6f" d="M 1959 3097 
Q 1497 3097 1228 2736 
Q 959 2375 959 1747 
Q 959 1119 1226 758 
Q 1494 397 1959 397 
Q 2419 397 2687 759 
Q 2956 1122 2956 1747 
Q 2956 2369 2687 2733 
Q 2419 3097 1959 3097 
z
M 1959 3584 
Q 2709 3584 3137 3096 
Q 3566 2609 3566 1747 
Q 3566 888 3137 398 
Q 2709 -91 1959 -91 
Q 1206 -91 779 398 
Q 353 888 353 1747 
Q 353 2609 779 3096 
Q 1206 3584 1959 3584 
z
" transform="scale(0.015625)"/>
       <path id="DejaVuSans-75" d="M 544 1381 
L 544 3500 
L 1119 3500 
L 1119 1403 
Q 1119 906 1312 657 
Q 1506 409 1894 409 
Q 2359 409 2629 706 
Q 2900 1003 2900 1516 
L 2900 3500 
L 3475 3500 
L 3475 0 
L 2900 0 
L 2900 538 
Q 2691 219 2414 64 
Q 2138 -91 1772 -91 
Q 1169 -91 856 284 
Q 544 659 544 1381 
z
M 1991 3584 
L 1991 3584 
z
" transform="scale(0.015625)"/>
       <path id="DejaVuSans-6e" d="M 3513 2113 
L 3513 0 
L 2938 0 
L 2938 2094 
Q 2938 2591 2744 2837 
Q 2550 3084 2163 3084 
Q 1697 3084 1428 2787 
Q 1159 2491 1159 1978 
L 1159 0 
L 581 0 
L 581 3500 
L 1159 3500 
L 1159 2956 
Q 1366 3272 1645 3428 
Q 1925 3584 2291 3584 
Q 2894 3584 3203 3211 
Q 3513 2838 3513 2113 
z
" transform="scale(0.015625)"/>
       <path id="DejaVuSans-64" d="M 2906 2969 
L 2906 4863 
L 3481 4863 
L 3481 0 
L 2906 0 
L 2906 525 
Q 2725 213 2448 61 
Q 2172 -91 1784 -91 
Q 1150 -91 751 415 
Q 353 922 353 1747 
Q 353 2572 751 3078 
Q 1150 3584 1784 3584 
Q 2172 3584 2448 3432 
Q 2725 3281 2906 2969 
z
M 947 1747 
Q 947 1113 1208 752 
Q 1469 391 1925 391 
Q 2381 391 2643 752 
Q 2906 1113 2906 1747 
Q 2906 2381 2643 2742 
Q 2381 3103 1925 3103 
Q 1469 3103 1208 2742 
Q 947 2381 947 1747 
z
" transform="scale(0.015625)"/>
       <path id="DejaVuSans-20" transform="scale(0.015625)"/>
       <path id="DejaVuSans-54" d="M -19 4666 
L 3928 4666 
L 3928 4134 
L 2272 4134 
L 2272 0 
L 1638 0 
L 1638 4134 
L -19 4134 
L -19 4666 
z
" transform="scale(0.015625)"/>
       <path id="DejaVuSans-74" d="M 1172 4494 
L 1172 3500 
L 2356 3500 
L 2356 3053 
L 1172 3053 
L 1172 1153 
Q 1172 725 1289 603 
Q 1406 481 1766 481 
L 2356 481 
L 2356 0 
L 1766 0 
Q 1100 0 847 248 
Q 594 497 594 1153 
L 594 3053 
L 172 3053 
L 172 3500 
L 594 3500 
L 594 4494 
L 1172 4494 
z
" transform="scale(0.015625)"/>
       <path id="DejaVuSans-68" d="M 3513 2113 
L 3513 0 
L 2938 0 
L 2938 2094 
Q 2938 2591 2744 2837 
Q 2550 3084 2163 3084 
Q 1697 3084 1428 2787 
Q 1159 2491 1159 1978 
L 1159 0 
L 581 0 
L 581 4863 
L 1159 4863 
L 1159 2956 
Q 1366 3272 1645 3428 
Q 1925 3584 2291 3584 
Q 2894 3584 3203 3211 
Q 3513 2838 3513 2113 
z
" transform="scale(0.015625)"/>
       <path id="DejaVuSans-44" d="M 1259 4147 
L 1259 519 
L 2022 519 
Q 2988 519 3436 956 
Q 3884 1394 3884 2338 
Q 3884 3275 3436 3711 
Q 2988 4147 2022 4147 
L 1259 4147 
z
M 628 4666 
L 1925 4666 
Q 3281 4666 3915 4102 
Q 4550 3538 4550 2338 
Q 4550 1131 3912 565 
Q 3275 0 1925 0 
L 628 0 
L 628 4666 
z
" transform="scale(0.015625)"/>
       <path id="DejaVuSans-69" d="M 603 3500 
L 1178 3500 
L 1178 0 
L 603 0 
L 603 3500 
z
M 603 4863 
L 1178 4863 
L 1178 4134 
L 603 4134 
L 603 4863 
z
" transform="scale(0.015625)"/>
       <path id="DejaVuSans-73" d="M 2834 3397 
L 2834 2853 
Q 2591 2978 2328 3040 
Q 2066 3103 1784 3103 
Q 1356 3103 1142 2972 
Q 928 2841 928 2578 
Q 928 2378 1081 2264 
Q 1234 2150 1697 2047 
L 1894 2003 
Q 2506 1872 2764 1633 
Q 3022 1394 3022 966 
Q 3022 478 2636 193 
Q 2250 -91 1575 -91 
Q 1294 -91 989 -36 
Q 684 19 347 128 
L 347 722 
Q 666 556 975 473 
Q 1284 391 1588 391 
Q 1994 391 2212 530 
Q 2431 669 2431 922 
Q 2431 1156 2273 1281 
Q 2116 1406 1581 1522 
L 1381 1569 
Q 847 1681 609 1914 
Q 372 2147 372 2553 
Q 372 3047 722 3315 
Q 1072 3584 1716 3584 
Q 2034 3584 2315 3537 
Q 2597 3491 2834 3397 
z
" transform="scale(0.015625)"/>
       <path id="DejaVuSans-61" d="M 2194 1759 
Q 1497 1759 1228 1600 
Q 959 1441 959 1056 
Q 959 750 1161 570 
Q 1363 391 1709 391 
Q 2188 391 2477 730 
Q 2766 1069 2766 1631 
L 2766 1759 
L 2194 1759 
z
M 3341 1997 
L 3341 0 
L 2766 0 
L 2766 531 
Q 2569 213 2275 61 
Q 1981 -91 1556 -91 
Q 1019 -91 701 211 
Q 384 513 384 1019 
Q 384 1609 779 1909 
Q 1175 2209 1959 2209 
L 2766 2209 
L 2766 2266 
Q 2766 2663 2505 2880 
Q 2244 3097 1772 3097 
Q 1472 3097 1187 3025 
Q 903 2953 641 2809 
L 641 3341 
Q 956 3463 1253 3523 
Q 1550 3584 1831 3584 
Q 2591 3584 2966 3190 
Q 3341 2797 3341 1997 
z
" transform="scale(0.015625)"/>
       <path id="DejaVuSans-63" d="M 3122 3366 
L 3122 2828 
Q 2878 2963 2633 3030 
Q 2388 3097 2138 3097 
Q 1578 3097 1268 2742 
Q 959 2388 959 1747 
Q 959 1106 1268 751 
Q 1578 397 2138 397 
Q 2388 397 2633 464 
Q 2878 531 3122 666 
L 3122 134 
Q 2881 22 2623 -34 
Q 2366 -91 2075 -91 
Q 1284 -91 818 406 
Q 353 903 353 1747 
Q 353 2603 823 3093 
Q 1294 3584 2113 3584 
Q 2378 3584 2631 3529 
Q 2884 3475 3122 3366 
z
" transform="scale(0.015625)"/>
       <path id="DejaVuSans-65" d="M 3597 1894 
L 3597 1613 
L 953 1613 
Q 991 1019 1311 708 
Q 1631 397 2203 397 
Q 2534 397 2845 478 
Q 3156 559 3463 722 
L 3463 178 
Q 3153 47 2828 -22 
Q 2503 -91 2169 -91 
Q 1331 -91 842 396 
Q 353 884 353 1716 
Q 353 2575 817 3079 
Q 1281 3584 2069 3584 
Q 2775 3584 3186 3129 
Q 3597 2675 3597 1894 
z
M 3022 2063 
Q 3016 2534 2758 2815 
Q 2500 3097 2075 3097 
Q 1594 3097 1305 2825 
Q 1016 2553 972 2059 
L 3022 2063 
z
" transform="scale(0.015625)"/>
       <path id="DejaVuSans-28" d="M 1984 4856 
Q 1566 4138 1362 3434 
Q 1159 2731 1159 2009 
Q 1159 1288 1364 580 
Q 1569 -128 1984 -844 
L 1484 -844 
Q 1016 -109 783 600 
Q 550 1309 550 2009 
Q 550 2706 781 3412 
Q 1013 4119 1484 4856 
L 1984 4856 
z
" transform="scale(0.015625)"/>
       <path id="DejaVuSans-6d" d="M 3328 2828 
Q 3544 3216 3844 3400 
Q 4144 3584 4550 3584 
Q 5097 3584 5394 3201 
Q 5691 2819 5691 2113 
L 5691 0 
L 5113 0 
L 5113 2094 
Q 5113 2597 4934 2840 
Q 4756 3084 4391 3084 
Q 3944 3084 3684 2787 
Q 3425 2491 3425 1978 
L 3425 0 
L 2847 0 
L 2847 2094 
Q 2847 2600 2669 2842 
Q 2491 3084 2119 3084 
Q 1678 3084 1418 2786 
Q 1159 2488 1159 1978 
L 1159 0 
L 581 0 
L 581 3500 
L 1159 3500 
L 1159 2956 
Q 1356 3278 1631 3431 
Q 1906 3584 2284 3584 
Q 2666 3584 2933 3390 
Q 3200 3197 3328 2828 
z
" transform="scale(0.015625)"/>
       <path id="DejaVuSans-29" d="M 513 4856 
L 1013 4856 
Q 1481 4119 1714 3412 
Q 1947 2706 1947 2009 
Q 1947 1309 1714 600 
Q 1481 -109 1013 -844 
L 513 -844 
Q 928 -128 1133 580 
Q 1338 1288 1338 2009 
Q 1338 2731 1133 3434 
Q 928 4138 513 4856 
z
" transform="scale(0.015625)"/>
      </defs>
      <use xlink:href="#DejaVuSans-47"/>
      <use xlink:href="#DejaVuSans-72" x="77.490234"/>
      <use xlink:href="#DejaVuSans-6f" x="116.353516"/>
      <use xlink:href="#DejaVuSans-75" x="177.535156"/>
      <use xlink:href="#DejaVuSans-6e" x="240.914062"/>
      <use xlink:href="#DejaVuSans-64" x="304.292969"/>
      <use xlink:href="#DejaVuSans-20" x="367.769531"/>
      <use xlink:href="#DejaVuSans-54" x="399.556641"/>
      <use xlink:href="#DejaVuSans-72" x="445.890625"/>
      <use xlink:href="#DejaVuSans-75" x="487.003906"/>
      <use xlink:href="#DejaVuSans-74" x="550.382812"/>
      <use xlink:href="#DejaVuSans-68" x="589.591797"/>
      <use xlink:href="#DejaVuSans-20" x="652.970703"/>
      <use xlink:href="#DejaVuSans-44" x="684.757812"/>
      <use xlink:href="#DejaVuSans-69" x="761.759766"/>
      <use xlink:href="#DejaVuSans-73" x="789.542969"/>
      <use xlink:href="#DejaVuSans-74" x="841.642578"/>
      <use xlink:href="#DejaVuSans-61" x="880.851562"/>
      <use xlink:href="#DejaVuSans-6e" x="942.130859"/>
      <use xlink:href="#DejaVuSans-63" x="1005.509766"/>
      <use xlink:href="#DejaVuSans-65" x="1060.490234"/>
      <use xlink:href="#DejaVuSans-20" x="1122.013672"/>
      <use xlink:href="#DejaVuSans-28" x="1153.800781"/>
      <use xlink:href="#DejaVuSans-6d" x="1192.814453"/>
      <use xlink:href="#DejaVuSans-29" x="1290.226562"/>
     </g>
    </g>
   </g>
   <g id="matplotlib.axis_2">
    <g id="ytick_1">
     <g id="line2d_11">
      <path d="M 79.22 500.363615 
L 1225.51 500.363615 
" clip-path="url(#p8756d79dbb)" style="fill: none; stroke: #b0b0b0; stroke-width: 0.8; stroke-linecap: square"/>
     </g>
     <g id="line2d_12">
      <defs>
       <path id="me2c889ce43" d="M 0 0 
L -3.5 0 
" style="stroke: #000000; stroke-width: 0.8"/>
      </defs>
      <g>
       <use xlink:href="#me2c889ce43" x="79.22" y="500.363615" style="stroke: #000000; stroke-width: 0.8"/>
      </g>
     </g>
     <g id="text_7">
      <!-- 10 -->
      <g transform="translate(40.4075 509.861662) scale(0.25 -0.25)">
       <use xlink:href="#DejaVuSans-31"/>
       <use xlink:href="#DejaVuSans-30" x="63.623047"/>
      </g>
     </g>
    </g>
    <g id="ytick_2">
     <g id="line2d_13">
      <path d="M 79.22 401.059627 
L 1225.51 401.059627 
" clip-path="url(#p8756d79dbb)" style="fill: none; stroke: #b0b0b0; stroke-width: 0.8; stroke-linecap: square"/>
     </g>
     <g id="line2d_14">
      <g>
       <use xlink:href="#me2c889ce43" x="79.22" y="401.059627" style="stroke: #000000; stroke-width: 0.8"/>
      </g>
     </g>
     <g id="text_8">
      <!-- 15 -->
      <g transform="translate(40.4075 410.557674) scale(0.25 -0.25)">
       <use xlink:href="#DejaVuSans-31"/>
       <use xlink:href="#DejaVuSans-35" x="63.623047"/>
      </g>
     </g>
    </g>
    <g id="ytick_3">
     <g id="line2d_15">
      <path d="M 79.22 301.755639 
L 1225.51 301.755639 
" clip-path="url(#p8756d79dbb)" style="fill: none; stroke: #b0b0b0; stroke-width: 0.8; stroke-linecap: square"/>
     </g>
     <g id="line2d_16">
      <g>
       <use xlink:href="#me2c889ce43" x="79.22" y="301.755639" style="stroke: #000000; stroke-width: 0.8"/>
      </g>
     </g>
     <g id="text_9">
      <!-- 20 -->
      <g transform="translate(40.4075 311.253685) scale(0.25 -0.25)">
       <use xlink:href="#DejaVuSans-32"/>
       <use xlink:href="#DejaVuSans-30" x="63.623047"/>
      </g>
     </g>
    </g>
    <g id="ytick_4">
     <g id="line2d_17">
      <path d="M 79.22 202.45165 
L 1225.51 202.45165 
" clip-path="url(#p8756d79dbb)" style="fill: none; stroke: #b0b0b0; stroke-width: 0.8; stroke-linecap: square"/>
     </g>
     <g id="line2d_18">
      <g>
       <use xlink:href="#me2c889ce43" x="79.22" y="202.45165" style="stroke: #000000; stroke-width: 0.8"/>
      </g>
     </g>
     <g id="text_10">
      <!-- 25 -->
      <g transform="translate(40.4075 211.949697) scale(0.25 -0.25)">
       <use xlink:href="#DejaVuSans-32"/>
       <use xlink:href="#DejaVuSans-35" x="63.623047"/>
      </g>
     </g>
    </g>
    <g id="ytick_5">
     <g id="line2d_19">
      <path d="M 79.22 103.147662 
L 1225.51 103.147662 
" clip-path="url(#p8756d79dbb)" style="fill: none; stroke: #b0b0b0; stroke-width: 0.8; stroke-linecap: square"/>
     </g>
     <g id="line2d_20">
      <g>
       <use xlink:href="#me2c889ce43" x="79.22" y="103.147662" style="stroke: #000000; stroke-width: 0.8"/>
      </g>
     </g>
     <g id="text_11">
      <!-- 30 -->
      <g transform="translate(40.4075 112.645709) scale(0.25 -0.25)">
       <use xlink:href="#DejaVuSans-33"/>
       <use xlink:href="#DejaVuSans-30" x="63.623047"/>
      </g>
     </g>
    </g>
    <g id="text_12">
     <!-- Predicted Distance (m) -->
     <g transform="translate(31.208281 449.947031) rotate(-90) scale(0.25 -0.25)">
      <defs>
       <path id="DejaVuSans-50" d="M 1259 4147 
L 1259 2394 
L 2053 2394 
Q 2494 2394 2734 2622 
Q 2975 2850 2975 3272 
Q 2975 3691 2734 3919 
Q 2494 4147 2053 4147 
L 1259 4147 
z
M 628 4666 
L 2053 4666 
Q 2838 4666 3239 4311 
Q 3641 3956 3641 3272 
Q 3641 2581 3239 2228 
Q 2838 1875 2053 1875 
L 1259 1875 
L 1259 0 
L 628 0 
L 628 4666 
z
" transform="scale(0.015625)"/>
      </defs>
      <use xlink:href="#DejaVuSans-50"/>
      <use xlink:href="#DejaVuSans-72" x="58.552734"/>
      <use xlink:href="#DejaVuSans-65" x="97.416016"/>
      <use xlink:href="#DejaVuSans-64" x="158.939453"/>
      <use xlink:href="#DejaVuSans-69" x="222.416016"/>
      <use xlink:href="#DejaVuSans-63" x="250.199219"/>
      <use xlink:href="#DejaVuSans-74" x="305.179688"/>
      <use xlink:href="#DejaVuSans-65" x="344.388672"/>
      <use xlink:href="#DejaVuSans-64" x="405.912109"/>
      <use xlink:href="#DejaVuSans-20" x="469.388672"/>
      <use xlink:href="#DejaVuSans-44" x="501.175781"/>
      <use xlink:href="#DejaVuSans-69" x="578.177734"/>
      <use xlink:href="#DejaVuSans-73" x="605.960938"/>
      <use xlink:href="#DejaVuSans-74" x="658.060547"/>
      <use xlink:href="#DejaVuSans-61" x="697.269531"/>
      <use xlink:href="#DejaVuSans-6e" x="758.548828"/>
      <use xlink:href="#DejaVuSans-63" x="821.927734"/>
      <use xlink:href="#DejaVuSans-65" x="876.908203"/>
      <use xlink:href="#DejaVuSans-20" x="938.431641"/>
      <use xlink:href="#DejaVuSans-28" x="970.21875"/>
      <use xlink:href="#DejaVuSans-6d" x="1009.232422"/>
      <use xlink:href="#DejaVuSans-29" x="1106.644531"/>
     </g>
    </g>
   </g>
   <g id="line2d_21">
    <path d="M 131.324091 551.667273 
L 1173.405909 84.512638 
L 1173.405909 84.512638 
" clip-path="url(#p8756d79dbb)" style="fill: none; stroke: #0000ff; stroke-width: 1.5; stroke-linecap: square"/>
   </g>
   <g id="line2d_22">
    <path d="M 131.324091 442.075228 
L 133.379877 442.468113 
L 133.379877 442.468113 
L 139.624726 441.679504 
L 145.98752 441.679504 
L 145.98752 441.679504 
L 150.296006 440.879418 
L 150.296006 440.879418 
L 152.470487 439.657215 
L 154.658572 440.067602 
L 154.658572 440.067602 
L 159.075896 438.421949 
L 159.075896 438.421949 
L 168.077576 436.725904 
L 168.077576 436.725904 
L 170.363304 437.573363 
L 170.363304 437.573363 
L 172.663333 434.96349 
L 172.663333 434.96349 
L 182.008248 433.146202 
L 189.171529 432.216174 
L 191.589228 432.216174 
L 191.589228 432.216174 
L 196.4701 430.311652 
L 201.412235 429.350086 
L 206.416404 428.856583 
L 206.416404 428.856583 
L 208.941993 428.856583 
L 214.040674 427.351901 
L 216.613964 427.351901 
L 216.613964 427.351901 
L 227.069127 425.300707 
L 227.069127 425.300707 
L 229.723927 423.166514 
L 235.08346 420.972016 
L 237.788401 422.072182 
L 237.788401 422.072182 
L 243.249157 421.530957 
L 243.249157 421.530957 
L 254.377158 417.527575 
L 254.377158 417.527575 
L 257.202807 415.13176 
L 268.683295 410.047067 
L 271.598448 412.62368 
L 271.598448 412.62368 
L 277.483583 412.62368 
L 277.483583 412.62368 
L 286.45008 403.866752 
L 295.585925 403.133679 
L 295.585925 403.133679 
L 298.66939 395.523493 
L 301.772147 399.429499 
L 301.772147 399.429499 
L 304.894316 393.093258 
L 311.197375 391.42305 
L 311.197375 391.42305 
L 317.57955 388.86118 
L 320.800615 388.86118 
L 320.800615 388.86118 
L 330.585229 383.461309 
L 333.887663 379.658423 
L 333.887663 379.658423 
L 337.210757 380.625135 
L 340.554642 375.698377 
L 340.554642 375.698377 
L 343.919448 374.674858 
L 350.712345 371.531795 
L 354.140701 373.639395 
L 354.140701 373.639395 
L 357.590506 370.459223 
L 357.590506 370.459223 
L 368.06996 363.746437 
L 368.06996 363.746437 
L 378.747337 357.769232 
L 378.747337 357.769232 
L 382.35109 363.746437 
L 382.35109 363.746437 
L 389.626375 363.746437 
L 393.298191 357.761603 
L 393.298191 357.761603 
L 396.992978 352.707177 
L 396.992978 352.707177 
L 404.452046 344.5937 
L 408.216617 344.587814 
L 408.216617 344.587814 
L 412.004739 352.707177 
L 415.816562 345.98661 
L 415.816562 345.98661 
L 419.652233 338.803235 
L 431.30383 334.248747 
L 431.30383 334.248747 
L 435.236394 335.785237 
L 459.353876 326.196741 
L 459.353876 326.196741 
L 463.461932 322.813131 
L 463.461932 322.813131 
L 467.595688 326.200994 
L 467.595688 326.200994 
L 471.755308 324.519654 
L 471.755308 324.519654 
L 484.390962 326.20464 
L 492.947035 324.519654 
L 497.265262 327.861453 
L 497.265262 327.861453 
L 501.610504 326.20464 
L 501.610504 326.20464 
L 510.382715 332.69285 
L 510.382715 332.69285 
L 514.810025 332.69285 
L 514.810025 332.69285 
L 523.747914 335.801034 
L 537.365538 335.803533 
L 541.961662 337.321005 
L 541.961662 337.321005 
L 546.586541 335.801034 
L 546.586541 335.801034 
L 551.240355 335.801034 
L 551.240355 335.801034 
L 555.923284 341.758476 
L 555.923284 341.758476 
L 560.635512 350.101239 
L 565.377221 344.617385 
L 565.377221 344.617385 
L 570.148596 351.430919 
L 570.148596 351.430919 
L 574.949822 346.01414 
L 574.949822 346.01414 
L 579.781086 357.811744 
L 579.781086 357.811744 
L 584.642577 364.956924 
L 594.456994 360.2552 
L 594.456994 360.2552 
L 599.410302 366.09661 
L 599.410302 366.09661 
L 604.3946 367.225721 
L 604.3946 367.225721 
L 609.410081 371.596751 
L 614.456941 373.705756 
L 619.535376 373.708983 
L 619.535376 373.708983 
L 629.787761 377.783003 
L 629.787761 377.783003 
L 634.962111 381.675306 
L 634.962111 381.675306 
L 645.408131 382.62488 
L 645.408131 382.62488 
L 650.680208 380.718598 
L 650.680208 380.718598 
L 655.985268 383.563731 
L 655.985268 383.563731 
L 661.323519 382.62488 
L 661.323519 382.62488 
L 677.539495 376.78758 
L 683.012597 376.78503 
L 683.012597 376.78503 
L 688.51994 373.714036 
L 688.51994 373.714036 
L 694.061739 373.714036 
L 694.061739 373.714036 
L 699.63821 369.444585 
L 699.63821 369.444585 
L 710.896034 366.106146 
L 710.896034 366.106146 
L 722.295165 361.461391 
L 722.295165 361.461391 
L 728.048273 341.76157 
L 733.837376 351.437368 
L 733.837376 351.437368 
L 745.524463 335.799926 
L 745.524463 335.799926 
L 751.422902 319.319308 
L 757.358244 331.104381 
L 757.358244 331.104381 
L 763.33072 308.163215 
L 763.33072 308.163215 
L 775.388003 300.110104 
L 775.388003 300.110104 
L 781.473279 295.884667 
L 781.473279 295.884667 
L 787.596627 282.31537 
L 787.596627 282.31537 
L 818.79283 282.31537 
L 818.79283 282.31537 
L 831.546264 277.447185 
L 831.546264 277.447185 
L 837.982886 272.421735 
L 837.982886 272.421735 
L 844.459778 267.209439 
L 844.459778 267.209439 
L 857.535381 261.799685 
L 857.535381 261.799685 
L 864.1346 261.786405 
L 864.1346 261.786405 
L 870.775106 256.167131 
L 870.775106 256.167131 
L 877.457157 256.167131 
L 884.181014 250.311206 
L 884.181014 250.311206 
L 897.755191 244.23543 
L 897.755191 244.23543 
L 904.60604 234.650075 
L 904.60604 234.650075 
L 911.49975 231.321284 
L 911.49975 231.321284 
L 918.436589 220.883827 
L 918.436589 220.883827 
L 925.416827 217.259219 
L 925.416827 217.259219 
L 932.440737 205.872052 
L 932.440737 205.872052 
L 939.50859 201.886412 
L 939.50859 201.886412 
L 946.620663 193.709581 
L 946.620663 193.709581 
L 953.777231 185.116495 
L 953.777231 185.116495 
L 960.978573 176.07506 
L 960.978573 176.07506 
L 968.224969 171.399713 
L 968.224969 171.399713 
L 975.516701 176.07506 
L 1164.88381 283.915988 
L 1173.405909 293.168822 
L 1173.405909 293.168822 
" clip-path="url(#p8756d79dbb)" style="fill: none; stroke: #bfbf00; stroke-width: 1.5; stroke-linecap: square"/>
   </g>
   <g id="line2d_23">
    <path d="M 131.324091 548.649249 
L 133.379877 544.662678 
L 133.379877 544.662678 
L 139.624726 540.999308 
L 145.98752 537.9271 
L 145.98752 537.9271 
L 150.296006 541.751631 
L 150.296006 541.751631 
L 152.470487 540.170607 
L 154.658572 539.651251 
L 154.658572 539.651251 
L 159.075896 538.864552 
L 159.075896 538.864552 
L 163.548665 530.545412 
L 163.548665 530.545412 
L 168.077576 531.752595 
L 168.077576 531.752595 
L 170.363304 531.905247 
L 170.363304 531.905247 
L 172.663333 525.118529 
L 172.663333 525.118529 
L 177.306649 525.186576 
L 177.306649 525.186576 
L 182.008248 527.390855 
L 189.171529 520.520673 
L 191.589228 521.64462 
L 191.589228 521.64462 
L 196.4701 516.478481 
L 201.412235 518.806315 
L 206.416404 513.367081 
L 206.416404 513.367081 
L 208.941993 508.389819 
L 214.040674 513.484151 
L 216.613964 512.794872 
L 216.613964 512.794872 
L 219.203353 507.437138 
L 227.069127 505.18393 
L 227.069127 505.18393 
L 229.723927 506.801069 
L 235.08346 496.591247 
L 237.788401 497.666937 
L 237.788401 497.666937 
L 243.249157 497.813187 
L 243.249157 497.813187 
L 254.377158 496.295018 
L 254.377158 496.295018 
L 257.202807 492.394041 
L 268.683295 485.698657 
L 271.598448 481.961649 
L 277.483583 482.916694 
L 277.483583 482.916694 
L 286.45008 480.254288 
L 295.585925 472.712024 
L 295.585925 472.712024 
L 298.66939 476.444631 
L 301.772147 465.009949 
L 301.772147 465.009949 
L 304.894316 469.189103 
L 311.197375 470.841854 
L 311.197375 470.841854 
L 317.57955 462.754881 
L 320.800615 464.640727 
L 320.800615 464.640727 
L 324.041833 456.047693 
L 324.041833 456.047693 
L 327.303328 460.927632 
L 327.303328 460.927632 
L 330.585229 455.240913 
L 333.887663 458.416854 
L 337.210757 452.105234 
L 337.210757 452.105234 
L 340.554642 448.867563 
L 340.554642 448.867563 
L 343.919448 455.286498 
L 350.712345 451.293068 
L 354.140701 451.513106 
L 354.140701 451.513106 
L 357.590506 443.362078 
L 357.590506 443.362078 
L 368.06996 444.351328 
L 368.06996 444.351328 
L 378.747337 429.89418 
L 378.747337 429.89418 
L 382.35109 434.101574 
L 382.35109 434.101574 
L 389.626375 428.313748 
L 393.298191 423.034046 
L 393.298191 423.034046 
L 396.992978 427.605078 
L 396.992978 427.605078 
L 404.452046 425.425022 
L 408.216617 421.151069 
L 408.216617 421.151069 
L 412.004739 425.477605 
L 415.816562 416.327499 
L 415.816562 416.327499 
L 419.652233 418.240436 
L 431.30383 404.507692 
L 431.30383 404.507692 
L 435.236394 406.123237 
L 451.214231 399.603985 
L 451.214231 399.603985 
L 459.353876 392.391371 
L 459.353876 392.391371 
L 463.461932 389.321605 
L 463.461932 389.321605 
L 467.595688 388.234451 
L 467.595688 388.234451 
L 471.755308 396.259685 
L 471.755308 396.259685 
L 484.390962 390.818552 
L 492.947035 384.713047 
L 497.265262 377.954496 
L 497.265262 377.954496 
L 501.610504 384.208556 
L 501.610504 384.208556 
L 505.982932 378.283603 
L 505.982932 378.283603 
L 510.382715 366.302115 
L 510.382715 366.302115 
L 514.810025 376.217966 
L 514.810025 376.217966 
L 519.265033 373.644784 
L 519.265033 373.644784 
L 523.747914 361.022004 
L 528.258841 373.245848 
L 528.258841 373.245848 
L 537.365538 363.401741 
L 541.961662 352.802796 
L 541.961662 352.802796 
L 546.586541 360.560807 
L 546.586541 360.560807 
L 551.240355 349.471982 
L 551.240355 349.471982 
L 555.923284 346.91276 
L 555.923284 346.91276 
L 560.635512 343.49675 
L 565.377221 352.597653 
L 565.377221 352.597653 
L 570.148596 350.875799 
L 570.148596 350.875799 
L 574.949822 336.392947 
L 574.949822 336.392947 
L 579.781086 334.953102 
L 579.781086 334.953102 
L 584.642577 341.880079 
L 594.456994 333.020404 
L 594.456994 333.020404 
L 599.410302 341.682495 
L 599.410302 341.682495 
L 604.3946 326.801372 
L 604.3946 326.801372 
L 609.410081 332.970254 
L 614.456941 317.768954 
L 619.535376 323.470765 
L 619.535376 323.470765 
L 624.645583 321.063909 
L 624.645583 321.063909 
L 629.787761 318.426382 
L 629.787761 318.426382 
L 634.962111 323.300143 
L 634.962111 323.300143 
L 645.408131 317.193375 
L 645.408131 317.193375 
L 650.680208 314.887255 
L 650.680208 314.887255 
L 655.985268 310.540936 
L 655.985268 310.540936 
L 661.323519 297.791667 
L 661.323519 297.791667 
L 666.695167 294.83322 
L 666.695167 294.83322 
L 672.100423 297.188826 
L 677.539495 287.449123 
L 683.012597 296.008973 
L 683.012597 296.008973 
L 688.51994 294.822522 
L 688.51994 294.822522 
L 694.061739 280.213151 
L 694.061739 280.213151 
L 699.63821 290.06259 
L 699.63821 290.06259 
L 710.896034 278.925962 
L 710.896034 278.925962 
L 716.577826 274.047567 
L 716.577826 274.047567 
L 722.295165 266.219852 
L 722.295165 266.219852 
L 728.048273 268.22319 
L 733.837376 267.019772 
L 733.837376 267.019772 
L 745.524463 268.625679 
L 745.524463 268.625679 
L 751.422902 260.028093 
L 757.358244 270.088471 
L 757.358244 270.088471 
L 763.33072 261.736958 
L 763.33072 261.736958 
L 769.340561 247.851747 
L 775.388003 245.021421 
L 775.388003 245.021421 
L 781.473279 244.388042 
L 781.473279 244.388042 
L 787.596627 238.901194 
L 787.596627 238.901194 
L 793.758285 233.604598 
L 793.758285 233.604598 
L 799.958492 238.662002 
L 799.958492 238.662002 
L 806.19749 241.70119 
L 806.19749 241.70119 
L 812.475521 224.198734 
L 812.475521 224.198734 
L 818.79283 236.768226 
L 818.79283 236.768226 
L 825.149662 230.430737 
L 825.149662 230.430737 
L 831.546264 234.551657 
L 831.546264 234.551657 
L 837.982886 229.177081 
L 837.982886 229.177081 
L 844.459778 226.494365 
L 844.459778 226.494365 
L 857.535381 226.000149 
L 857.535381 226.000149 
L 864.1346 222.906222 
L 864.1346 222.906222 
L 870.775106 196.524384 
L 870.775106 196.524384 
L 877.457157 199.851082 
L 877.457157 199.851082 
L 884.181014 197.184005 
L 884.181014 197.184005 
L 890.946938 186.806404 
L 890.946938 186.806404 
L 897.755191 204.81373 
L 897.755191 204.81373 
L 904.60604 183.374125 
L 904.60604 183.374125 
L 911.49975 193.221299 
L 911.49975 193.221299 
L 918.436589 177.798548 
L 918.436589 177.798548 
L 925.416827 191.357111 
L 925.416827 191.357111 
L 932.440737 179.811752 
L 932.440737 179.811752 
L 939.50859 171.353118 
L 939.50859 171.353118 
L 946.620663 166.787328 
L 946.620663 166.787328 
L 953.777231 167.034376 
L 953.777231 167.034376 
L 960.978573 179.04072 
L 960.978573 179.04072 
L 968.224969 173.848405 
L 968.224969 173.848405 
L 975.516701 156.396874 
L 1164.88381 61.812727 
L 1173.405909 81.292219 
L 1173.405909 81.292219 
" clip-path="url(#p8756d79dbb)" style="fill: none; stroke: #00bfbf; stroke-width: 1.5; stroke-linecap: square"/>
   </g>
   <g id="patch_3">
    <path d="M 79.22 576.16 
L 79.22 37.32 
" style="fill: none; stroke: #000000; stroke-width: 0.8; stroke-linejoin: miter; stroke-linecap: square"/>
   </g>
   <g id="patch_4">
    <path d="M 1225.51 576.16 
L 1225.51 37.32 
" style="fill: none; stroke: #000000; stroke-width: 0.8; stroke-linejoin: miter; stroke-linecap: square"/>
   </g>
   <g id="patch_5">
    <path d="M 79.22 576.16 
L 1225.51 576.16 
" style="fill: none; stroke: #000000; stroke-width: 0.8; stroke-linejoin: miter; stroke-linecap: square"/>
   </g>
   <g id="patch_6">
    <path d="M 79.22 37.32 
L 1225.51 37.32 
" style="fill: none; stroke: #000000; stroke-width: 0.8; stroke-linejoin: miter; stroke-linecap: square"/>
   </g>
   <g id="text_13">
    <!-- Comparison of Distance Estimation Performance -->
    <g transform="translate(349.159922 31.32) scale(0.25 -0.25)">
     <defs>
      <path id="DejaVuSans-43" d="M 4122 4306 
L 4122 3641 
Q 3803 3938 3442 4084 
Q 3081 4231 2675 4231 
Q 1875 4231 1450 3742 
Q 1025 3253 1025 2328 
Q 1025 1406 1450 917 
Q 1875 428 2675 428 
Q 3081 428 3442 575 
Q 3803 722 4122 1019 
L 4122 359 
Q 3791 134 3420 21 
Q 3050 -91 2638 -91 
Q 1578 -91 968 557 
Q 359 1206 359 2328 
Q 359 3453 968 4101 
Q 1578 4750 2638 4750 
Q 3056 4750 3426 4639 
Q 3797 4528 4122 4306 
z
" transform="scale(0.015625)"/>
      <path id="DejaVuSans-70" d="M 1159 525 
L 1159 -1331 
L 581 -1331 
L 581 3500 
L 1159 3500 
L 1159 2969 
Q 1341 3281 1617 3432 
Q 1894 3584 2278 3584 
Q 2916 3584 3314 3078 
Q 3713 2572 3713 1747 
Q 3713 922 3314 415 
Q 2916 -91 2278 -91 
Q 1894 -91 1617 61 
Q 1341 213 1159 525 
z
M 3116 1747 
Q 3116 2381 2855 2742 
Q 2594 3103 2138 3103 
Q 1681 3103 1420 2742 
Q 1159 2381 1159 1747 
Q 1159 1113 1420 752 
Q 1681 391 2138 391 
Q 2594 391 2855 752 
Q 3116 1113 3116 1747 
z
" transform="scale(0.015625)"/>
      <path id="DejaVuSans-66" d="M 2375 4863 
L 2375 4384 
L 1825 4384 
Q 1516 4384 1395 4259 
Q 1275 4134 1275 3809 
L 1275 3500 
L 2222 3500 
L 2222 3053 
L 1275 3053 
L 1275 0 
L 697 0 
L 697 3053 
L 147 3053 
L 147 3500 
L 697 3500 
L 697 3744 
Q 697 4328 969 4595 
Q 1241 4863 1831 4863 
L 2375 4863 
z
" transform="scale(0.015625)"/>
      <path id="DejaVuSans-45" d="M 628 4666 
L 3578 4666 
L 3578 4134 
L 1259 4134 
L 1259 2753 
L 3481 2753 
L 3481 2222 
L 1259 2222 
L 1259 531 
L 3634 531 
L 3634 0 
L 628 0 
L 628 4666 
z
" transform="scale(0.015625)"/>
     </defs>
     <use xlink:href="#DejaVuSans-43"/>
     <use xlink:href="#DejaVuSans-6f" x="69.824219"/>
     <use xlink:href="#DejaVuSans-6d" x="131.005859"/>
     <use xlink:href="#DejaVuSans-70" x="228.417969"/>
     <use xlink:href="#DejaVuSans-61" x="291.894531"/>
     <use xlink:href="#DejaVuSans-72" x="353.173828"/>
     <use xlink:href="#DejaVuSans-69" x="394.287109"/>
     <use xlink:href="#DejaVuSans-73" x="422.070312"/>
     <use xlink:href="#DejaVuSans-6f" x="474.169922"/>
     <use xlink:href="#DejaVuSans-6e" x="535.351562"/>
     <use xlink:href="#DejaVuSans-20" x="598.730469"/>
     <use xlink:href="#DejaVuSans-6f" x="630.517578"/>
     <use xlink:href="#DejaVuSans-66" x="691.699219"/>
     <use xlink:href="#DejaVuSans-20" x="726.904297"/>
     <use xlink:href="#DejaVuSans-44" x="758.691406"/>
     <use xlink:href="#DejaVuSans-69" x="835.693359"/>
     <use xlink:href="#DejaVuSans-73" x="863.476562"/>
     <use xlink:href="#DejaVuSans-74" x="915.576172"/>
     <use xlink:href="#DejaVuSans-61" x="954.785156"/>
     <use xlink:href="#DejaVuSans-6e" x="1016.064453"/>
     <use xlink:href="#DejaVuSans-63" x="1079.443359"/>
     <use xlink:href="#DejaVuSans-65" x="1134.423828"/>
     <use xlink:href="#DejaVuSans-20" x="1195.947266"/>
     <use xlink:href="#DejaVuSans-45" x="1227.734375"/>
     <use xlink:href="#DejaVuSans-73" x="1290.917969"/>
     <use xlink:href="#DejaVuSans-74" x="1343.017578"/>
     <use xlink:href="#DejaVuSans-69" x="1382.226562"/>
     <use xlink:href="#DejaVuSans-6d" x="1410.009766"/>
     <use xlink:href="#DejaVuSans-61" x="1507.421875"/>
     <use xlink:href="#DejaVuSans-74" x="1568.701172"/>
     <use xlink:href="#DejaVuSans-69" x="1607.910156"/>
     <use xlink:href="#DejaVuSans-6f" x="1635.693359"/>
     <use xlink:href="#DejaVuSans-6e" x="1696.875"/>
     <use xlink:href="#DejaVuSans-20" x="1760.253906"/>
     <use xlink:href="#DejaVuSans-50" x="1792.041016"/>
     <use xlink:href="#DejaVuSans-65" x="1848.71875"/>
     <use xlink:href="#DejaVuSans-72" x="1910.242188"/>
     <use xlink:href="#DejaVuSans-66" x="1951.355469"/>
     <use xlink:href="#DejaVuSans-6f" x="1986.560547"/>
     <use xlink:href="#DejaVuSans-72" x="2047.742188"/>
     <use xlink:href="#DejaVuSans-6d" x="2087.105469"/>
     <use xlink:href="#DejaVuSans-61" x="2184.517578"/>
     <use xlink:href="#DejaVuSans-6e" x="2245.796875"/>
     <use xlink:href="#DejaVuSans-63" x="2309.175781"/>
     <use xlink:href="#DejaVuSans-65" x="2364.15625"/>
    </g>
   </g>
   <g id="legend_1">
    <g id="patch_7">
     <path d="M 96.72 240.796562 
L 467.97 240.796562 
Q 472.97 240.796562 472.97 235.796562 
L 472.97 54.82 
Q 472.97 49.82 467.97 49.82 
L 96.72 49.82 
Q 91.72 49.82 91.72 54.82 
L 91.72 235.796562 
Q 91.72 240.796562 96.72 240.796562 
z
" style="fill: #ffffff; opacity: 0.8; stroke: #cccccc; stroke-linejoin: miter"/>
    </g>
    <g id="line2d_24">
     <path d="M 101.72 70.066094 
L 126.72 70.066094 
L 151.72 70.066094 
" style="fill: none; stroke: #0000ff; stroke-width: 1.5; stroke-linecap: square"/>
    </g>
    <g id="text_14">
     <!-- Ground Truth -->
     <g transform="translate(171.72 78.816094) scale(0.25 -0.25)">
      <use xlink:href="#DejaVuSans-47"/>
      <use xlink:href="#DejaVuSans-72" x="77.490234"/>
      <use xlink:href="#DejaVuSans-6f" x="116.353516"/>
      <use xlink:href="#DejaVuSans-75" x="177.535156"/>
      <use xlink:href="#DejaVuSans-6e" x="240.914062"/>
      <use xlink:href="#DejaVuSans-64" x="304.292969"/>
      <use xlink:href="#DejaVuSans-20" x="367.769531"/>
      <use xlink:href="#DejaVuSans-54" x="399.556641"/>
      <use xlink:href="#DejaVuSans-72" x="445.890625"/>
      <use xlink:href="#DejaVuSans-75" x="487.003906"/>
      <use xlink:href="#DejaVuSans-74" x="550.382812"/>
      <use xlink:href="#DejaVuSans-68" x="589.591797"/>
     </g>
    </g>
    <g id="line2d_25">
     <path d="M 101.72 106.761406 
L 126.72 106.761406 
L 151.72 106.761406 
" style="fill: none; stroke: #00bfbf; stroke-width: 1.5; stroke-linecap: square"/>
    </g>
    <g id="text_15">
     <!-- Compensation -->
     <g transform="translate(171.72 115.511406) scale(0.25 -0.25)">
      <use xlink:href="#DejaVuSans-43"/>
      <use xlink:href="#DejaVuSans-6f" x="69.824219"/>
      <use xlink:href="#DejaVuSans-6d" x="131.005859"/>
      <use xlink:href="#DejaVuSans-70" x="228.417969"/>
      <use xlink:href="#DejaVuSans-65" x="291.894531"/>
      <use xlink:href="#DejaVuSans-6e" x="353.417969"/>
      <use xlink:href="#DejaVuSans-73" x="416.796875"/>
      <use xlink:href="#DejaVuSans-61" x="468.896484"/>
      <use xlink:href="#DejaVuSans-74" x="530.175781"/>
      <use xlink:href="#DejaVuSans-69" x="569.384766"/>
      <use xlink:href="#DejaVuSans-6f" x="597.167969"/>
      <use xlink:href="#DejaVuSans-6e" x="658.349609"/>
     </g>
    </g>
    <g id="line2d_26">
     <path d="M 101.72 143.456719 
L 126.72 143.456719 
L 151.72 143.456719 
" style="fill: none; stroke: #bfbf00; stroke-width: 1.5; stroke-linecap: square"/>
    </g>
    <g id="text_16">
     <!-- No Compensation -->
     <g transform="translate(171.72 152.206719) scale(0.25 -0.25)">
      <defs>
       <path id="DejaVuSans-4e" d="M 628 4666 
L 1478 4666 
L 3547 763 
L 3547 4666 
L 4159 4666 
L 4159 0 
L 3309 0 
L 1241 3903 
L 1241 0 
L 628 0 
L 628 4666 
z
" transform="scale(0.015625)"/>
      </defs>
      <use xlink:href="#DejaVuSans-4e"/>
      <use xlink:href="#DejaVuSans-6f" x="74.804688"/>
      <use xlink:href="#DejaVuSans-20" x="135.986328"/>
      <use xlink:href="#DejaVuSans-43" x="167.773438"/>
      <use xlink:href="#DejaVuSans-6f" x="237.597656"/>
      <use xlink:href="#DejaVuSans-6d" x="298.779297"/>
      <use xlink:href="#DejaVuSans-70" x="396.191406"/>
      <use xlink:href="#DejaVuSans-65" x="459.667969"/>
      <use xlink:href="#DejaVuSans-6e" x="521.191406"/>
      <use xlink:href="#DejaVuSans-73" x="584.570312"/>
      <use xlink:href="#DejaVuSans-61" x="636.669922"/>
      <use xlink:href="#DejaVuSans-74" x="697.949219"/>
      <use xlink:href="#DejaVuSans-69" x="737.158203"/>
      <use xlink:href="#DejaVuSans-6f" x="764.941406"/>
      <use xlink:href="#DejaVuSans-6e" x="826.123047"/>
     </g>
    </g>
    <g id="line2d_27">
     <path d="M 101.72 180.152031 
L 126.72 180.152031 
L 151.72 180.152031 
" style="fill: none; stroke-dasharray: 5.55,2.4; stroke-dashoffset: 0; stroke: #ff0000; stroke-width: 1.5"/>
    </g>
    <g id="text_17">
     <!-- Error No Compensation -->
     <g transform="translate(171.72 188.902031) scale(0.25 -0.25)">
      <use xlink:href="#DejaVuSans-45"/>
      <use xlink:href="#DejaVuSans-72" x="63.183594"/>
      <use xlink:href="#DejaVuSans-72" x="102.546875"/>
      <use xlink:href="#DejaVuSans-6f" x="141.410156"/>
      <use xlink:href="#DejaVuSans-72" x="202.591797"/>
      <use xlink:href="#DejaVuSans-20" x="243.705078"/>
      <use xlink:href="#DejaVuSans-4e" x="275.492188"/>
      <use xlink:href="#DejaVuSans-6f" x="350.296875"/>
      <use xlink:href="#DejaVuSans-20" x="411.478516"/>
      <use xlink:href="#DejaVuSans-43" x="443.265625"/>
      <use xlink:href="#DejaVuSans-6f" x="513.089844"/>
      <use xlink:href="#DejaVuSans-6d" x="574.271484"/>
      <use xlink:href="#DejaVuSans-70" x="671.683594"/>
      <use xlink:href="#DejaVuSans-65" x="735.160156"/>
      <use xlink:href="#DejaVuSans-6e" x="796.683594"/>
      <use xlink:href="#DejaVuSans-73" x="860.0625"/>
      <use xlink:href="#DejaVuSans-61" x="912.162109"/>
      <use xlink:href="#DejaVuSans-74" x="973.441406"/>
      <use xlink:href="#DejaVuSans-69" x="1012.650391"/>
      <use xlink:href="#DejaVuSans-6f" x="1040.433594"/>
      <use xlink:href="#DejaVuSans-6e" x="1101.615234"/>
     </g>
    </g>
    <g id="line2d_28">
     <path d="M 101.72 216.847344 
L 126.72 216.847344 
L 151.72 216.847344 
" style="fill: none; stroke-dasharray: 5.55,2.4; stroke-dashoffset: 0; stroke: #008000; stroke-width: 1.5"/>
    </g>
    <g id="text_18">
     <!-- Error Compensation -->
     <g transform="translate(171.72 225.597344) scale(0.25 -0.25)">
      <use xlink:href="#DejaVuSans-45"/>
      <use xlink:href="#DejaVuSans-72" x="63.183594"/>
      <use xlink:href="#DejaVuSans-72" x="102.546875"/>
      <use xlink:href="#DejaVuSans-6f" x="141.410156"/>
      <use xlink:href="#DejaVuSans-72" x="202.591797"/>
      <use xlink:href="#DejaVuSans-20" x="243.705078"/>
      <use xlink:href="#DejaVuSans-43" x="275.492188"/>
      <use xlink:href="#DejaVuSans-6f" x="345.316406"/>
      <use xlink:href="#DejaVuSans-6d" x="406.498047"/>
      <use xlink:href="#DejaVuSans-70" x="503.910156"/>
      <use xlink:href="#DejaVuSans-65" x="567.386719"/>
      <use xlink:href="#DejaVuSans-6e" x="628.910156"/>
      <use xlink:href="#DejaVuSans-73" x="692.289062"/>
      <use xlink:href="#DejaVuSans-61" x="744.388672"/>
      <use xlink:href="#DejaVuSans-74" x="805.667969"/>
      <use xlink:href="#DejaVuSans-69" x="844.876953"/>
      <use xlink:href="#DejaVuSans-6f" x="872.660156"/>
      <use xlink:href="#DejaVuSans-6e" x="933.841797"/>
     </g>
    </g>
   </g>
  </g>
  <g id="axes_2">
   <g id="matplotlib.axis_3">
    <g id="ytick_6">
     <g id="line2d_29">
      <defs>
       <path id="m77c37ffe87" d="M 0 0 
L 3.5 0 
" style="stroke: #000000; stroke-width: 0.8"/>
      </defs>
      <g>
       <use xlink:href="#m77c37ffe87" x="1225.51" y="486.575248" style="stroke: #000000; stroke-width: 0.8"/>
      </g>
     </g>
     <g id="text_19">
      <!-- −60 -->
      <g transform="translate(1232.51 490.754389) scale(0.11 -0.11)">
       <defs>
        <path id="DejaVuSans-2212" d="M 678 2272 
L 4684 2272 
L 4684 1741 
L 678 1741 
L 678 2272 
z
" transform="scale(0.015625)"/>
        <path id="DejaVuSans-36" d="M 2113 2584 
Q 1688 2584 1439 2293 
Q 1191 2003 1191 1497 
Q 1191 994 1439 701 
Q 1688 409 2113 409 
Q 2538 409 2786 701 
Q 3034 994 3034 1497 
Q 3034 2003 2786 2293 
Q 2538 2584 2113 2584 
z
M 3366 4563 
L 3366 3988 
Q 3128 4100 2886 4159 
Q 2644 4219 2406 4219 
Q 1781 4219 1451 3797 
Q 1122 3375 1075 2522 
Q 1259 2794 1537 2939 
Q 1816 3084 2150 3084 
Q 2853 3084 3261 2657 
Q 3669 2231 3669 1497 
Q 3669 778 3244 343 
Q 2819 -91 2113 -91 
Q 1303 -91 875 529 
Q 447 1150 447 2328 
Q 447 3434 972 4092 
Q 1497 4750 2381 4750 
Q 2619 4750 2861 4703 
Q 3103 4656 3366 4563 
z
" transform="scale(0.015625)"/>
       </defs>
       <use xlink:href="#DejaVuSans-2212"/>
       <use xlink:href="#DejaVuSans-36" x="83.789062"/>
       <use xlink:href="#DejaVuSans-30" x="147.412109"/>
      </g>
     </g>
    </g>
    <g id="ytick_7">
     <g id="line2d_30">
      <g>
       <use xlink:href="#m77c37ffe87" x="1225.51" y="396.159566" style="stroke: #000000; stroke-width: 0.8"/>
      </g>
     </g>
     <g id="text_20">
      <!-- −40 -->
      <g transform="translate(1232.51 400.338706) scale(0.11 -0.11)">
       <defs>
        <path id="DejaVuSans-34" d="M 2419 4116 
L 825 1625 
L 2419 1625 
L 2419 4116 
z
M 2253 4666 
L 3047 4666 
L 3047 1625 
L 3713 1625 
L 3713 1100 
L 3047 1100 
L 3047 0 
L 2419 0 
L 2419 1100 
L 313 1100 
L 313 1709 
L 2253 4666 
z
" transform="scale(0.015625)"/>
       </defs>
       <use xlink:href="#DejaVuSans-2212"/>
       <use xlink:href="#DejaVuSans-34" x="83.789062"/>
       <use xlink:href="#DejaVuSans-30" x="147.412109"/>
      </g>
     </g>
    </g>
    <g id="ytick_8">
     <g id="line2d_31">
      <g>
       <use xlink:href="#m77c37ffe87" x="1225.51" y="305.743883" style="stroke: #000000; stroke-width: 0.8"/>
      </g>
     </g>
     <g id="text_21">
      <!-- −20 -->
      <g transform="translate(1232.51 309.923023) scale(0.11 -0.11)">
       <use xlink:href="#DejaVuSans-2212"/>
       <use xlink:href="#DejaVuSans-32" x="83.789062"/>
       <use xlink:href="#DejaVuSans-30" x="147.412109"/>
      </g>
     </g>
    </g>
    <g id="ytick_9">
     <g id="line2d_32">
      <g>
       <use xlink:href="#m77c37ffe87" x="1225.51" y="215.3282" style="stroke: #000000; stroke-width: 0.8"/>
      </g>
     </g>
     <g id="text_22">
      <!-- 0 -->
      <g transform="translate(1232.51 219.50734) scale(0.11 -0.11)">
       <use xlink:href="#DejaVuSans-30"/>
      </g>
     </g>
    </g>
    <g id="ytick_10">
     <g id="line2d_33">
      <g>
       <use xlink:href="#m77c37ffe87" x="1225.51" y="124.912517" style="stroke: #000000; stroke-width: 0.8"/>
      </g>
     </g>
     <g id="text_23">
      <!-- 20 -->
      <g transform="translate(1232.51 129.091658) scale(0.11 -0.11)">
       <use xlink:href="#DejaVuSans-32"/>
       <use xlink:href="#DejaVuSans-30" x="63.623047"/>
      </g>
     </g>
    </g>
    <g id="text_24">
     <!-- Predicted Error (%) -->
     <g transform="translate(1278.72125 425.454844) rotate(-90) scale(0.25 -0.25)">
      <defs>
       <path id="DejaVuSans-25" d="M 4653 2053 
Q 4381 2053 4226 1822 
Q 4072 1591 4072 1178 
Q 4072 772 4226 539 
Q 4381 306 4653 306 
Q 4919 306 5073 539 
Q 5228 772 5228 1178 
Q 5228 1588 5073 1820 
Q 4919 2053 4653 2053 
z
M 4653 2450 
Q 5147 2450 5437 2106 
Q 5728 1763 5728 1178 
Q 5728 594 5436 251 
Q 5144 -91 4653 -91 
Q 4153 -91 3862 251 
Q 3572 594 3572 1178 
Q 3572 1766 3864 2108 
Q 4156 2450 4653 2450 
z
M 1428 4353 
Q 1159 4353 1004 4120 
Q 850 3888 850 3481 
Q 850 3069 1003 2837 
Q 1156 2606 1428 2606 
Q 1700 2606 1854 2837 
Q 2009 3069 2009 3481 
Q 2009 3884 1853 4118 
Q 1697 4353 1428 4353 
z
M 4250 4750 
L 4750 4750 
L 1831 -91 
L 1331 -91 
L 4250 4750 
z
M 1428 4750 
Q 1922 4750 2215 4408 
Q 2509 4066 2509 3481 
Q 2509 2891 2217 2550 
Q 1925 2209 1428 2209 
Q 931 2209 642 2551 
Q 353 2894 353 3481 
Q 353 4063 643 4406 
Q 934 4750 1428 4750 
z
" transform="scale(0.015625)"/>
      </defs>
      <use xlink:href="#DejaVuSans-50"/>
      <use xlink:href="#DejaVuSans-72" x="58.552734"/>
      <use xlink:href="#DejaVuSans-65" x="97.416016"/>
      <use xlink:href="#DejaVuSans-64" x="158.939453"/>
      <use xlink:href="#DejaVuSans-69" x="222.416016"/>
      <use xlink:href="#DejaVuSans-63" x="250.199219"/>
      <use xlink:href="#DejaVuSans-74" x="305.179688"/>
      <use xlink:href="#DejaVuSans-65" x="344.388672"/>
      <use xlink:href="#DejaVuSans-64" x="405.912109"/>
      <use xlink:href="#DejaVuSans-20" x="469.388672"/>
      <use xlink:href="#DejaVuSans-45" x="501.175781"/>
      <use xlink:href="#DejaVuSans-72" x="564.359375"/>
      <use xlink:href="#DejaVuSans-72" x="603.722656"/>
      <use xlink:href="#DejaVuSans-6f" x="642.585938"/>
      <use xlink:href="#DejaVuSans-72" x="703.767578"/>
      <use xlink:href="#DejaVuSans-20" x="744.880859"/>
      <use xlink:href="#DejaVuSans-28" x="776.667969"/>
      <use xlink:href="#DejaVuSans-25" x="815.681641"/>
      <use xlink:href="#DejaVuSans-29" x="910.701172"/>
     </g>
    </g>
   </g>
   <g id="line2d_34">
    <path d="M 131.324091 551.667273 
L 133.379877 545.567052 
L 133.379877 545.567052 
L 139.624726 533.426142 
L 145.98752 519.149667 
L 145.98752 519.149667 
L 150.296006 512.100782 
L 150.296006 512.100782 
L 152.470487 510.968993 
L 154.658572 505.144111 
L 154.658572 505.144111 
L 159.075896 500.604598 
L 159.075896 500.604598 
L 168.077576 487.118577 
L 168.077576 487.118577 
L 170.363304 480.293284 
L 170.363304 480.293284 
L 172.663333 482.94975 
L 172.663333 482.94975 
L 182.008248 470.049145 
L 189.171529 459.374465 
L 191.589228 455.046342 
L 191.589228 455.046342 
L 196.4701 451.348572 
L 201.412235 445.250983 
L 206.416404 438.029558 
L 206.416404 438.029558 
L 208.941993 433.834146 
L 214.040674 429.210612 
L 216.613964 425.070031 
L 216.613964 425.070031 
L 219.203353 422.15733 
L 227.069127 413.638288 
L 227.069127 413.638288 
L 229.723927 414.634977 
L 235.08346 411.678871 
L 237.788401 405.097131 
L 237.788401 405.097131 
L 243.249157 398.379629 
L 243.249157 398.379629 
L 254.377158 391.669686 
L 254.377158 391.669686 
L 257.202807 393.078732 
L 268.683295 388.565212 
L 271.598448 379.135485 
L 271.598448 379.135485 
L 277.483583 371.500811 
L 277.483583 371.500811 
L 286.45008 378.482269 
L 295.585925 368.577907 
L 295.585925 368.577907 
L 298.66939 380.289058 
L 301.772147 368.559454 
L 301.772147 368.559454 
L 304.894316 377.520529 
L 311.197375 373.218442 
L 317.57955 370.675152 
L 320.800615 366.898513 
L 320.800615 366.898513 
L 327.303328 366.260626 
L 327.303328 366.260626 
L 330.585229 366.025233 
L 333.887663 369.497663 
L 333.887663 369.497663 
L 337.210757 363.904358 
L 337.210757 363.904358 
L 340.554642 369.407804 
L 340.554642 369.407804 
L 343.919448 367.546276 
L 350.712345 365.839465 
L 354.140701 358.238377 
L 354.140701 358.238377 
L 357.590506 360.319006 
L 357.590506 360.319006 
L 368.06996 361.225646 
L 368.06996 361.225646 
L 378.747337 360.605709 
L 378.747337 360.605709 
L 382.35109 346.492218 
L 382.35109 346.492218 
L 389.626375 339.262199 
L 393.298191 345.900583 
L 393.298191 345.900583 
L 396.992978 350.855263 
L 396.992978 350.855263 
L 404.452046 357.168929 
L 408.216617 353.486067 
L 408.216617 353.486067 
L 412.004739 336.377349 
L 415.816562 343.868496 
L 415.816562 343.868496 
L 419.652233 352.000868 
L 431.30383 348.394417 
L 431.30383 348.394417 
L 435.236394 342.306561 
L 451.214231 337.828474 
L 451.214231 337.828474 
L 459.353876 335.764193 
L 459.353876 335.764193 
L 463.461932 337.368911 
L 463.461932 337.368911 
L 467.595688 328.660709 
L 467.595688 328.660709 
L 471.755308 327.67966 
L 471.755308 327.67966 
L 484.390962 314.72425 
L 492.947035 310.349915 
L 497.265262 302.096104 
L 497.265262 302.096104 
L 501.610504 301.136563 
L 501.610504 301.136563 
L 505.982932 293.070474 
L 505.982932 293.070474 
L 510.382715 285.22263 
L 510.382715 285.22263 
L 514.810025 281.977288 
L 514.810025 281.977288 
L 523.747914 271.199738 
L 537.365538 261.780626 
L 541.961662 256.61091 
L 541.961662 256.61091 
L 546.586541 255.604102 
L 546.586541 255.604102 
L 551.240355 252.542911 
L 551.240355 252.542911 
L 555.923284 241.524304 
L 555.923284 241.524304 
L 560.635512 227.449935 
L 565.377221 231.815135 
L 565.377221 231.815135 
L 570.148596 219.948279 
L 570.148596 219.948279 
L 574.949822 224.182637 
L 574.949822 224.182637 
L 579.781086 206.005917 
L 579.781086 206.005917 
L 584.642577 194.037764 
L 594.456994 194.686382 
L 594.456994 194.686382 
L 599.410302 184.609768 
L 599.410302 184.609768 
L 604.3946 180.569616 
L 604.3946 180.569616 
L 609.410081 172.510598 
L 614.456941 167.345902 
L 619.535376 164.829469 
L 619.535376 164.829469 
L 629.787761 154.883823 
L 629.787761 154.883823 
L 634.962111 147.732373 
L 634.962111 147.732373 
L 645.408131 141.829851 
L 645.408131 141.829851 
L 650.680208 141.743159 
L 650.680208 141.743159 
L 655.985268 136.02726 
L 655.985268 136.02726 
L 661.323519 134.812252 
L 661.323519 134.812252 
L 677.539495 134.653799 
L 683.012597 132.347534 
L 683.012597 132.347534 
L 688.51994 133.54895 
L 688.51994 133.54895 
L 694.061739 131.246633 
L 694.061739 131.246633 
L 699.63821 133.759059 
L 699.63821 133.759059 
L 710.896034 132.873233 
L 710.896034 132.873233 
L 722.295165 133.385022 
L 722.295165 133.385022 
L 728.048273 152.553483 
L 733.837376 139.653446 
L 733.837376 139.653446 
L 745.524463 151.713938 
L 745.524463 151.713938 
L 751.422902 166.817459 
L 757.358244 151.858735 
L 757.358244 151.858735 
L 763.33072 173.526575 
L 763.33072 173.526575 
L 775.388003 176.790163 
L 775.388003 176.790163 
L 781.473279 178.572698 
L 781.473279 178.572698 
L 787.596627 189.884722 
L 787.596627 189.884722 
L 806.19749 181.985886 
L 806.19749 181.985886 
L 818.79283 176.785709 
L 818.79283 176.785709 
L 831.546264 176.431246 
L 831.546264 176.431246 
L 837.982886 178.757666 
L 837.982886 178.757666 
L 844.459778 181.220065 
L 844.459778 181.220065 
L 857.535381 181.210831 
L 857.535381 181.210831 
L 864.1346 178.624795 
L 864.1346 178.624795 
L 870.775106 181.347967 
L 870.775106 181.347967 
L 877.457157 178.748461 
L 877.457157 178.748461 
L 884.181014 181.625769 
L 884.181014 181.625769 
L 897.755191 182.034906 
L 897.755191 182.034906 
L 904.60604 188.20379 
L 904.60604 188.20379 
L 911.49975 188.589276 
L 911.49975 188.589276 
L 918.436589 195.378848 
L 918.436589 195.378848 
L 925.416827 195.94791 
L 925.416827 195.94791 
L 932.440737 203.422557 
L 932.440737 203.422557 
L 939.50859 204.221524 
L 939.50859 204.221524 
L 946.620663 208.688492 
L 946.620663 208.688492 
L 953.777231 213.447557 
L 953.777231 213.447557 
L 960.978573 218.520587 
L 960.978573 218.520587 
L 968.224969 219.735342 
L 968.224969 219.735342 
L 975.516701 212.876936 
L 1164.88381 70.530859 
L 1173.405909 61.812727 
L 1173.405909 61.812727 
" clip-path="url(#p8756d79dbb)" style="fill: none; stroke-dasharray: 5.55,2.4; stroke-dashoffset: 0; stroke: #ff0000; stroke-width: 1.5"/>
   </g>
   <g id="line2d_35">
    <path d="M 131.324091 224.590543 
L 133.379877 233.880935 
L 133.379877 233.880935 
L 139.624726 236.122926 
L 145.98752 236.38331 
L 145.98752 236.38331 
L 150.296006 219.421402 
L 150.296006 219.421402 
L 152.470487 221.143974 
L 154.658572 219.785263 
L 154.658572 219.785263 
L 159.075896 216.352293 
L 159.075896 216.352293 
L 163.548665 233.986818 
L 163.548665 233.986818 
L 168.077576 224.819293 
L 168.077576 224.819293 
L 170.363304 221.530766 
L 170.363304 221.530766 
L 172.663333 237.182374 
L 172.663333 237.182374 
L 177.306649 231.124187 
L 177.306649 231.124187 
L 182.008248 219.463374 
L 189.171529 228.93513 
L 191.589228 223.124937 
L 191.589228 223.124937 
L 196.4701 230.65586 
L 201.412235 218.973575 
L 206.416404 226.912171 
L 206.416404 226.912171 
L 208.941993 236.385863 
L 214.040674 218.030398 
L 216.613964 216.882296 
L 216.613964 216.882296 
L 219.203353 227.035184 
L 227.069127 223.792993 
L 227.069127 223.792993 
L 229.723927 217.110294 
L 235.08346 235.298355 
L 237.788401 229.869987 
L 237.788401 229.869987 
L 243.249157 223.750842 
L 243.249157 223.750842 
L 254.377158 215.794465 
L 254.377158 215.794465 
L 257.202807 221.636898 
L 268.683295 224.833503 
L 271.598448 230.001296 
L 271.598448 230.001296 
L 277.483583 222.186651 
L 277.483583 222.186651 
L 286.45008 219.230073 
L 295.585925 226.210323 
L 295.585925 226.210323 
L 298.66939 215.741908 
L 301.772147 236.035574 
L 301.772147 236.035574 
L 304.894316 224.703393 
L 311.197375 215.705157 
L 311.197375 215.705157 
L 317.57955 225.936676 
L 320.800615 219.389028 
L 320.800615 219.389028 
L 324.041833 233.175866 
L 324.041833 233.175866 
L 327.303328 220.872778 
L 327.303328 220.872778 
L 330.585229 228.891881 
L 333.887663 219.966933 
L 333.887663 219.966933 
L 337.210757 229.036049 
L 337.210757 229.036049 
L 340.554642 232.210886 
L 340.554642 232.210886 
L 343.919448 217.334059 
L 350.712345 219.054252 
L 354.140701 215.817891 
L 354.140701 215.817891 
L 357.590506 227.818512 
L 357.590506 227.818512 
L 368.06996 217.442346 
L 368.06996 217.442346 
L 378.747337 234.333823 
L 378.747337 234.333823 
L 382.35109 224.084634 
L 382.35109 224.084634 
L 389.626375 228.317146 
L 393.298191 234.441241 
L 393.298191 234.441241 
L 396.992978 223.754656 
L 396.992978 223.754656 
L 404.452046 221.699785 
L 408.216617 225.967784 
L 408.216617 225.967784 
L 412.004739 215.929691 
L 415.816562 228.166021 
L 415.816562 228.166021 
L 419.652233 222.148432 
L 431.30383 235.674184 
L 431.30383 235.674184 
L 435.236394 230.161115 
L 451.214231 228.795025 
L 451.214231 228.795025 
L 459.353876 234.101273 
L 459.353876 234.101273 
L 463.461932 235.859066 
L 463.461932 235.859066 
L 467.595688 234.569613 
L 467.595688 234.569613 
L 471.755308 219.542373 
L 471.755308 219.542373 
L 484.390962 219.133902 
L 492.947035 222.403212 
L 497.265262 229.361762 
L 497.265262 229.361762 
L 501.610504 217.439391 
L 501.610504 217.439391 
L 505.982932 223.111786 
L 505.982932 223.111786 
L 510.382715 237.327075 
L 510.382715 237.327075 
L 514.810025 220.336597 
L 514.810025 220.336597 
L 519.265033 221.116188 
L 519.265033 221.116188 
L 523.747914 235.924327 
L 528.258841 215.994866 
L 528.258841 215.994866 
L 537.365538 223.895803 
L 541.961662 235.490763 
L 541.961662 235.490763 
L 546.586541 222.037005 
L 546.586541 222.037005 
L 551.240355 234.12429 
L 551.240355 234.12429 
L 555.923284 234.623206 
L 555.923284 234.623206 
L 560.635512 236.23774 
L 565.377221 221.262764 
L 565.377221 221.262764 
L 570.148596 220.677755 
L 570.148596 220.677755 
L 574.949822 236.747108 
L 574.949822 236.747108 
L 579.781086 235.671787 
L 579.781086 235.671787 
L 584.642577 223.800611 
L 594.456994 229.37643 
L 594.456994 229.37643 
L 599.410302 215.513656 
L 599.410302 215.513656 
L 604.3946 231.42144 
L 604.3946 231.42144 
L 609.410081 220.798706 
L 614.456941 236.83935 
L 619.535376 226.85519 
L 619.535376 226.85519 
L 624.645583 226.925852 
L 624.645583 226.925852 
L 629.787761 227.258976 
L 629.787761 227.258976 
L 634.962111 218.468259 
L 645.408131 220.133379 
L 645.408131 220.133379 
L 650.680208 220.035359 
L 650.680208 220.035359 
L 655.985268 222.332188 
L 655.985268 222.332188 
L 661.323519 234.452415 
L 666.695167 234.975951 
L 666.695167 234.975951 
L 672.100423 229.310554 
L 677.539495 237.640479 
L 683.012597 224.884791 
L 683.012597 224.884791 
L 688.51994 223.365347 
L 688.51994 223.365347 
L 694.061739 237.033663 
L 694.061739 237.033663 
L 699.63821 223.01355 
L 699.63821 223.01355 
L 710.896034 229.680638 
L 710.896034 229.680638 
L 716.577826 232.164056 
L 716.577826 232.164056 
L 722.295165 237.832976 
L 722.295165 237.832976 
L 728.048273 232.698948 
L 733.837376 231.083555 
L 733.837376 231.083555 
L 745.524463 223.566422 
L 745.524463 223.566422 
L 751.422902 229.843598 
L 757.358244 216.314953 
L 757.358244 216.314953 
L 763.33072 222.265591 
L 763.33072 222.265591 
L 769.340561 233.897963 
L 775.388003 233.906217 
L 775.388003 233.906217 
L 781.473279 231.632539 
L 781.473279 231.632539 
L 787.596627 234.338647 
L 793.758285 236.7994 
L 793.758285 236.7994 
L 799.958492 228.740795 
L 799.958492 228.740795 
L 806.19749 222.792337 
L 806.19749 222.792337 
L 812.475521 237.415216 
L 812.475521 237.415216 
L 818.79283 221.991754 
L 818.79283 221.991754 
L 825.149662 225.390468 
L 825.149662 225.390468 
L 831.546264 218.477772 
L 831.546264 218.477772 
L 837.982886 220.882859 
L 837.982886 220.882859 
L 844.459778 220.634568 
L 844.459778 220.634568 
L 857.535381 215.437211 
L 857.535381 215.437211 
L 864.1346 215.565334 
L 864.1346 215.565334 
L 870.775106 237.662946 
L 870.775106 237.662946 
L 877.457157 231.591749 
L 877.457157 231.591749 
L 884.181014 231.166905 
L 884.181014 231.166905 
L 890.946938 237.874602 
L 890.946938 237.874602 
L 897.755191 218.339961 
L 897.755191 218.339961 
L 904.60604 235.132307 
L 904.60604 235.132307 
L 911.49975 223.242151 
L 911.49975 223.242151 
L 918.436589 234.322328 
L 918.436589 234.322328 
L 925.416827 219.214478 
L 925.416827 219.214478 
L 932.440737 226.685678 
L 932.440737 226.685678 
L 939.50859 231.308069 
L 939.50859 231.308069 
L 946.620663 232.423136 
L 946.620663 232.423136 
L 953.777231 229.289629 
L 953.777231 229.289629 
L 960.978573 215.938474 
L 960.978573 215.938474 
L 968.224969 217.616592 
L 968.224969 217.616592 
L 975.516701 229.797773 
L 1164.88381 234.962149 
L 1173.405909 217.697573 
L 1173.405909 217.697573 
" clip-path="url(#p8756d79dbb)" style="fill: none; stroke-dasharray: 5.55,2.4; stroke-dashoffset: 0; stroke: #008000; stroke-width: 1.5"/>
   </g>
   <g id="patch_8">
    <path d="M 79.22 576.16 
L 79.22 37.32 
" style="fill: none; stroke: #000000; stroke-width: 0.8; stroke-linejoin: miter; stroke-linecap: square"/>
   </g>
   <g id="patch_9">
    <path d="M 1225.51 576.16 
L 1225.51 37.32 
" style="fill: none; stroke: #000000; stroke-width: 0.8; stroke-linejoin: miter; stroke-linecap: square"/>
   </g>
   <g id="patch_10">
    <path d="M 79.22 576.16 
L 1225.51 576.16 
" style="fill: none; stroke: #000000; stroke-width: 0.8; stroke-linejoin: miter; stroke-linecap: square"/>
   </g>
   <g id="patch_11">
    <path d="M 79.22 37.32 
L 1225.51 37.32 
" style="fill: none; stroke: #000000; stroke-width: 0.8; stroke-linejoin: miter; stroke-linecap: square"/>
   </g>
  </g>
 </g>
 <defs>
  <clipPath id="p8756d79dbb">
   <rect x="79.22" y="37.32" width="1146.29" height="538.84"/>
  </clipPath>
 </defs>
</svg>
