<?xml version="1.0" encoding="utf-8" standalone="no"?>
<!DOCTYPE svg PUBLIC "-//W3C//DTD SVG 1.1//EN"
  "http://www.w3.org/Graphics/SVG/1.1/DTD/svg11.dtd">
<svg xmlns:xlink="http://www.w3.org/1999/xlink" width="1296pt" height="648pt" viewBox="0 0 1296 648" xmlns="http://www.w3.org/2000/svg" version="1.1">
 <metadata>
  <rdf:RDF xmlns:dc="http://purl.org/dc/elements/1.1/" xmlns:cc="http://creativecommons.org/ns#" xmlns:rdf="http://www.w3.org/1999/02/22-rdf-syntax-ns#">
   <cc:Work>
    <dc:type rdf:resource="http://purl.org/dc/dcmitype/StillImage"/>
    <dc:date>2024-01-17T20:35:45.140057</dc:date>
    <dc:format>image/svg+xml</dc:format>
    <dc:creator>
     <cc:Agent>
      <dc:title>Matplotlib v3.6.0, https://matplotlib.org/</dc:title>
     </cc:Agent>
    </dc:creator>
   </cc:Work>
  </rdf:RDF>
 </metadata>
 <defs>
  <style type="text/css">*{stroke-linejoin: round; stroke-linecap: butt}</style>
 </defs>
 <g id="figure_1">
  <g id="patch_1">
   <path d="M 0 648 
L 1296 648 
L 1296 0 
L 0 0 
z
" style="fill: #ffffff"/>
  </g>
  <g id="axes_1">
   <g id="patch_2">
    <path d="M 79.22 576.16 
L 1225.51 576.16 
L 1225.51 37.32 
L 79.22 37.32 
z
" style="fill: #ffffff"/>
   </g>
   <g id="matplotlib.axis_1">
    <g id="xtick_1">
     <g id="line2d_1">
      <path d="M 283.368901 576.16 
L 283.368901 37.32 
" clip-path="url(#p2da4a73db3)" style="fill: none; stroke: #b0b0b0; stroke-width: 0.8; stroke-linecap: square"/>
     </g>
     <g id="line2d_2">
      <defs>
       <path id="mf5cb3bf392" d="M 0 0 
L 0 3.5 
" style="stroke: #000000; stroke-width: 0.8"/>
      </defs>
      <g>
       <use xlink:href="#mf5cb3bf392" x="283.368901" y="576.16" style="stroke: #000000; stroke-width: 0.8"/>
      </g>
     </g>
     <g id="text_1">
      <!-- 10 -->
      <g transform="translate(267.462651 602.156094) scale(0.25 -0.25)">
       <defs>
        <path id="DejaVuSans-31" d="M 794 531 
L 1825 531 
L 1825 4091 
L 703 3866 
L 703 4441 
L 1819 4666 
L 2450 4666 
L 2450 531 
L 3481 531 
L 3481 0 
L 794 0 
L 794 531 
z
" transform="scale(0.015625)"/>
        <path id="DejaVuSans-30" d="M 2034 4250 
Q 1547 4250 1301 3770 
Q 1056 3291 1056 2328 
Q 1056 1369 1301 889 
Q 1547 409 2034 409 
Q 2525 409 2770 889 
Q 3016 1369 3016 2328 
Q 3016 3291 2770 3770 
Q 2525 4250 2034 4250 
z
M 2034 4750 
Q 2819 4750 3233 4129 
Q 3647 3509 3647 2328 
Q 3647 1150 3233 529 
Q 2819 -91 2034 -91 
Q 1250 -91 836 529 
Q 422 1150 422 2328 
Q 422 3509 836 4129 
Q 1250 4750 2034 4750 
z
" transform="scale(0.015625)"/>
       </defs>
       <use xlink:href="#DejaVuSans-31"/>
       <use xlink:href="#DejaVuSans-30" x="63.623047"/>
      </g>
     </g>
    </g>
    <g id="xtick_2">
     <g id="line2d_3">
      <path d="M 530.601403 576.16 
L 530.601403 37.32 
" clip-path="url(#p2da4a73db3)" style="fill: none; stroke: #b0b0b0; stroke-width: 0.8; stroke-linecap: square"/>
     </g>
     <g id="line2d_4">
      <g>
       <use xlink:href="#mf5cb3bf392" x="530.601403" y="576.16" style="stroke: #000000; stroke-width: 0.8"/>
      </g>
     </g>
     <g id="text_2">
      <!-- 15 -->
      <g transform="translate(514.695153 602.156094) scale(0.25 -0.25)">
       <defs>
        <path id="DejaVuSans-35" d="M 691 4666 
L 3169 4666 
L 3169 4134 
L 1269 4134 
L 1269 2991 
Q 1406 3038 1543 3061 
Q 1681 3084 1819 3084 
Q 2600 3084 3056 2656 
Q 3513 2228 3513 1497 
Q 3513 744 3044 326 
Q 2575 -91 1722 -91 
Q 1428 -91 1123 -41 
Q 819 9 494 109 
L 494 744 
Q 775 591 1075 516 
Q 1375 441 1709 441 
Q 2250 441 2565 725 
Q 2881 1009 2881 1497 
Q 2881 1984 2565 2268 
Q 2250 2553 1709 2553 
Q 1456 2553 1204 2497 
Q 953 2441 691 2322 
L 691 4666 
z
" transform="scale(0.015625)"/>
       </defs>
       <use xlink:href="#DejaVuSans-31"/>
       <use xlink:href="#DejaVuSans-35" x="63.623047"/>
      </g>
     </g>
    </g>
    <g id="xtick_3">
     <g id="line2d_5">
      <path d="M 777.833906 576.16 
L 777.833906 37.32 
" clip-path="url(#p2da4a73db3)" style="fill: none; stroke: #b0b0b0; stroke-width: 0.8; stroke-linecap: square"/>
     </g>
     <g id="line2d_6">
      <g>
       <use xlink:href="#mf5cb3bf392" x="777.833906" y="576.16" style="stroke: #000000; stroke-width: 0.8"/>
      </g>
     </g>
     <g id="text_3">
      <!-- 20 -->
      <g transform="translate(761.927656 602.156094) scale(0.25 -0.25)">
       <defs>
        <path id="DejaVuSans-32" d="M 1228 531 
L 3431 531 
L 3431 0 
L 469 0 
L 469 531 
Q 828 903 1448 1529 
Q 2069 2156 2228 2338 
Q 2531 2678 2651 2914 
Q 2772 3150 2772 3378 
Q 2772 3750 2511 3984 
Q 2250 4219 1831 4219 
Q 1534 4219 1204 4116 
Q 875 4013 500 3803 
L 500 4441 
Q 881 4594 1212 4672 
Q 1544 4750 1819 4750 
Q 2544 4750 2975 4387 
Q 3406 4025 3406 3419 
Q 3406 3131 3298 2873 
Q 3191 2616 2906 2266 
Q 2828 2175 2409 1742 
Q 1991 1309 1228 531 
z
" transform="scale(0.015625)"/>
       </defs>
       <use xlink:href="#DejaVuSans-32"/>
       <use xlink:href="#DejaVuSans-30" x="63.623047"/>
      </g>
     </g>
    </g>
    <g id="xtick_4">
     <g id="line2d_7">
      <path d="M 1025.066408 576.16 
L 1025.066408 37.32 
" clip-path="url(#p2da4a73db3)" style="fill: none; stroke: #b0b0b0; stroke-width: 0.8; stroke-linecap: square"/>
     </g>
     <g id="line2d_8">
      <g>
       <use xlink:href="#mf5cb3bf392" x="1025.066408" y="576.16" style="stroke: #000000; stroke-width: 0.8"/>
      </g>
     </g>
     <g id="text_4">
      <!-- 25 -->
      <g transform="translate(1009.160158 602.156094) scale(0.25 -0.25)">
       <use xlink:href="#DejaVuSans-32"/>
       <use xlink:href="#DejaVuSans-35" x="63.623047"/>
      </g>
     </g>
    </g>
    <g id="text_5">
     <!-- Ground Truth Distance (m) -->
     <g transform="translate(486.216563 630.351406) scale(0.25 -0.25)">
      <defs>
       <path id="DejaVuSans-47" d="M 3809 666 
L 3809 1919 
L 2778 1919 
L 2778 2438 
L 4434 2438 
L 4434 434 
Q 4069 175 3628 42 
Q 3188 -91 2688 -91 
Q 1594 -91 976 548 
Q 359 1188 359 2328 
Q 359 3472 976 4111 
Q 1594 4750 2688 4750 
Q 3144 4750 3555 4637 
Q 3966 4525 4313 4306 
L 4313 3634 
Q 3963 3931 3569 4081 
Q 3175 4231 2741 4231 
Q 1884 4231 1454 3753 
Q 1025 3275 1025 2328 
Q 1025 1384 1454 906 
Q 1884 428 2741 428 
Q 3075 428 3337 486 
Q 3600 544 3809 666 
z
" transform="scale(0.015625)"/>
       <path id="DejaVuSans-72" d="M 2631 2963 
Q 2534 3019 2420 3045 
Q 2306 3072 2169 3072 
Q 1681 3072 1420 2755 
Q 1159 2438 1159 1844 
L 1159 0 
L 581 0 
L 581 3500 
L 1159 3500 
L 1159 2956 
Q 1341 3275 1631 3429 
Q 1922 3584 2338 3584 
Q 2397 3584 2469 3576 
Q 2541 3569 2628 3553 
L 2631 2963 
z
" transform="scale(0.015625)"/>
       <path id="DejaVuSans-6f" d="M 1959 3097 
Q 1497 3097 1228 2736 
Q 959 2375 959 1747 
Q 959 1119 1226 758 
Q 1494 397 1959 397 
Q 2419 397 2687 759 
Q 2956 1122 2956 1747 
Q 2956 2369 2687 2733 
Q 2419 3097 1959 3097 
z
M 1959 3584 
Q 2709 3584 3137 3096 
Q 3566 2609 3566 1747 
Q 3566 888 3137 398 
Q 2709 -91 1959 -91 
Q 1206 -91 779 398 
Q 353 888 353 1747 
Q 353 2609 779 3096 
Q 1206 3584 1959 3584 
z
" transform="scale(0.015625)"/>
       <path id="DejaVuSans-75" d="M 544 1381 
L 544 3500 
L 1119 3500 
L 1119 1403 
Q 1119 906 1312 657 
Q 1506 409 1894 409 
Q 2359 409 2629 706 
Q 2900 1003 2900 1516 
L 2900 3500 
L 3475 3500 
L 3475 0 
L 2900 0 
L 2900 538 
Q 2691 219 2414 64 
Q 2138 -91 1772 -91 
Q 1169 -91 856 284 
Q 544 659 544 1381 
z
M 1991 3584 
L 1991 3584 
z
" transform="scale(0.015625)"/>
       <path id="DejaVuSans-6e" d="M 3513 2113 
L 3513 0 
L 2938 0 
L 2938 2094 
Q 2938 2591 2744 2837 
Q 2550 3084 2163 3084 
Q 1697 3084 1428 2787 
Q 1159 2491 1159 1978 
L 1159 0 
L 581 0 
L 581 3500 
L 1159 3500 
L 1159 2956 
Q 1366 3272 1645 3428 
Q 1925 3584 2291 3584 
Q 2894 3584 3203 3211 
Q 3513 2838 3513 2113 
z
" transform="scale(0.015625)"/>
       <path id="DejaVuSans-64" d="M 2906 2969 
L 2906 4863 
L 3481 4863 
L 3481 0 
L 2906 0 
L 2906 525 
Q 2725 213 2448 61 
Q 2172 -91 1784 -91 
Q 1150 -91 751 415 
Q 353 922 353 1747 
Q 353 2572 751 3078 
Q 1150 3584 1784 3584 
Q 2172 3584 2448 3432 
Q 2725 3281 2906 2969 
z
M 947 1747 
Q 947 1113 1208 752 
Q 1469 391 1925 391 
Q 2381 391 2643 752 
Q 2906 1113 2906 1747 
Q 2906 2381 2643 2742 
Q 2381 3103 1925 3103 
Q 1469 3103 1208 2742 
Q 947 2381 947 1747 
z
" transform="scale(0.015625)"/>
       <path id="DejaVuSans-20" transform="scale(0.015625)"/>
       <path id="DejaVuSans-54" d="M -19 4666 
L 3928 4666 
L 3928 4134 
L 2272 4134 
L 2272 0 
L 1638 0 
L 1638 4134 
L -19 4134 
L -19 4666 
z
" transform="scale(0.015625)"/>
       <path id="DejaVuSans-74" d="M 1172 4494 
L 1172 3500 
L 2356 3500 
L 2356 3053 
L 1172 3053 
L 1172 1153 
Q 1172 725 1289 603 
Q 1406 481 1766 481 
L 2356 481 
L 2356 0 
L 1766 0 
Q 1100 0 847 248 
Q 594 497 594 1153 
L 594 3053 
L 172 3053 
L 172 3500 
L 594 3500 
L 594 4494 
L 1172 4494 
z
" transform="scale(0.015625)"/>
       <path id="DejaVuSans-68" d="M 3513 2113 
L 3513 0 
L 2938 0 
L 2938 2094 
Q 2938 2591 2744 2837 
Q 2550 3084 2163 3084 
Q 1697 3084 1428 2787 
Q 1159 2491 1159 1978 
L 1159 0 
L 581 0 
L 581 4863 
L 1159 4863 
L 1159 2956 
Q 1366 3272 1645 3428 
Q 1925 3584 2291 3584 
Q 2894 3584 3203 3211 
Q 3513 2838 3513 2113 
z
" transform="scale(0.015625)"/>
       <path id="DejaVuSans-44" d="M 1259 4147 
L 1259 519 
L 2022 519 
Q 2988 519 3436 956 
Q 3884 1394 3884 2338 
Q 3884 3275 3436 3711 
Q 2988 4147 2022 4147 
L 1259 4147 
z
M 628 4666 
L 1925 4666 
Q 3281 4666 3915 4102 
Q 4550 3538 4550 2338 
Q 4550 1131 3912 565 
Q 3275 0 1925 0 
L 628 0 
L 628 4666 
z
" transform="scale(0.015625)"/>
       <path id="DejaVuSans-69" d="M 603 3500 
L 1178 3500 
L 1178 0 
L 603 0 
L 603 3500 
z
M 603 4863 
L 1178 4863 
L 1178 4134 
L 603 4134 
L 603 4863 
z
" transform="scale(0.015625)"/>
       <path id="DejaVuSans-73" d="M 2834 3397 
L 2834 2853 
Q 2591 2978 2328 3040 
Q 2066 3103 1784 3103 
Q 1356 3103 1142 2972 
Q 928 2841 928 2578 
Q 928 2378 1081 2264 
Q 1234 2150 1697 2047 
L 1894 2003 
Q 2506 1872 2764 1633 
Q 3022 1394 3022 966 
Q 3022 478 2636 193 
Q 2250 -91 1575 -91 
Q 1294 -91 989 -36 
Q 684 19 347 128 
L 347 722 
Q 666 556 975 473 
Q 1284 391 1588 391 
Q 1994 391 2212 530 
Q 2431 669 2431 922 
Q 2431 1156 2273 1281 
Q 2116 1406 1581 1522 
L 1381 1569 
Q 847 1681 609 1914 
Q 372 2147 372 2553 
Q 372 3047 722 3315 
Q 1072 3584 1716 3584 
Q 2034 3584 2315 3537 
Q 2597 3491 2834 3397 
z
" transform="scale(0.015625)"/>
       <path id="DejaVuSans-61" d="M 2194 1759 
Q 1497 1759 1228 1600 
Q 959 1441 959 1056 
Q 959 750 1161 570 
Q 1363 391 1709 391 
Q 2188 391 2477 730 
Q 2766 1069 2766 1631 
L 2766 1759 
L 2194 1759 
z
M 3341 1997 
L 3341 0 
L 2766 0 
L 2766 531 
Q 2569 213 2275 61 
Q 1981 -91 1556 -91 
Q 1019 -91 701 211 
Q 384 513 384 1019 
Q 384 1609 779 1909 
Q 1175 2209 1959 2209 
L 2766 2209 
L 2766 2266 
Q 2766 2663 2505 2880 
Q 2244 3097 1772 3097 
Q 1472 3097 1187 3025 
Q 903 2953 641 2809 
L 641 3341 
Q 956 3463 1253 3523 
Q 1550 3584 1831 3584 
Q 2591 3584 2966 3190 
Q 3341 2797 3341 1997 
z
" transform="scale(0.015625)"/>
       <path id="DejaVuSans-63" d="M 3122 3366 
L 3122 2828 
Q 2878 2963 2633 3030 
Q 2388 3097 2138 3097 
Q 1578 3097 1268 2742 
Q 959 2388 959 1747 
Q 959 1106 1268 751 
Q 1578 397 2138 397 
Q 2388 397 2633 464 
Q 2878 531 3122 666 
L 3122 134 
Q 2881 22 2623 -34 
Q 2366 -91 2075 -91 
Q 1284 -91 818 406 
Q 353 903 353 1747 
Q 353 2603 823 3093 
Q 1294 3584 2113 3584 
Q 2378 3584 2631 3529 
Q 2884 3475 3122 3366 
z
" transform="scale(0.015625)"/>
       <path id="DejaVuSans-65" d="M 3597 1894 
L 3597 1613 
L 953 1613 
Q 991 1019 1311 708 
Q 1631 397 2203 397 
Q 2534 397 2845 478 
Q 3156 559 3463 722 
L 3463 178 
Q 3153 47 2828 -22 
Q 2503 -91 2169 -91 
Q 1331 -91 842 396 
Q 353 884 353 1716 
Q 353 2575 817 3079 
Q 1281 3584 2069 3584 
Q 2775 3584 3186 3129 
Q 3597 2675 3597 1894 
z
M 3022 2063 
Q 3016 2534 2758 2815 
Q 2500 3097 2075 3097 
Q 1594 3097 1305 2825 
Q 1016 2553 972 2059 
L 3022 2063 
z
" transform="scale(0.015625)"/>
       <path id="DejaVuSans-28" d="M 1984 4856 
Q 1566 4138 1362 3434 
Q 1159 2731 1159 2009 
Q 1159 1288 1364 580 
Q 1569 -128 1984 -844 
L 1484 -844 
Q 1016 -109 783 600 
Q 550 1309 550 2009 
Q 550 2706 781 3412 
Q 1013 4119 1484 4856 
L 1984 4856 
z
" transform="scale(0.015625)"/>
       <path id="DejaVuSans-6d" d="M 3328 2828 
Q 3544 3216 3844 3400 
Q 4144 3584 4550 3584 
Q 5097 3584 5394 3201 
Q 5691 2819 5691 2113 
L 5691 0 
L 5113 0 
L 5113 2094 
Q 5113 2597 4934 2840 
Q 4756 3084 4391 3084 
Q 3944 3084 3684 2787 
Q 3425 2491 3425 1978 
L 3425 0 
L 2847 0 
L 2847 2094 
Q 2847 2600 2669 2842 
Q 2491 3084 2119 3084 
Q 1678 3084 1418 2786 
Q 1159 2488 1159 1978 
L 1159 0 
L 581 0 
L 581 3500 
L 1159 3500 
L 1159 2956 
Q 1356 3278 1631 3431 
Q 1906 3584 2284 3584 
Q 2666 3584 2933 3390 
Q 3200 3197 3328 2828 
z
" transform="scale(0.015625)"/>
       <path id="DejaVuSans-29" d="M 513 4856 
L 1013 4856 
Q 1481 4119 1714 3412 
Q 1947 2706 1947 2009 
Q 1947 1309 1714 600 
Q 1481 -109 1013 -844 
L 513 -844 
Q 928 -128 1133 580 
Q 1338 1288 1338 2009 
Q 1338 2731 1133 3434 
Q 928 4138 513 4856 
z
" transform="scale(0.015625)"/>
      </defs>
      <use xlink:href="#DejaVuSans-47"/>
      <use xlink:href="#DejaVuSans-72" x="77.490234"/>
      <use xlink:href="#DejaVuSans-6f" x="116.353516"/>
      <use xlink:href="#DejaVuSans-75" x="177.535156"/>
      <use xlink:href="#DejaVuSans-6e" x="240.914062"/>
      <use xlink:href="#DejaVuSans-64" x="304.292969"/>
      <use xlink:href="#DejaVuSans-20" x="367.769531"/>
      <use xlink:href="#DejaVuSans-54" x="399.556641"/>
      <use xlink:href="#DejaVuSans-72" x="445.890625"/>
      <use xlink:href="#DejaVuSans-75" x="487.003906"/>
      <use xlink:href="#DejaVuSans-74" x="550.382812"/>
      <use xlink:href="#DejaVuSans-68" x="589.591797"/>
      <use xlink:href="#DejaVuSans-20" x="652.970703"/>
      <use xlink:href="#DejaVuSans-44" x="684.757812"/>
      <use xlink:href="#DejaVuSans-69" x="761.759766"/>
      <use xlink:href="#DejaVuSans-73" x="789.542969"/>
      <use xlink:href="#DejaVuSans-74" x="841.642578"/>
      <use xlink:href="#DejaVuSans-61" x="880.851562"/>
      <use xlink:href="#DejaVuSans-6e" x="942.130859"/>
      <use xlink:href="#DejaVuSans-63" x="1005.509766"/>
      <use xlink:href="#DejaVuSans-65" x="1060.490234"/>
      <use xlink:href="#DejaVuSans-20" x="1122.013672"/>
      <use xlink:href="#DejaVuSans-28" x="1153.800781"/>
      <use xlink:href="#DejaVuSans-6d" x="1192.814453"/>
      <use xlink:href="#DejaVuSans-29" x="1290.226562"/>
     </g>
    </g>
   </g>
   <g id="matplotlib.axis_2">
    <g id="ytick_1">
     <g id="line2d_9">
      <path d="M 79.22 482.665433 
L 1225.51 482.665433 
" clip-path="url(#p2da4a73db3)" style="fill: none; stroke: #b0b0b0; stroke-width: 0.8; stroke-linecap: square"/>
     </g>
     <g id="line2d_10">
      <defs>
       <path id="m05eb448b63" d="M 0 0 
L -3.5 0 
" style="stroke: #000000; stroke-width: 0.8"/>
      </defs>
      <g>
       <use xlink:href="#m05eb448b63" x="79.22" y="482.665433" style="stroke: #000000; stroke-width: 0.8"/>
      </g>
     </g>
     <g id="text_6">
      <!-- 10 -->
      <g transform="translate(40.4075 492.16348) scale(0.25 -0.25)">
       <use xlink:href="#DejaVuSans-31"/>
       <use xlink:href="#DejaVuSans-30" x="63.623047"/>
      </g>
     </g>
    </g>
    <g id="ytick_2">
     <g id="line2d_11">
      <path d="M 79.22 370.464974 
L 1225.51 370.464974 
" clip-path="url(#p2da4a73db3)" style="fill: none; stroke: #b0b0b0; stroke-width: 0.8; stroke-linecap: square"/>
     </g>
     <g id="line2d_12">
      <g>
       <use xlink:href="#m05eb448b63" x="79.22" y="370.464974" style="stroke: #000000; stroke-width: 0.8"/>
      </g>
     </g>
     <g id="text_7">
      <!-- 15 -->
      <g transform="translate(40.4075 379.963021) scale(0.25 -0.25)">
       <use xlink:href="#DejaVuSans-31"/>
       <use xlink:href="#DejaVuSans-35" x="63.623047"/>
      </g>
     </g>
    </g>
    <g id="ytick_3">
     <g id="line2d_13">
      <path d="M 79.22 258.264515 
L 1225.51 258.264515 
" clip-path="url(#p2da4a73db3)" style="fill: none; stroke: #b0b0b0; stroke-width: 0.8; stroke-linecap: square"/>
     </g>
     <g id="line2d_14">
      <g>
       <use xlink:href="#m05eb448b63" x="79.22" y="258.264515" style="stroke: #000000; stroke-width: 0.8"/>
      </g>
     </g>
     <g id="text_8">
      <!-- 20 -->
      <g transform="translate(40.4075 267.762562) scale(0.25 -0.25)">
       <use xlink:href="#DejaVuSans-32"/>
       <use xlink:href="#DejaVuSans-30" x="63.623047"/>
      </g>
     </g>
    </g>
    <g id="ytick_4">
     <g id="line2d_15">
      <path d="M 79.22 146.064056 
L 1225.51 146.064056 
" clip-path="url(#p2da4a73db3)" style="fill: none; stroke: #b0b0b0; stroke-width: 0.8; stroke-linecap: square"/>
     </g>
     <g id="line2d_16">
      <g>
       <use xlink:href="#m05eb448b63" x="79.22" y="146.064056" style="stroke: #000000; stroke-width: 0.8"/>
      </g>
     </g>
     <g id="text_9">
      <!-- 25 -->
      <g transform="translate(40.4075 155.562102) scale(0.25 -0.25)">
       <use xlink:href="#DejaVuSans-32"/>
       <use xlink:href="#DejaVuSans-35" x="63.623047"/>
      </g>
     </g>
    </g>
    <g id="text_10">
     <!-- Predicted Distance (m) -->
     <g transform="translate(31.208281 449.947031) rotate(-90) scale(0.25 -0.25)">
      <defs>
       <path id="DejaVuSans-50" d="M 1259 4147 
L 1259 2394 
L 2053 2394 
Q 2494 2394 2734 2622 
Q 2975 2850 2975 3272 
Q 2975 3691 2734 3919 
Q 2494 4147 2053 4147 
L 1259 4147 
z
M 628 4666 
L 2053 4666 
Q 2838 4666 3239 4311 
Q 3641 3956 3641 3272 
Q 3641 2581 3239 2228 
Q 2838 1875 2053 1875 
L 1259 1875 
L 1259 0 
L 628 0 
L 628 4666 
z
" transform="scale(0.015625)"/>
      </defs>
      <use xlink:href="#DejaVuSans-50"/>
      <use xlink:href="#DejaVuSans-72" x="58.552734"/>
      <use xlink:href="#DejaVuSans-65" x="97.416016"/>
      <use xlink:href="#DejaVuSans-64" x="158.939453"/>
      <use xlink:href="#DejaVuSans-69" x="222.416016"/>
      <use xlink:href="#DejaVuSans-63" x="250.199219"/>
      <use xlink:href="#DejaVuSans-74" x="305.179688"/>
      <use xlink:href="#DejaVuSans-65" x="344.388672"/>
      <use xlink:href="#DejaVuSans-64" x="405.912109"/>
      <use xlink:href="#DejaVuSans-20" x="469.388672"/>
      <use xlink:href="#DejaVuSans-44" x="501.175781"/>
      <use xlink:href="#DejaVuSans-69" x="578.177734"/>
      <use xlink:href="#DejaVuSans-73" x="605.960938"/>
      <use xlink:href="#DejaVuSans-74" x="658.060547"/>
      <use xlink:href="#DejaVuSans-61" x="697.269531"/>
      <use xlink:href="#DejaVuSans-6e" x="758.548828"/>
      <use xlink:href="#DejaVuSans-63" x="821.927734"/>
      <use xlink:href="#DejaVuSans-65" x="876.908203"/>
      <use xlink:href="#DejaVuSans-20" x="938.431641"/>
      <use xlink:href="#DejaVuSans-28" x="970.21875"/>
      <use xlink:href="#DejaVuSans-6d" x="1009.232422"/>
      <use xlink:href="#DejaVuSans-29" x="1106.644531"/>
     </g>
    </g>
   </g>
   <g id="line2d_17">
    <path d="M 131.324091 551.667273 
L 1173.405909 78.74378 
L 1173.405909 78.74378 
" clip-path="url(#p2da4a73db3)" style="fill: none; stroke: #0000ff; stroke-width: 1.5; stroke-linecap: square"/>
   </g>
   <g id="line2d_18">
    <path d="M 131.324091 421.471443 
L 137.791288 420.221765 
L 137.791288 420.221765 
L 139.97405 418.962461 
L 139.97405 418.962461 
L 144.380629 418.531032 
L 144.380629 418.531032 
L 146.604616 418.09653 
L 148.842518 418.11314 
L 148.842518 418.11314 
L 153.360412 417.251122 
L 153.360412 417.251122 
L 155.64058 417.251122 
L 155.64058 417.251122 
L 157.935014 417.675538 
L 162.567036 416.360098 
L 162.567036 416.360098 
L 176.814872 413.60807 
L 176.814872 413.60807 
L 179.24178 413.624121 
L 186.613985 412.201883 
L 186.613985 412.201883 
L 191.605981 412.663432 
L 196.660635 409.775107 
L 196.660635 409.775107 
L 201.778735 408.264485 
L 204.361826 408.756131 
L 204.361826 408.756131 
L 206.961077 407.753166 
L 228.349138 403.515918 
L 233.864987 401.85647 
L 233.864987 401.85647 
L 236.64882 400.743094 
L 239.45007 401.294363 
L 245.105257 399.015077 
L 256.629469 396.643588 
L 256.629469 396.643588 
L 265.463274 395.427833 
L 265.463274 395.427833 
L 283.634561 391.683904 
L 296.132072 386.350871 
L 312.198847 383.530835 
L 318.767165 382.067784 
L 318.767165 382.067784 
L 328.774547 376.793318 
L 328.774547 376.793318 
L 332.152168 366.871654 
L 332.152168 366.871654 
L 335.550921 369.479488 
L 338.970937 369.479488 
L 338.970937 369.479488 
L 342.41235 363.273918 
L 345.875294 364.197054 
L 352.866313 360.513148 
L 356.394661 361.439005 
L 370.730182 349.501559 
L 370.730182 349.501559 
L 381.718976 348.456761 
L 381.718976 348.456761 
L 385.427836 345.179784 
L 389.1599 340.621975 
L 389.1599 340.621975 
L 396.694221 337.082104 
L 396.694221 337.082104 
L 415.946366 330.875883 
L 435.808335 326.967615 
L 439.855597 315.816965 
L 439.855597 315.816965 
L 443.92818 321.543895 
L 443.92818 321.543895 
L 448.026243 324.290293 
L 448.026243 324.290293 
L 456.299445 308.224365 
L 456.299445 308.224365 
L 460.474907 309.783519 
L 464.676492 305.042198 
L 468.904363 306.644069 
L 468.904363 306.644069 
L 477.439624 301.77194 
L 477.439624 301.77194 
L 481.747346 303.418307 
L 486.082019 296.700634 
L 490.44381 300.102627 
L 499.249432 293.186067 
L 503.693603 293.186067 
L 503.693603 293.186067 
L 508.165579 285.861205 
L 508.165579 285.861205 
L 512.665534 282.040882 
L 512.665534 282.040882 
L 517.193641 289.576898 
L 521.750078 278.103069 
L 521.750078 278.103069 
L 526.335022 280.089842 
L 530.948651 278.108123 
L 530.948651 278.108123 
L 544.963448 282.046858 
L 554.453391 282.046858 
L 554.453391 282.046858 
L 564.06245 289.596035 
L 568.912115 285.874255 
L 568.912115 285.874255 
L 573.792121 293.205778 
L 573.792121 293.205778 
L 578.702658 291.413936 
L 583.643918 294.977458 
L 583.643918 294.977458 
L 588.616091 293.211017 
L 588.616091 293.211017 
L 593.619372 293.205778 
L 593.619372 293.205778 
L 598.653955 296.718934 
L 598.653955 296.718934 
L 608.817814 306.677319 
L 608.817814 306.677319 
L 613.947484 308.258048 
L 613.947484 308.258048 
L 619.109247 300.129075 
L 624.303304 305.075007 
L 624.303304 305.075007 
L 640.081265 309.817628 
L 640.081265 309.817628 
L 645.40653 315.852712 
L 645.40653 315.852712 
L 656.157219 321.586896 
L 656.157219 321.586896 
L 661.583061 321.586896 
L 661.583061 321.586896 
L 672.536796 334.717454 
L 672.536796 334.717454 
L 678.065114 332.2135 
L 678.065114 332.2135 
L 683.62802 334.711473 
L 683.62802 334.711473 
L 689.225729 335.93821 
L 689.225729 335.93821 
L 700.52643 339.538823 
L 700.52643 339.538823 
L 706.229862 346.36317 
L 706.229862 346.36317 
L 711.968976 347.455925 
L 711.968976 347.455925 
L 717.743996 344.146337 
L 729.402654 344.140273 
L 729.402654 344.140273 
L 735.286746 348.536494 
L 741.20765 348.536494 
L 741.20765 348.536494 
L 747.165598 349.611502 
L 747.165598 349.611502 
L 753.16082 348.542846 
L 753.16082 348.542846 
L 765.264025 341.877395 
L 765.264025 341.877395 
L 771.372478 343.015691 
L 771.372478 343.015691 
L 777.519147 337.167269 
L 777.519147 337.167269 
L 789.928094 334.727789 
L 789.928094 334.727789 
L 796.190854 300.443827 
L 796.190854 300.443827 
L 802.492795 325.714251 
L 808.834164 318.775581 
L 808.834164 318.775581 
L 815.215207 320.198798 
L 821.636172 308.276206 
L 821.636172 308.276206 
L 828.097309 303.467151 
L 828.097309 303.467151 
L 834.598869 303.467151 
L 834.598869 303.467151 
L 841.141105 294.996366 
L 847.724271 282.069509 
L 847.724271 282.069509 
L 861.014422 274.054884 
L 867.721923 246.735295 
L 867.721923 246.735295 
L 874.471388 246.739287 
L 874.471388 246.739287 
L 881.263081 241.635154 
L 881.263081 241.635154 
L 894.974205 236.351259 
L 894.974205 236.351259 
L 908.857429 236.351259 
L 908.857429 236.351259 
L 922.914914 230.877943 
L 922.914914 230.877943 
L 930.009686 222.283841 
L 930.009686 222.283841 
L 951.56144 213.207051 
L 958.835435 206.863803 
L 958.835435 206.863803 
L 973.520235 206.863803 
L 973.520235 206.863803 
L 980.931612 200.270828 
L 988.389357 203.599444 
L 988.389357 203.599444 
L 995.893761 193.41309 
L 995.893761 193.41309 
L 1003.445114 189.879905 
L 1011.043712 171.092271 
L 1011.043712 171.092271 
L 1026.383823 162.987964 
L 1026.383823 162.987964 
L 1041.916481 154.532971 
L 1041.916481 154.532971 
L 1049.755769 131.647144 
L 1049.755769 131.647144 
L 1057.644102 126.756061 
L 1057.644102 126.756061 
L 1065.581787 111.294994 
L 1065.581787 111.294994 
L 1073.569134 116.585357 
L 1081.606452 100.359321 
L 1081.606452 100.359321 
L 1097.832255 88.818452 
L 1097.832255 88.818452 
L 1106.021372 94.654697 
L 1106.021372 94.654697 
L 1122.553628 82.846264 
L 1122.553628 82.846264 
L 1139.293394 100.359321 
L 1139.293394 100.359321 
L 1147.741906 100.374878 
L 1147.741906 100.374878 
L 1164.797832 88.8681 
L 1164.797832 88.8681 
L 1173.405909 82.86333 
L 1173.405909 82.86333 
" clip-path="url(#p2da4a73db3)" style="fill: none; stroke: #bfbf00; stroke-width: 1.5; stroke-linecap: square"/>
   </g>
   <g id="line2d_19">
    <path d="M 131.324091 544.282692 
L 133.466392 550.251688 
L 133.466392 550.251688 
L 135.622097 547.281193 
L 135.622097 547.281193 
L 137.791288 548.157473 
L 137.791288 548.157473 
L 139.97405 546.740708 
L 139.97405 546.740708 
L 144.380629 538.1235 
L 144.380629 538.1235 
L 146.604616 541.604415 
L 148.842518 542.924936 
L 148.842518 542.924936 
L 153.360412 541.392022 
L 153.360412 541.392022 
L 155.64058 538.773555 
L 155.64058 538.773555 
L 157.935014 538.096473 
L 162.567036 536.288874 
L 162.567036 536.288874 
L 167.257198 527.155079 
L 172.006231 526.449902 
L 176.814872 524.095089 
L 176.814872 524.095089 
L 179.24178 528.615582 
L 186.613985 524.078713 
L 186.613985 524.078713 
L 191.605981 520.740387 
L 194.125427 520.311243 
L 196.660635 516.723209 
L 196.660635 516.723209 
L 201.778735 515.76809 
L 204.361826 515.949133 
L 206.961077 512.118702 
L 217.52172 508.870038 
L 217.52172 508.870038 
L 222.901665 507.098172 
L 222.901665 507.098172 
L 228.349138 504.654913 
L 233.864987 503.049956 
L 233.864987 503.049956 
L 236.64882 501.617194 
L 239.45007 501.490338 
L 245.105257 489.758748 
L 250.831426 494.092713 
L 250.831426 494.092713 
L 256.629469 489.803911 
L 256.629469 489.803911 
L 265.463274 486.505576 
L 265.463274 486.505576 
L 268.444798 484.796468 
L 283.634561 471.968706 
L 286.72977 477.303458 
L 286.72977 477.303458 
L 292.978404 476.497958 
L 296.132072 470.912874 
L 312.198847 463.604812 
L 318.767165 465.806231 
L 318.767165 465.806231 
L 328.774547 456.806049 
L 328.774547 456.806049 
L 332.152168 459.284164 
L 332.152168 459.284164 
L 335.550921 446.972917 
L 338.970937 453.01502 
L 338.970937 453.01502 
L 342.41235 445.240985 
L 345.875294 450.57189 
L 352.866313 450.039747 
L 356.394661 448.033845 
L 370.730182 437.486303 
L 370.730182 437.486303 
L 381.718976 434.816074 
L 381.718976 434.816074 
L 385.427836 430.067799 
L 389.1599 434.182689 
L 389.1599 434.182689 
L 396.694221 420.103128 
L 396.694221 420.103128 
L 404.323111 426.453952 
L 408.173391 421.126316 
L 415.946366 419.096055 
L 435.808335 408.09758 
L 439.855597 402.187371 
L 439.855597 402.187371 
L 443.92818 398.742904 
L 443.92818 398.742904 
L 448.026243 402.361149 
L 448.026243 402.361149 
L 456.299445 389.940647 
L 456.299445 389.940647 
L 460.474907 390.696721 
L 464.676492 397.380198 
L 468.904363 386.326693 
L 468.904363 386.326693 
L 477.439624 387.480293 
L 477.439624 387.480293 
L 481.747346 388.314193 
L 486.082019 383.098104 
L 490.44381 377.479407 
L 494.832891 385.118252 
L 494.832891 385.118252 
L 499.249432 374.781499 
L 503.693603 367.720147 
L 503.693603 367.720147 
L 508.165579 373.047637 
L 508.165579 373.047637 
L 512.665534 378.208021 
L 512.665534 378.208021 
L 517.193641 362.564694 
L 521.750078 371.749291 
L 521.750078 371.749291 
L 526.335022 356.955483 
L 530.948651 369.428986 
L 530.948651 369.428986 
L 544.963448 362.690188 
L 549.693623 344.642747 
L 554.453391 342.575798 
L 554.453391 342.575798 
L 559.242938 342.790524 
L 559.242938 342.790524 
L 564.06245 354.031632 
L 568.912115 342.780333 
L 568.912115 342.780333 
L 573.792121 344.353807 
L 573.792121 344.353807 
L 578.702658 331.294717 
L 583.643918 344.652639 
L 583.643918 344.652639 
L 588.616091 330.730457 
L 588.616091 330.730457 
L 593.619372 323.991204 
L 593.619372 323.991204 
L 598.653955 321.512099 
L 598.653955 321.512099 
L 608.817814 324.454605 
L 608.817814 324.454605 
L 613.947484 328.099137 
L 613.947484 328.099137 
L 619.109247 312.342994 
L 624.303304 314.745647 
L 624.303304 314.745647 
L 629.529857 314.615598 
L 640.081265 308.869549 
L 640.081265 308.869549 
L 645.40653 299.688637 
L 645.40653 299.688637 
L 650.765112 308.539778 
L 650.765112 308.539778 
L 656.157219 295.714875 
L 656.157219 295.714875 
L 661.583061 301.543745 
L 661.583061 301.543745 
L 672.536796 294.461788 
L 672.536796 294.461788 
L 678.065114 297.275476 
L 678.065114 297.275476 
L 683.62802 290.476713 
L 683.62802 290.476713 
L 689.225729 298.394988 
L 689.225729 298.394988 
L 700.52643 272.709355 
L 706.229862 272.394885 
L 706.229862 272.394885 
L 711.968976 277.653289 
L 711.968976 277.653289 
L 717.743996 274.203403 
L 729.402654 270.047974 
L 729.402654 270.047974 
L 735.286746 267.010202 
L 735.286746 267.010202 
L 741.20765 258.625732 
L 741.20765 258.625732 
L 747.165598 251.899797 
L 747.165598 251.899797 
L 753.16082 252.383227 
L 753.16082 252.383227 
L 765.264025 263.7754 
L 765.264025 263.7754 
L 771.372478 240.184351 
L 771.372478 240.184351 
L 777.519147 253.183734 
L 777.519147 253.183734 
L 783.704272 249.393976 
L 783.704272 249.393976 
L 789.928094 247.504442 
L 789.928094 247.504442 
L 796.190854 249.289064 
L 796.190854 249.289064 
L 802.492795 227.399484 
L 808.834164 233.255206 
L 808.834164 233.255206 
L 815.215207 230.724086 
L 821.636172 234.769136 
L 821.636172 234.769136 
L 828.097309 215.47356 
L 828.097309 215.47356 
L 834.598869 224.171094 
L 834.598869 224.171094 
L 841.141105 217.605218 
L 847.724271 214.238858 
L 847.724271 214.238858 
L 854.348624 208.937116 
L 854.348624 208.937116 
L 867.721923 193.685735 
L 867.721923 193.685735 
L 874.471388 197.289242 
L 874.471388 197.289242 
L 881.263081 195.517489 
L 881.263081 195.517489 
L 894.974205 193.065923 
L 894.974205 193.065923 
L 901.89417 182.060874 
L 901.89417 182.060874 
L 908.857429 192.683896 
L 908.857429 192.683896 
L 915.864253 190.769489 
L 922.914914 174.832636 
L 922.914914 174.832636 
L 930.009686 181.987843 
L 930.009686 181.987843 
L 937.148846 172.106546 
L 937.148846 172.106546 
L 951.56144 176.69038 
L 958.835435 156.489225 
L 958.835435 156.489225 
L 966.154938 163.485654 
L 966.154938 163.485654 
L 973.520235 155.134639 
L 973.520235 155.134639 
L 980.931612 154.105349 
L 988.389357 160.2128 
L 988.389357 160.2128 
L 995.893761 155.083509 
L 995.893761 155.083509 
L 1003.445114 135.976175 
L 1011.043712 130.478932 
L 1011.043712 130.478932 
L 1018.689849 133.322148 
L 1018.689849 133.322148 
L 1026.383823 134.793661 
L 1026.383823 134.793661 
L 1034.125933 126.067621 
L 1041.916481 133.568341 
L 1041.916481 133.568341 
L 1049.755769 123.621055 
L 1049.755769 123.621055 
L 1057.644102 127.56584 
L 1057.644102 127.56584 
L 1065.581787 117.781182 
L 1065.581787 117.781182 
L 1081.606452 106.332522 
L 1081.606452 106.332522 
L 1089.694054 99.450294 
L 1089.694054 99.450294 
L 1097.832255 106.148844 
L 1097.832255 106.148844 
L 1106.021372 83.841786 
L 1106.021372 83.841786 
L 1114.261723 84.803476 
L 1114.261723 84.803476 
L 1122.553628 73.562974 
L 1122.553628 73.562974 
L 1139.293394 71.815217 
L 1139.293394 71.815217 
L 1147.741906 61.812727 
L 1147.741906 61.812727 
L 1156.243276 70.804555 
L 1156.243276 70.804555 
L 1164.797832 71.446422 
L 1164.797832 71.446422 
L 1173.405909 69.509425 
L 1173.405909 69.509425 
" clip-path="url(#p2da4a73db3)" style="fill: none; stroke: #00bfbf; stroke-width: 1.5; stroke-linecap: square"/>
   </g>
   <g id="patch_3">
    <path d="M 79.22 576.16 
L 79.22 37.32 
" style="fill: none; stroke: #000000; stroke-width: 0.8; stroke-linejoin: miter; stroke-linecap: square"/>
   </g>
   <g id="patch_4">
    <path d="M 1225.51 576.16 
L 1225.51 37.32 
" style="fill: none; stroke: #000000; stroke-width: 0.8; stroke-linejoin: miter; stroke-linecap: square"/>
   </g>
   <g id="patch_5">
    <path d="M 79.22 576.16 
L 1225.51 576.16 
" style="fill: none; stroke: #000000; stroke-width: 0.8; stroke-linejoin: miter; stroke-linecap: square"/>
   </g>
   <g id="patch_6">
    <path d="M 79.22 37.32 
L 1225.51 37.32 
" style="fill: none; stroke: #000000; stroke-width: 0.8; stroke-linejoin: miter; stroke-linecap: square"/>
   </g>
   <g id="text_11">
    <!-- Comparison of Distance Estimation Performance -->
    <g transform="translate(349.159922 31.32) scale(0.25 -0.25)">
     <defs>
      <path id="DejaVuSans-43" d="M 4122 4306 
L 4122 3641 
Q 3803 3938 3442 4084 
Q 3081 4231 2675 4231 
Q 1875 4231 1450 3742 
Q 1025 3253 1025 2328 
Q 1025 1406 1450 917 
Q 1875 428 2675 428 
Q 3081 428 3442 575 
Q 3803 722 4122 1019 
L 4122 359 
Q 3791 134 3420 21 
Q 3050 -91 2638 -91 
Q 1578 -91 968 557 
Q 359 1206 359 2328 
Q 359 3453 968 4101 
Q 1578 4750 2638 4750 
Q 3056 4750 3426 4639 
Q 3797 4528 4122 4306 
z
" transform="scale(0.015625)"/>
      <path id="DejaVuSans-70" d="M 1159 525 
L 1159 -1331 
L 581 -1331 
L 581 3500 
L 1159 3500 
L 1159 2969 
Q 1341 3281 1617 3432 
Q 1894 3584 2278 3584 
Q 2916 3584 3314 3078 
Q 3713 2572 3713 1747 
Q 3713 922 3314 415 
Q 2916 -91 2278 -91 
Q 1894 -91 1617 61 
Q 1341 213 1159 525 
z
M 3116 1747 
Q 3116 2381 2855 2742 
Q 2594 3103 2138 3103 
Q 1681 3103 1420 2742 
Q 1159 2381 1159 1747 
Q 1159 1113 1420 752 
Q 1681 391 2138 391 
Q 2594 391 2855 752 
Q 3116 1113 3116 1747 
z
" transform="scale(0.015625)"/>
      <path id="DejaVuSans-66" d="M 2375 4863 
L 2375 4384 
L 1825 4384 
Q 1516 4384 1395 4259 
Q 1275 4134 1275 3809 
L 1275 3500 
L 2222 3500 
L 2222 3053 
L 1275 3053 
L 1275 0 
L 697 0 
L 697 3053 
L 147 3053 
L 147 3500 
L 697 3500 
L 697 3744 
Q 697 4328 969 4595 
Q 1241 4863 1831 4863 
L 2375 4863 
z
" transform="scale(0.015625)"/>
      <path id="DejaVuSans-45" d="M 628 4666 
L 3578 4666 
L 3578 4134 
L 1259 4134 
L 1259 2753 
L 3481 2753 
L 3481 2222 
L 1259 2222 
L 1259 531 
L 3634 531 
L 3634 0 
L 628 0 
L 628 4666 
z
" transform="scale(0.015625)"/>
     </defs>
     <use xlink:href="#DejaVuSans-43"/>
     <use xlink:href="#DejaVuSans-6f" x="69.824219"/>
     <use xlink:href="#DejaVuSans-6d" x="131.005859"/>
     <use xlink:href="#DejaVuSans-70" x="228.417969"/>
     <use xlink:href="#DejaVuSans-61" x="291.894531"/>
     <use xlink:href="#DejaVuSans-72" x="353.173828"/>
     <use xlink:href="#DejaVuSans-69" x="394.287109"/>
     <use xlink:href="#DejaVuSans-73" x="422.070312"/>
     <use xlink:href="#DejaVuSans-6f" x="474.169922"/>
     <use xlink:href="#DejaVuSans-6e" x="535.351562"/>
     <use xlink:href="#DejaVuSans-20" x="598.730469"/>
     <use xlink:href="#DejaVuSans-6f" x="630.517578"/>
     <use xlink:href="#DejaVuSans-66" x="691.699219"/>
     <use xlink:href="#DejaVuSans-20" x="726.904297"/>
     <use xlink:href="#DejaVuSans-44" x="758.691406"/>
     <use xlink:href="#DejaVuSans-69" x="835.693359"/>
     <use xlink:href="#DejaVuSans-73" x="863.476562"/>
     <use xlink:href="#DejaVuSans-74" x="915.576172"/>
     <use xlink:href="#DejaVuSans-61" x="954.785156"/>
     <use xlink:href="#DejaVuSans-6e" x="1016.064453"/>
     <use xlink:href="#DejaVuSans-63" x="1079.443359"/>
     <use xlink:href="#DejaVuSans-65" x="1134.423828"/>
     <use xlink:href="#DejaVuSans-20" x="1195.947266"/>
     <use xlink:href="#DejaVuSans-45" x="1227.734375"/>
     <use xlink:href="#DejaVuSans-73" x="1290.917969"/>
     <use xlink:href="#DejaVuSans-74" x="1343.017578"/>
     <use xlink:href="#DejaVuSans-69" x="1382.226562"/>
     <use xlink:href="#DejaVuSans-6d" x="1410.009766"/>
     <use xlink:href="#DejaVuSans-61" x="1507.421875"/>
     <use xlink:href="#DejaVuSans-74" x="1568.701172"/>
     <use xlink:href="#DejaVuSans-69" x="1607.910156"/>
     <use xlink:href="#DejaVuSans-6f" x="1635.693359"/>
     <use xlink:href="#DejaVuSans-6e" x="1696.875"/>
     <use xlink:href="#DejaVuSans-20" x="1760.253906"/>
     <use xlink:href="#DejaVuSans-50" x="1792.041016"/>
     <use xlink:href="#DejaVuSans-65" x="1848.71875"/>
     <use xlink:href="#DejaVuSans-72" x="1910.242188"/>
     <use xlink:href="#DejaVuSans-66" x="1951.355469"/>
     <use xlink:href="#DejaVuSans-6f" x="1986.560547"/>
     <use xlink:href="#DejaVuSans-72" x="2047.742188"/>
     <use xlink:href="#DejaVuSans-6d" x="2087.105469"/>
     <use xlink:href="#DejaVuSans-61" x="2184.517578"/>
     <use xlink:href="#DejaVuSans-6e" x="2245.796875"/>
     <use xlink:href="#DejaVuSans-63" x="2309.175781"/>
     <use xlink:href="#DejaVuSans-65" x="2364.15625"/>
    </g>
   </g>
  </g>
  <g id="axes_2">
   <g id="matplotlib.axis_3">
    <g id="ytick_5">
     <g id="line2d_20">
      <defs>
       <path id="m807bf9d4b0" d="M 0 0 
L 3.5 0 
" style="stroke: #000000; stroke-width: 0.8"/>
      </defs>
      <g>
       <use xlink:href="#m807bf9d4b0" x="1225.51" y="533.529642" style="stroke: #000000; stroke-width: 0.8"/>
      </g>
     </g>
     <g id="text_12">
      <!-- −80 -->
      <g transform="translate(1232.51 537.708782) scale(0.11 -0.11)">
       <defs>
        <path id="DejaVuSans-2212" d="M 678 2272 
L 4684 2272 
L 4684 1741 
L 678 1741 
L 678 2272 
z
" transform="scale(0.015625)"/>
        <path id="DejaVuSans-38" d="M 2034 2216 
Q 1584 2216 1326 1975 
Q 1069 1734 1069 1313 
Q 1069 891 1326 650 
Q 1584 409 2034 409 
Q 2484 409 2743 651 
Q 3003 894 3003 1313 
Q 3003 1734 2745 1975 
Q 2488 2216 2034 2216 
z
M 1403 2484 
Q 997 2584 770 2862 
Q 544 3141 544 3541 
Q 544 4100 942 4425 
Q 1341 4750 2034 4750 
Q 2731 4750 3128 4425 
Q 3525 4100 3525 3541 
Q 3525 3141 3298 2862 
Q 3072 2584 2669 2484 
Q 3125 2378 3379 2068 
Q 3634 1759 3634 1313 
Q 3634 634 3220 271 
Q 2806 -91 2034 -91 
Q 1263 -91 848 271 
Q 434 634 434 1313 
Q 434 1759 690 2068 
Q 947 2378 1403 2484 
z
M 1172 3481 
Q 1172 3119 1398 2916 
Q 1625 2713 2034 2713 
Q 2441 2713 2670 2916 
Q 2900 3119 2900 3481 
Q 2900 3844 2670 4047 
Q 2441 4250 2034 4250 
Q 1625 4250 1398 4047 
Q 1172 3844 1172 3481 
z
" transform="scale(0.015625)"/>
       </defs>
       <use xlink:href="#DejaVuSans-2212"/>
       <use xlink:href="#DejaVuSans-38" x="83.789062"/>
       <use xlink:href="#DejaVuSans-30" x="147.412109"/>
      </g>
     </g>
    </g>
    <g id="ytick_6">
     <g id="line2d_21">
      <g>
       <use xlink:href="#m807bf9d4b0" x="1225.51" y="437.603863" style="stroke: #000000; stroke-width: 0.8"/>
      </g>
     </g>
     <g id="text_13">
      <!-- −60 -->
      <g transform="translate(1232.51 441.783004) scale(0.11 -0.11)">
       <defs>
        <path id="DejaVuSans-36" d="M 2113 2584 
Q 1688 2584 1439 2293 
Q 1191 2003 1191 1497 
Q 1191 994 1439 701 
Q 1688 409 2113 409 
Q 2538 409 2786 701 
Q 3034 994 3034 1497 
Q 3034 2003 2786 2293 
Q 2538 2584 2113 2584 
z
M 3366 4563 
L 3366 3988 
Q 3128 4100 2886 4159 
Q 2644 4219 2406 4219 
Q 1781 4219 1451 3797 
Q 1122 3375 1075 2522 
Q 1259 2794 1537 2939 
Q 1816 3084 2150 3084 
Q 2853 3084 3261 2657 
Q 3669 2231 3669 1497 
Q 3669 778 3244 343 
Q 2819 -91 2113 -91 
Q 1303 -91 875 529 
Q 447 1150 447 2328 
Q 447 3434 972 4092 
Q 1497 4750 2381 4750 
Q 2619 4750 2861 4703 
Q 3103 4656 3366 4563 
z
" transform="scale(0.015625)"/>
       </defs>
       <use xlink:href="#DejaVuSans-2212"/>
       <use xlink:href="#DejaVuSans-36" x="83.789062"/>
       <use xlink:href="#DejaVuSans-30" x="147.412109"/>
      </g>
     </g>
    </g>
    <g id="ytick_7">
     <g id="line2d_22">
      <g>
       <use xlink:href="#m807bf9d4b0" x="1225.51" y="341.678085" style="stroke: #000000; stroke-width: 0.8"/>
      </g>
     </g>
     <g id="text_14">
      <!-- −40 -->
      <g transform="translate(1232.51 345.857226) scale(0.11 -0.11)">
       <defs>
        <path id="DejaVuSans-34" d="M 2419 4116 
L 825 1625 
L 2419 1625 
L 2419 4116 
z
M 2253 4666 
L 3047 4666 
L 3047 1625 
L 3713 1625 
L 3713 1100 
L 3047 1100 
L 3047 0 
L 2419 0 
L 2419 1100 
L 313 1100 
L 313 1709 
L 2253 4666 
z
" transform="scale(0.015625)"/>
       </defs>
       <use xlink:href="#DejaVuSans-2212"/>
       <use xlink:href="#DejaVuSans-34" x="83.789062"/>
       <use xlink:href="#DejaVuSans-30" x="147.412109"/>
      </g>
     </g>
    </g>
    <g id="ytick_8">
     <g id="line2d_23">
      <g>
       <use xlink:href="#m807bf9d4b0" x="1225.51" y="245.752307" style="stroke: #000000; stroke-width: 0.8"/>
      </g>
     </g>
     <g id="text_15">
      <!-- −20 -->
      <g transform="translate(1232.51 249.931447) scale(0.11 -0.11)">
       <use xlink:href="#DejaVuSans-2212"/>
       <use xlink:href="#DejaVuSans-32" x="83.789062"/>
       <use xlink:href="#DejaVuSans-30" x="147.412109"/>
      </g>
     </g>
    </g>
    <g id="ytick_9">
     <g id="line2d_24">
      <g>
       <use xlink:href="#m807bf9d4b0" x="1225.51" y="149.826528" style="stroke: #000000; stroke-width: 0.8"/>
      </g>
     </g>
     <g id="text_16">
      <!-- 0 -->
      <g transform="translate(1232.51 154.005669) scale(0.11 -0.11)">
       <use xlink:href="#DejaVuSans-30"/>
      </g>
     </g>
    </g>
    <g id="ytick_10">
     <g id="line2d_25">
      <g>
       <use xlink:href="#m807bf9d4b0" x="1225.51" y="53.90075" style="stroke: #000000; stroke-width: 0.8"/>
      </g>
     </g>
     <g id="text_17">
      <!-- 20 -->
      <g transform="translate(1232.51 58.079891) scale(0.11 -0.11)">
       <use xlink:href="#DejaVuSans-32"/>
       <use xlink:href="#DejaVuSans-30" x="63.623047"/>
      </g>
     </g>
    </g>
    <g id="text_18">
     <!-- Predicted Error (%) -->
     <g transform="translate(1278.72125 425.454844) rotate(-90) scale(0.25 -0.25)">
      <defs>
       <path id="DejaVuSans-25" d="M 4653 2053 
Q 4381 2053 4226 1822 
Q 4072 1591 4072 1178 
Q 4072 772 4226 539 
Q 4381 306 4653 306 
Q 4919 306 5073 539 
Q 5228 772 5228 1178 
Q 5228 1588 5073 1820 
Q 4919 2053 4653 2053 
z
M 4653 2450 
Q 5147 2450 5437 2106 
Q 5728 1763 5728 1178 
Q 5728 594 5436 251 
Q 5144 -91 4653 -91 
Q 4153 -91 3862 251 
Q 3572 594 3572 1178 
Q 3572 1766 3864 2108 
Q 4156 2450 4653 2450 
z
M 1428 4353 
Q 1159 4353 1004 4120 
Q 850 3888 850 3481 
Q 850 3069 1003 2837 
Q 1156 2606 1428 2606 
Q 1700 2606 1854 2837 
Q 2009 3069 2009 3481 
Q 2009 3884 1853 4118 
Q 1697 4353 1428 4353 
z
M 4250 4750 
L 4750 4750 
L 1831 -91 
L 1331 -91 
L 4250 4750 
z
M 1428 4750 
Q 1922 4750 2215 4408 
Q 2509 4066 2509 3481 
Q 2509 2891 2217 2550 
Q 1925 2209 1428 2209 
Q 931 2209 642 2551 
Q 353 2894 353 3481 
Q 353 4063 643 4406 
Q 934 4750 1428 4750 
z
" transform="scale(0.015625)"/>
      </defs>
      <use xlink:href="#DejaVuSans-50"/>
      <use xlink:href="#DejaVuSans-72" x="58.552734"/>
      <use xlink:href="#DejaVuSans-65" x="97.416016"/>
      <use xlink:href="#DejaVuSans-64" x="158.939453"/>
      <use xlink:href="#DejaVuSans-69" x="222.416016"/>
      <use xlink:href="#DejaVuSans-63" x="250.199219"/>
      <use xlink:href="#DejaVuSans-74" x="305.179688"/>
      <use xlink:href="#DejaVuSans-65" x="344.388672"/>
      <use xlink:href="#DejaVuSans-64" x="405.912109"/>
      <use xlink:href="#DejaVuSans-20" x="469.388672"/>
      <use xlink:href="#DejaVuSans-45" x="501.175781"/>
      <use xlink:href="#DejaVuSans-72" x="564.359375"/>
      <use xlink:href="#DejaVuSans-72" x="603.722656"/>
      <use xlink:href="#DejaVuSans-6f" x="642.585938"/>
      <use xlink:href="#DejaVuSans-72" x="703.767578"/>
      <use xlink:href="#DejaVuSans-20" x="744.880859"/>
      <use xlink:href="#DejaVuSans-28" x="776.667969"/>
      <use xlink:href="#DejaVuSans-25" x="815.681641"/>
      <use xlink:href="#DejaVuSans-29" x="910.701172"/>
     </g>
    </g>
   </g>
   <g id="line2d_26">
    <path d="M 131.324091 551.667273 
L 137.791288 539.113349 
L 137.791288 539.113349 
L 139.97405 537.501899 
L 139.97405 537.501899 
L 144.380629 528.033246 
L 144.380629 528.033246 
L 146.604616 523.983464 
L 148.842518 518.626322 
L 148.842518 518.626322 
L 153.360412 510.60868 
L 153.360412 510.60868 
L 155.64058 505.383463 
L 155.64058 505.383463 
L 157.935014 498.975262 
L 162.567036 492.422077 
L 162.567036 492.422077 
L 172.006231 477.187639 
L 176.814872 469.719913 
L 176.814872 469.719913 
L 179.24178 464.705461 
L 186.613985 453.757355 
L 186.613985 453.757355 
L 191.605981 442.832856 
L 196.660635 440.741274 
L 196.660635 440.741274 
L 201.778735 435.056238 
L 204.361826 429.050097 
L 204.361826 429.050097 
L 206.961077 426.867485 
L 217.52172 413.36603 
L 217.52172 413.36603 
L 228.349138 400.230409 
L 233.864987 395.122209 
L 233.864987 395.122209 
L 236.64882 393.243036 
L 239.45007 387.45441 
L 245.105257 383.843413 
L 250.831426 377.652864 
L 250.831426 377.652864 
L 256.629469 371.618552 
L 256.629469 371.618552 
L 265.463274 361.312729 
L 265.463274 361.312729 
L 268.444798 358.372474 
L 283.634561 343.926193 
L 292.978404 339.741418 
L 296.132072 338.438177 
L 312.198847 323.616526 
L 318.767165 318.43476 
L 318.767165 318.43476 
L 328.774547 316.743985 
L 328.774547 316.743985 
L 332.152168 332.026119 
L 332.152168 332.026119 
L 335.550921 322.869389 
L 338.970937 318.811433 
L 338.970937 318.811433 
L 342.41235 326.627487 
L 345.875294 320.794509 
L 352.866313 319.633131 
L 356.394661 313.871042 
L 370.730182 319.695427 
L 370.730182 319.695427 
L 381.718976 309.518568 
L 381.718976 309.518568 
L 385.427836 311.349417 
L 389.1599 315.387915 
L 389.1599 315.387915 
L 396.694221 313.545286 
L 396.694221 313.545286 
L 408.173391 307.880884 
L 415.946366 304.252879 
L 435.808335 291.170413 
L 439.855597 305.413258 
L 439.855597 305.413258 
L 443.92818 292.223647 
L 443.92818 292.223647 
L 448.026243 283.95257 
L 448.026243 283.95257 
L 456.299445 301.785579 
L 456.299445 301.785579 
L 460.474907 295.405057 
L 464.676492 298.932926 
L 468.904363 292.534164 
L 468.904363 292.534164 
L 477.439624 292.297923 
L 477.439624 292.297923 
L 481.747346 285.91869 
L 486.082019 292.27384 
L 490.44381 283.281068 
L 494.832891 284.562428 
L 494.832891 284.562428 
L 499.249432 285.971641 
L 503.693603 282.143095 
L 503.693603 282.143095 
L 508.165579 289.101239 
L 508.165579 289.101239 
L 512.665534 290.831778 
L 512.665534 290.831778 
L 517.193641 276.03713 
L 521.750078 288.817066 
L 521.750078 288.817066 
L 526.335022 282.123465 
L 530.948651 281.141307 
L 530.948651 281.141307 
L 544.963448 264.310713 
L 554.453391 256.945939 
L 554.453391 256.945939 
L 559.242938 248.046909 
L 559.242938 248.046909 
L 564.06245 239.379854 
L 568.912115 240.883745 
L 568.912115 240.883745 
L 573.792121 227.463587 
L 573.792121 227.463587 
L 578.702658 226.396537 
L 583.643918 218.199571 
L 583.643918 218.199571 
L 588.616091 217.12683 
L 588.616091 217.12683 
L 593.619372 213.733204 
L 593.619372 213.733204 
L 598.653955 205.768549 
L 598.653955 205.768549 
L 608.817814 186.293266 
L 608.817814 186.293266 
L 613.947484 181.059597 
L 613.947484 181.059597 
L 619.109247 188.231574 
L 624.303304 178.753663 
L 624.303304 178.753663 
L 629.529857 173.577271 
L 640.081265 163.438114 
L 640.081265 163.438114 
L 645.40653 152.924593 
L 645.40653 152.924593 
L 650.765112 146.359017 
L 650.765112 146.359017 
L 656.157219 139.952765 
L 656.157219 139.952765 
L 661.583061 137.032084 
L 661.583061 137.032084 
L 672.536796 115.540463 
L 672.536796 115.540463 
L 678.065114 115.747764 
L 678.065114 115.747764 
L 683.62802 110.026947 
L 683.62802 110.026947 
L 689.225729 105.852304 
L 689.225729 105.852304 
L 700.52643 96.277577 
L 700.52643 96.277577 
L 706.229862 85.766071 
L 706.229862 85.766071 
L 711.968976 81.931152 
L 711.968976 81.931152 
L 717.743996 83.136948 
L 729.402654 78.024863 
L 729.402654 78.024863 
L 735.286746 70.579811 
L 735.286746 70.579811 
L 741.20765 68.090453 
L 741.20765 68.090453 
L 747.165598 64.430958 
L 747.165598 64.430958 
L 753.16082 63.151112 
L 753.16082 63.151112 
L 765.264025 65.494953 
L 765.264025 65.494953 
L 771.372478 61.812727 
L 771.372478 61.812727 
L 777.519147 65.630004 
L 777.519147 65.630004 
L 789.928094 63.303669 
L 789.928094 63.303669 
L 796.190854 96.830679 
L 796.190854 96.830679 
L 802.492795 67.828937 
L 808.834164 72.546569 
L 808.834164 72.546569 
L 815.215207 68.579407 
L 821.636172 78.303593 
L 821.636172 78.303593 
L 828.097309 80.65701 
L 828.097309 80.65701 
L 834.598869 78.104998 
L 834.598869 78.104998 
L 841.141105 84.07683 
L 847.724271 94.406442 
L 847.724271 94.406442 
L 861.014422 97.048441 
L 867.721923 121.157975 
L 867.721923 121.157975 
L 874.471388 118.350263 
L 874.471388 118.350263 
L 881.263081 120.502142 
L 881.263081 120.502142 
L 894.974205 119.968849 
L 894.974205 119.968849 
L 908.857429 114.393373 
L 908.857429 114.393373 
L 922.914914 113.987943 
L 922.914914 113.987943 
L 930.009686 119.18829 
L 930.009686 119.18829 
L 951.56144 119.11633 
L 958.835435 122.055368 
L 958.835435 122.055368 
L 973.520235 116.454026 
L 973.520235 116.454026 
L 980.931612 119.52481 
L 988.389357 113.798322 
L 988.389357 113.798322 
L 995.893761 119.959568 
L 995.893761 119.959568 
L 1003.445114 120.237665 
L 1011.043712 133.686348 
L 1011.043712 133.686348 
L 1026.383823 134.862227 
L 1026.383823 134.862227 
L 1041.916481 136.233516 
L 1041.916481 136.233516 
L 1049.755769 152.51906 
L 1049.755769 152.51906 
L 1057.644102 153.594508 
L 1057.644102 153.594508 
L 1065.581787 163.387962 
L 1065.581787 163.387962 
L 1073.569134 155.969345 
L 1081.606452 166.21478 
L 1081.606452 166.21478 
L 1097.832255 169.384374 
L 1097.832255 169.384374 
L 1106.021372 161.597692 
L 1106.021372 161.597692 
L 1122.553628 164.863823 
L 1122.553628 164.863823 
L 1139.293394 145.025551 
L 1139.293394 145.025551 
L 1147.741906 142.061231 
L 1147.741906 142.061231 
L 1164.797832 145.050522 
L 1164.797832 145.050522 
L 1173.405909 146.681877 
L 1173.405909 146.681877 
" clip-path="url(#p2da4a73db3)" style="fill: none; stroke-dasharray: 5.55,2.4; stroke-dashoffset: 0; stroke: #ff0000; stroke-width: 1.5"/>
   </g>
   <g id="line2d_27">
    <path d="M 131.324091 172.618544 
L 133.466392 151.1864 
L 133.466392 151.1864 
L 135.622097 157.25046 
L 135.622097 157.25046 
L 137.791288 151.567784 
L 137.791288 151.567784 
L 139.97405 152.839899 
L 139.97405 152.839899 
L 144.380629 172.476506 
L 144.380629 172.476506 
L 146.604616 159.068952 
L 148.842518 152.152083 
L 148.842518 152.152083 
L 153.360412 150.622825 
L 153.360412 150.622825 
L 155.64058 155.181668 
L 155.64058 155.181668 
L 157.935014 154.105376 
L 162.567036 153.219293 
L 162.567036 153.219293 
L 167.257198 172.745133 
L 172.006231 168.460786 
L 176.814872 168.69984 
L 176.814872 168.69984 
L 179.24178 153.360992 
L 186.613985 156.460845 
L 186.613985 156.460845 
L 191.605981 159.194155 
L 194.125427 157.27309 
L 196.660635 163.544479 
L 196.660635 163.544479 
L 201.778735 159.873698 
L 204.361826 156.368614 
L 204.361826 156.368614 
L 206.961077 163.029276 
L 217.52172 158.896817 
L 217.52172 158.896817 
L 222.901665 157.153572 
L 222.901665 157.153572 
L 228.349138 156.993131 
L 233.864987 154.770734 
L 233.864987 154.770734 
L 236.64882 155.139815 
L 239.45007 152.42228 
L 245.105257 173.622443 
L 250.831426 157.466063 
L 250.831426 157.466063 
L 256.629469 161.116596 
L 256.629469 161.116596 
L 265.463274 159.331268 
L 265.463274 159.331268 
L 268.444798 160.056797 
L 283.634561 172.419616 
L 286.72977 157.971688 
L 286.72977 157.971688 
L 292.978404 153.613953 
L 296.132072 162.245378 
L 312.198847 161.897498 
L 318.767165 151.411348 
L 318.767165 151.411348 
L 328.774547 160.110127 
L 328.774547 160.110127 
L 332.152168 152.243095 
L 332.152168 152.243095 
L 335.550921 173.047883 
L 338.970937 158.312597 
L 338.970937 158.312597 
L 342.41235 170.121338 
L 345.875294 156.897656 
L 352.866313 151.86163 
L 356.394661 152.602566 
L 370.730182 159.875731 
L 370.730182 159.875731 
L 381.718976 155.55917 
L 381.718976 155.55917 
L 385.427836 160.953942 
L 389.1599 150.657694 
L 389.1599 150.657694 
L 396.694221 169.184056 
L 396.694221 169.184056 
L 404.323111 152.09225 
L 408.173391 158.188338 
L 415.946366 155.561012 
L 435.808335 158.627221 
L 439.855597 165.185993 
L 439.855597 165.185993 
L 443.92818 167.665945 
L 443.92818 167.665945 
L 448.026243 158.771352 
L 448.026243 158.771352 
L 456.299445 172.383411 
L 456.299445 172.383411 
L 460.474907 168.071254 
L 464.676492 154.523296 
L 468.904363 168.691386 
L 468.904363 168.691386 
L 477.439624 160.741234 
L 477.439624 160.741234 
L 481.747346 156.419278 
L 486.082019 161.303322 
L 490.44381 166.71436 
L 494.832891 152.191059 
L 494.832891 152.191059 
L 499.249432 164.573381 
L 503.693603 171.940232 
L 503.693603 171.940232 
L 508.165579 160.99265 
L 508.165579 160.99265 
L 512.665534 150.405818 
L 512.665534 150.405818 
L 517.193641 170.120947 
L 521.750078 153.767344 
L 521.750078 153.767344 
L 526.335022 171.962671 
L 530.948651 151.077587 
L 530.948651 151.077587 
L 544.963448 151.583514 
L 549.693623 173.661266 
L 554.453391 173.38447 
L 554.453391 173.38447 
L 559.242938 169.961339 
L 559.242938 169.961339 
L 564.06245 151.527869 
L 568.912115 163.779952 
L 568.912115 163.779952 
L 573.792121 158.592434 
L 573.792121 158.592434 
L 578.702658 173.030682 
L 583.643918 152.140778 
L 583.643918 152.140778 
L 588.616091 167.543134 
L 588.616091 167.543134 
L 593.619372 173.301776 
L 593.619372 173.301776 
L 598.653955 173.409389 
L 598.653955 173.409389 
L 608.817814 163.378602 
L 608.817814 163.378602 
L 613.947484 155.643732 
L 613.947484 155.643732 
L 619.109247 172.683172 
L 624.303304 166.519414 
L 624.303304 166.519414 
L 629.529857 163.597058 
L 640.081265 164.615288 
L 640.081265 164.615288 
L 645.40653 172.869794 
L 645.40653 172.869794 
L 650.765112 158.890744 
L 650.765112 158.890744 
L 656.157219 171.481072 
L 656.157219 171.481072 
L 661.583061 161.305319 
L 661.583061 161.305319 
L 672.536796 163.687704 
L 672.536796 163.687704 
L 678.065114 157.275103 
L 678.065114 157.275103 
L 683.62802 162.277488 
L 683.62802 162.277488 
L 689.225729 149.923012 
L 689.225729 149.923012 
L 700.52643 173.753939 
L 700.52643 173.753939 
L 706.229862 170.985403 
L 706.229862 170.985403 
L 711.968976 161.851205 
L 711.968976 161.851205 
L 717.743996 162.719738 
L 729.402654 161.283848 
L 729.402654 161.283848 
L 735.286746 161.622923 
L 735.286746 161.622923 
L 741.20765 167.872509 
L 741.20765 167.872509 
L 747.165598 172.196204 
L 747.165598 172.196204 
L 753.16082 168.545196 
L 753.16082 168.545196 
L 765.264025 150.036143 
L 765.264025 150.036143 
L 771.372478 172.430037 
L 771.372478 172.430037 
L 777.519147 155.410729 
L 777.519147 155.410729 
L 783.704272 156.420106 
L 783.704272 156.420106 
L 789.928094 155.391966 
L 789.928094 155.391966 
L 796.190854 150.502846 
L 796.190854 150.502846 
L 802.492795 170.340576 
L 808.834164 161.163231 
L 808.834164 161.163231 
L 815.215207 160.717127 
L 821.636172 153.527802 
L 821.636172 153.527802 
L 828.097309 170.146272 
L 828.097309 170.146272 
L 834.598869 158.247489 
L 834.598869 158.247489 
L 841.141105 161.807766 
L 847.724271 162.111321 
L 847.724271 162.111321 
L 854.348624 164.31188 
L 854.348624 164.31188 
L 867.721923 173.127633 
L 867.721923 173.127633 
L 874.471388 166.492485 
L 874.471388 166.492485 
L 881.263081 165.120965 
L 881.263081 165.120965 
L 894.974205 161.328258 
L 894.974205 161.328258 
L 901.89417 168.724691 
L 908.857429 155.600585 
L 908.857429 155.600585 
L 915.864253 154.377934 
L 915.864253 154.377934 
L 922.914914 166.220134 
L 922.914914 166.220134 
L 930.009686 156.509205 
L 930.009686 156.509205 
L 937.148846 162.580437 
L 937.148846 162.580437 
L 951.56144 152.310027 
L 958.835435 167.561219 
L 958.835435 167.561219 
L 966.154938 158.187959 
L 966.154938 158.187959 
L 973.520235 162.604271 
L 973.520235 162.604271 
L 980.931612 160.455329 
L 988.389357 152.025948 
L 988.389357 152.025948 
L 995.893761 153.521481 
L 995.893761 153.521481 
L 1003.445114 167.143063 
L 1011.043712 168.807122 
L 1011.043712 168.807122 
L 1018.689849 163.263628 
L 1018.689849 163.263628 
L 1026.383823 158.941283 
L 1026.383823 158.941283 
L 1034.125933 163.308592 
L 1041.916481 153.916194 
L 1041.916481 153.916194 
L 1049.755769 159.246599 
L 1049.755769 159.246599 
L 1057.644102 152.919964 
L 1057.644102 152.919964 
L 1065.581787 158.018578 
L 1065.581787 158.018578 
L 1081.606452 161.331352 
L 1081.606452 161.331352 
L 1089.694054 163.869376 
L 1089.694054 163.869376 
L 1097.832255 155.391441 
L 1097.832255 155.391441 
L 1106.021372 170.273989 
L 1106.021372 170.273989 
L 1114.261723 166.397923 
L 1114.261723 166.397923 
L 1122.553628 172.22041 
L 1122.553628 172.22041 
L 1139.293394 167.36506 
L 1139.293394 167.36506 
L 1147.741906 172.053534 
L 1147.741906 172.053534 
L 1156.243276 161.983218 
L 1156.243276 161.983218 
L 1164.797832 158.432531 
L 1164.797832 158.432531 
L 1173.405909 156.875557 
L 1173.405909 156.875557 
" clip-path="url(#p2da4a73db3)" style="fill: none; stroke-dasharray: 5.55,2.4; stroke-dashoffset: 0; stroke: #008000; stroke-width: 1.5"/>
   </g>
   <g id="patch_7">
    <path d="M 79.22 576.16 
L 79.22 37.32 
" style="fill: none; stroke: #000000; stroke-width: 0.8; stroke-linejoin: miter; stroke-linecap: square"/>
   </g>
   <g id="patch_8">
    <path d="M 1225.51 576.16 
L 1225.51 37.32 
" style="fill: none; stroke: #000000; stroke-width: 0.8; stroke-linejoin: miter; stroke-linecap: square"/>
   </g>
   <g id="patch_9">
    <path d="M 79.22 576.16 
L 1225.51 576.16 
" style="fill: none; stroke: #000000; stroke-width: 0.8; stroke-linejoin: miter; stroke-linecap: square"/>
   </g>
   <g id="patch_10">
    <path d="M 79.22 37.32 
L 1225.51 37.32 
" style="fill: none; stroke: #000000; stroke-width: 0.8; stroke-linejoin: miter; stroke-linecap: square"/>
   </g>
  </g>
 </g>
 <defs>
  <clipPath id="p2da4a73db3">
   <rect x="79.22" y="37.32" width="1146.29" height="538.84"/>
  </clipPath>
 </defs>
</svg>
