<?xml version="1.0" encoding="utf-8" standalone="no"?>
<!DOCTYPE svg PUBLIC "-//W3C//DTD SVG 1.1//EN"
  "http://www.w3.org/Graphics/SVG/1.1/DTD/svg11.dtd">
<svg xmlns:xlink="http://www.w3.org/1999/xlink" width="1296pt" height="648pt" viewBox="0 0 1296 648" xmlns="http://www.w3.org/2000/svg" version="1.1">
 <metadata>
  <rdf:RDF xmlns:dc="http://purl.org/dc/elements/1.1/" xmlns:cc="http://creativecommons.org/ns#" xmlns:rdf="http://www.w3.org/1999/02/22-rdf-syntax-ns#">
   <cc:Work>
    <dc:type rdf:resource="http://purl.org/dc/dcmitype/StillImage"/>
    <dc:date>2024-01-17T18:16:18.384406</dc:date>
    <dc:format>image/svg+xml</dc:format>
    <dc:creator>
     <cc:Agent>
      <dc:title>Matplotlib v3.6.0, https://matplotlib.org/</dc:title>
     </cc:Agent>
    </dc:creator>
   </cc:Work>
  </rdf:RDF>
 </metadata>
 <defs>
  <style type="text/css">*{stroke-linejoin: round; stroke-linecap: butt}</style>
 </defs>
 <g id="figure_1">
  <g id="patch_1">
   <path d="M 0 648 
L 1296 648 
L 1296 0 
L 0 0 
z
" style="fill: #ffffff"/>
  </g>
  <g id="axes_1">
   <g id="patch_2">
    <path d="M 79.22 576.16 
L 1225.51 576.16 
L 1225.51 37.32 
L 79.22 37.32 
z
" style="fill: #ffffff"/>
   </g>
   <g id="matplotlib.axis_1">
    <g id="xtick_1">
     <g id="line2d_1">
      <path d="M 283.368901 576.16 
L 283.368901 37.32 
" clip-path="url(#pe1bf2a5a5e)" style="fill: none; stroke: #b0b0b0; stroke-width: 0.8; stroke-linecap: square"/>
     </g>
     <g id="line2d_2">
      <defs>
       <path id="m2618017bbf" d="M 0 0 
L 0 3.5 
" style="stroke: #000000; stroke-width: 0.8"/>
      </defs>
      <g>
       <use xlink:href="#m2618017bbf" x="283.368901" y="576.16" style="stroke: #000000; stroke-width: 0.8"/>
      </g>
     </g>
     <g id="text_1">
      <!-- 10 -->
      <g transform="translate(267.462651 602.156094) scale(0.25 -0.25)">
       <defs>
        <path id="DejaVuSans-31" d="M 794 531 
L 1825 531 
L 1825 4091 
L 703 3866 
L 703 4441 
L 1819 4666 
L 2450 4666 
L 2450 531 
L 3481 531 
L 3481 0 
L 794 0 
L 794 531 
z
" transform="scale(0.015625)"/>
        <path id="DejaVuSans-30" d="M 2034 4250 
Q 1547 4250 1301 3770 
Q 1056 3291 1056 2328 
Q 1056 1369 1301 889 
Q 1547 409 2034 409 
Q 2525 409 2770 889 
Q 3016 1369 3016 2328 
Q 3016 3291 2770 3770 
Q 2525 4250 2034 4250 
z
M 2034 4750 
Q 2819 4750 3233 4129 
Q 3647 3509 3647 2328 
Q 3647 1150 3233 529 
Q 2819 -91 2034 -91 
Q 1250 -91 836 529 
Q 422 1150 422 2328 
Q 422 3509 836 4129 
Q 1250 4750 2034 4750 
z
" transform="scale(0.015625)"/>
       </defs>
       <use xlink:href="#DejaVuSans-31"/>
       <use xlink:href="#DejaVuSans-30" x="63.623047"/>
      </g>
     </g>
    </g>
    <g id="xtick_2">
     <g id="line2d_3">
      <path d="M 530.601403 576.16 
L 530.601403 37.32 
" clip-path="url(#pe1bf2a5a5e)" style="fill: none; stroke: #b0b0b0; stroke-width: 0.8; stroke-linecap: square"/>
     </g>
     <g id="line2d_4">
      <g>
       <use xlink:href="#m2618017bbf" x="530.601403" y="576.16" style="stroke: #000000; stroke-width: 0.8"/>
      </g>
     </g>
     <g id="text_2">
      <!-- 15 -->
      <g transform="translate(514.695153 602.156094) scale(0.25 -0.25)">
       <defs>
        <path id="DejaVuSans-35" d="M 691 4666 
L 3169 4666 
L 3169 4134 
L 1269 4134 
L 1269 2991 
Q 1406 3038 1543 3061 
Q 1681 3084 1819 3084 
Q 2600 3084 3056 2656 
Q 3513 2228 3513 1497 
Q 3513 744 3044 326 
Q 2575 -91 1722 -91 
Q 1428 -91 1123 -41 
Q 819 9 494 109 
L 494 744 
Q 775 591 1075 516 
Q 1375 441 1709 441 
Q 2250 441 2565 725 
Q 2881 1009 2881 1497 
Q 2881 1984 2565 2268 
Q 2250 2553 1709 2553 
Q 1456 2553 1204 2497 
Q 953 2441 691 2322 
L 691 4666 
z
" transform="scale(0.015625)"/>
       </defs>
       <use xlink:href="#DejaVuSans-31"/>
       <use xlink:href="#DejaVuSans-35" x="63.623047"/>
      </g>
     </g>
    </g>
    <g id="xtick_3">
     <g id="line2d_5">
      <path d="M 777.833906 576.16 
L 777.833906 37.32 
" clip-path="url(#pe1bf2a5a5e)" style="fill: none; stroke: #b0b0b0; stroke-width: 0.8; stroke-linecap: square"/>
     </g>
     <g id="line2d_6">
      <g>
       <use xlink:href="#m2618017bbf" x="777.833906" y="576.16" style="stroke: #000000; stroke-width: 0.8"/>
      </g>
     </g>
     <g id="text_3">
      <!-- 20 -->
      <g transform="translate(761.927656 602.156094) scale(0.25 -0.25)">
       <defs>
        <path id="DejaVuSans-32" d="M 1228 531 
L 3431 531 
L 3431 0 
L 469 0 
L 469 531 
Q 828 903 1448 1529 
Q 2069 2156 2228 2338 
Q 2531 2678 2651 2914 
Q 2772 3150 2772 3378 
Q 2772 3750 2511 3984 
Q 2250 4219 1831 4219 
Q 1534 4219 1204 4116 
Q 875 4013 500 3803 
L 500 4441 
Q 881 4594 1212 4672 
Q 1544 4750 1819 4750 
Q 2544 4750 2975 4387 
Q 3406 4025 3406 3419 
Q 3406 3131 3298 2873 
Q 3191 2616 2906 2266 
Q 2828 2175 2409 1742 
Q 1991 1309 1228 531 
z
" transform="scale(0.015625)"/>
       </defs>
       <use xlink:href="#DejaVuSans-32"/>
       <use xlink:href="#DejaVuSans-30" x="63.623047"/>
      </g>
     </g>
    </g>
    <g id="xtick_4">
     <g id="line2d_7">
      <path d="M 1025.066408 576.16 
L 1025.066408 37.32 
" clip-path="url(#pe1bf2a5a5e)" style="fill: none; stroke: #b0b0b0; stroke-width: 0.8; stroke-linecap: square"/>
     </g>
     <g id="line2d_8">
      <g>
       <use xlink:href="#m2618017bbf" x="1025.066408" y="576.16" style="stroke: #000000; stroke-width: 0.8"/>
      </g>
     </g>
     <g id="text_4">
      <!-- 25 -->
      <g transform="translate(1009.160158 602.156094) scale(0.25 -0.25)">
       <use xlink:href="#DejaVuSans-32"/>
       <use xlink:href="#DejaVuSans-35" x="63.623047"/>
      </g>
     </g>
    </g>
    <g id="text_5">
     <!-- Ground Truth Distance (m) -->
     <g transform="translate(486.216563 630.351406) scale(0.25 -0.25)">
      <defs>
       <path id="DejaVuSans-47" d="M 3809 666 
L 3809 1919 
L 2778 1919 
L 2778 2438 
L 4434 2438 
L 4434 434 
Q 4069 175 3628 42 
Q 3188 -91 2688 -91 
Q 1594 -91 976 548 
Q 359 1188 359 2328 
Q 359 3472 976 4111 
Q 1594 4750 2688 4750 
Q 3144 4750 3555 4637 
Q 3966 4525 4313 4306 
L 4313 3634 
Q 3963 3931 3569 4081 
Q 3175 4231 2741 4231 
Q 1884 4231 1454 3753 
Q 1025 3275 1025 2328 
Q 1025 1384 1454 906 
Q 1884 428 2741 428 
Q 3075 428 3337 486 
Q 3600 544 3809 666 
z
" transform="scale(0.015625)"/>
       <path id="DejaVuSans-72" d="M 2631 2963 
Q 2534 3019 2420 3045 
Q 2306 3072 2169 3072 
Q 1681 3072 1420 2755 
Q 1159 2438 1159 1844 
L 1159 0 
L 581 0 
L 581 3500 
L 1159 3500 
L 1159 2956 
Q 1341 3275 1631 3429 
Q 1922 3584 2338 3584 
Q 2397 3584 2469 3576 
Q 2541 3569 2628 3553 
L 2631 2963 
z
" transform="scale(0.015625)"/>
       <path id="DejaVuSans-6f" d="M 1959 3097 
Q 1497 3097 1228 2736 
Q 959 2375 959 1747 
Q 959 1119 1226 758 
Q 1494 397 1959 397 
Q 2419 397 2687 759 
Q 2956 1122 2956 1747 
Q 2956 2369 2687 2733 
Q 2419 3097 1959 3097 
z
M 1959 3584 
Q 2709 3584 3137 3096 
Q 3566 2609 3566 1747 
Q 3566 888 3137 398 
Q 2709 -91 1959 -91 
Q 1206 -91 779 398 
Q 353 888 353 1747 
Q 353 2609 779 3096 
Q 1206 3584 1959 3584 
z
" transform="scale(0.015625)"/>
       <path id="DejaVuSans-75" d="M 544 1381 
L 544 3500 
L 1119 3500 
L 1119 1403 
Q 1119 906 1312 657 
Q 1506 409 1894 409 
Q 2359 409 2629 706 
Q 2900 1003 2900 1516 
L 2900 3500 
L 3475 3500 
L 3475 0 
L 2900 0 
L 2900 538 
Q 2691 219 2414 64 
Q 2138 -91 1772 -91 
Q 1169 -91 856 284 
Q 544 659 544 1381 
z
M 1991 3584 
L 1991 3584 
z
" transform="scale(0.015625)"/>
       <path id="DejaVuSans-6e" d="M 3513 2113 
L 3513 0 
L 2938 0 
L 2938 2094 
Q 2938 2591 2744 2837 
Q 2550 3084 2163 3084 
Q 1697 3084 1428 2787 
Q 1159 2491 1159 1978 
L 1159 0 
L 581 0 
L 581 3500 
L 1159 3500 
L 1159 2956 
Q 1366 3272 1645 3428 
Q 1925 3584 2291 3584 
Q 2894 3584 3203 3211 
Q 3513 2838 3513 2113 
z
" transform="scale(0.015625)"/>
       <path id="DejaVuSans-64" d="M 2906 2969 
L 2906 4863 
L 3481 4863 
L 3481 0 
L 2906 0 
L 2906 525 
Q 2725 213 2448 61 
Q 2172 -91 1784 -91 
Q 1150 -91 751 415 
Q 353 922 353 1747 
Q 353 2572 751 3078 
Q 1150 3584 1784 3584 
Q 2172 3584 2448 3432 
Q 2725 3281 2906 2969 
z
M 947 1747 
Q 947 1113 1208 752 
Q 1469 391 1925 391 
Q 2381 391 2643 752 
Q 2906 1113 2906 1747 
Q 2906 2381 2643 2742 
Q 2381 3103 1925 3103 
Q 1469 3103 1208 2742 
Q 947 2381 947 1747 
z
" transform="scale(0.015625)"/>
       <path id="DejaVuSans-20" transform="scale(0.015625)"/>
       <path id="DejaVuSans-54" d="M -19 4666 
L 3928 4666 
L 3928 4134 
L 2272 4134 
L 2272 0 
L 1638 0 
L 1638 4134 
L -19 4134 
L -19 4666 
z
" transform="scale(0.015625)"/>
       <path id="DejaVuSans-74" d="M 1172 4494 
L 1172 3500 
L 2356 3500 
L 2356 3053 
L 1172 3053 
L 1172 1153 
Q 1172 725 1289 603 
Q 1406 481 1766 481 
L 2356 481 
L 2356 0 
L 1766 0 
Q 1100 0 847 248 
Q 594 497 594 1153 
L 594 3053 
L 172 3053 
L 172 3500 
L 594 3500 
L 594 4494 
L 1172 4494 
z
" transform="scale(0.015625)"/>
       <path id="DejaVuSans-68" d="M 3513 2113 
L 3513 0 
L 2938 0 
L 2938 2094 
Q 2938 2591 2744 2837 
Q 2550 3084 2163 3084 
Q 1697 3084 1428 2787 
Q 1159 2491 1159 1978 
L 1159 0 
L 581 0 
L 581 4863 
L 1159 4863 
L 1159 2956 
Q 1366 3272 1645 3428 
Q 1925 3584 2291 3584 
Q 2894 3584 3203 3211 
Q 3513 2838 3513 2113 
z
" transform="scale(0.015625)"/>
       <path id="DejaVuSans-44" d="M 1259 4147 
L 1259 519 
L 2022 519 
Q 2988 519 3436 956 
Q 3884 1394 3884 2338 
Q 3884 3275 3436 3711 
Q 2988 4147 2022 4147 
L 1259 4147 
z
M 628 4666 
L 1925 4666 
Q 3281 4666 3915 4102 
Q 4550 3538 4550 2338 
Q 4550 1131 3912 565 
Q 3275 0 1925 0 
L 628 0 
L 628 4666 
z
" transform="scale(0.015625)"/>
       <path id="DejaVuSans-69" d="M 603 3500 
L 1178 3500 
L 1178 0 
L 603 0 
L 603 3500 
z
M 603 4863 
L 1178 4863 
L 1178 4134 
L 603 4134 
L 603 4863 
z
" transform="scale(0.015625)"/>
       <path id="DejaVuSans-73" d="M 2834 3397 
L 2834 2853 
Q 2591 2978 2328 3040 
Q 2066 3103 1784 3103 
Q 1356 3103 1142 2972 
Q 928 2841 928 2578 
Q 928 2378 1081 2264 
Q 1234 2150 1697 2047 
L 1894 2003 
Q 2506 1872 2764 1633 
Q 3022 1394 3022 966 
Q 3022 478 2636 193 
Q 2250 -91 1575 -91 
Q 1294 -91 989 -36 
Q 684 19 347 128 
L 347 722 
Q 666 556 975 473 
Q 1284 391 1588 391 
Q 1994 391 2212 530 
Q 2431 669 2431 922 
Q 2431 1156 2273 1281 
Q 2116 1406 1581 1522 
L 1381 1569 
Q 847 1681 609 1914 
Q 372 2147 372 2553 
Q 372 3047 722 3315 
Q 1072 3584 1716 3584 
Q 2034 3584 2315 3537 
Q 2597 3491 2834 3397 
z
" transform="scale(0.015625)"/>
       <path id="DejaVuSans-61" d="M 2194 1759 
Q 1497 1759 1228 1600 
Q 959 1441 959 1056 
Q 959 750 1161 570 
Q 1363 391 1709 391 
Q 2188 391 2477 730 
Q 2766 1069 2766 1631 
L 2766 1759 
L 2194 1759 
z
M 3341 1997 
L 3341 0 
L 2766 0 
L 2766 531 
Q 2569 213 2275 61 
Q 1981 -91 1556 -91 
Q 1019 -91 701 211 
Q 384 513 384 1019 
Q 384 1609 779 1909 
Q 1175 2209 1959 2209 
L 2766 2209 
L 2766 2266 
Q 2766 2663 2505 2880 
Q 2244 3097 1772 3097 
Q 1472 3097 1187 3025 
Q 903 2953 641 2809 
L 641 3341 
Q 956 3463 1253 3523 
Q 1550 3584 1831 3584 
Q 2591 3584 2966 3190 
Q 3341 2797 3341 1997 
z
" transform="scale(0.015625)"/>
       <path id="DejaVuSans-63" d="M 3122 3366 
L 3122 2828 
Q 2878 2963 2633 3030 
Q 2388 3097 2138 3097 
Q 1578 3097 1268 2742 
Q 959 2388 959 1747 
Q 959 1106 1268 751 
Q 1578 397 2138 397 
Q 2388 397 2633 464 
Q 2878 531 3122 666 
L 3122 134 
Q 2881 22 2623 -34 
Q 2366 -91 2075 -91 
Q 1284 -91 818 406 
Q 353 903 353 1747 
Q 353 2603 823 3093 
Q 1294 3584 2113 3584 
Q 2378 3584 2631 3529 
Q 2884 3475 3122 3366 
z
" transform="scale(0.015625)"/>
       <path id="DejaVuSans-65" d="M 3597 1894 
L 3597 1613 
L 953 1613 
Q 991 1019 1311 708 
Q 1631 397 2203 397 
Q 2534 397 2845 478 
Q 3156 559 3463 722 
L 3463 178 
Q 3153 47 2828 -22 
Q 2503 -91 2169 -91 
Q 1331 -91 842 396 
Q 353 884 353 1716 
Q 353 2575 817 3079 
Q 1281 3584 2069 3584 
Q 2775 3584 3186 3129 
Q 3597 2675 3597 1894 
z
M 3022 2063 
Q 3016 2534 2758 2815 
Q 2500 3097 2075 3097 
Q 1594 3097 1305 2825 
Q 1016 2553 972 2059 
L 3022 2063 
z
" transform="scale(0.015625)"/>
       <path id="DejaVuSans-28" d="M 1984 4856 
Q 1566 4138 1362 3434 
Q 1159 2731 1159 2009 
Q 1159 1288 1364 580 
Q 1569 -128 1984 -844 
L 1484 -844 
Q 1016 -109 783 600 
Q 550 1309 550 2009 
Q 550 2706 781 3412 
Q 1013 4119 1484 4856 
L 1984 4856 
z
" transform="scale(0.015625)"/>
       <path id="DejaVuSans-6d" d="M 3328 2828 
Q 3544 3216 3844 3400 
Q 4144 3584 4550 3584 
Q 5097 3584 5394 3201 
Q 5691 2819 5691 2113 
L 5691 0 
L 5113 0 
L 5113 2094 
Q 5113 2597 4934 2840 
Q 4756 3084 4391 3084 
Q 3944 3084 3684 2787 
Q 3425 2491 3425 1978 
L 3425 0 
L 2847 0 
L 2847 2094 
Q 2847 2600 2669 2842 
Q 2491 3084 2119 3084 
Q 1678 3084 1418 2786 
Q 1159 2488 1159 1978 
L 1159 0 
L 581 0 
L 581 3500 
L 1159 3500 
L 1159 2956 
Q 1356 3278 1631 3431 
Q 1906 3584 2284 3584 
Q 2666 3584 2933 3390 
Q 3200 3197 3328 2828 
z
" transform="scale(0.015625)"/>
       <path id="DejaVuSans-29" d="M 513 4856 
L 1013 4856 
Q 1481 4119 1714 3412 
Q 1947 2706 1947 2009 
Q 1947 1309 1714 600 
Q 1481 -109 1013 -844 
L 513 -844 
Q 928 -128 1133 580 
Q 1338 1288 1338 2009 
Q 1338 2731 1133 3434 
Q 928 4138 513 4856 
z
" transform="scale(0.015625)"/>
      </defs>
      <use xlink:href="#DejaVuSans-47"/>
      <use xlink:href="#DejaVuSans-72" x="77.490234"/>
      <use xlink:href="#DejaVuSans-6f" x="116.353516"/>
      <use xlink:href="#DejaVuSans-75" x="177.535156"/>
      <use xlink:href="#DejaVuSans-6e" x="240.914062"/>
      <use xlink:href="#DejaVuSans-64" x="304.292969"/>
      <use xlink:href="#DejaVuSans-20" x="367.769531"/>
      <use xlink:href="#DejaVuSans-54" x="399.556641"/>
      <use xlink:href="#DejaVuSans-72" x="445.890625"/>
      <use xlink:href="#DejaVuSans-75" x="487.003906"/>
      <use xlink:href="#DejaVuSans-74" x="550.382812"/>
      <use xlink:href="#DejaVuSans-68" x="589.591797"/>
      <use xlink:href="#DejaVuSans-20" x="652.970703"/>
      <use xlink:href="#DejaVuSans-44" x="684.757812"/>
      <use xlink:href="#DejaVuSans-69" x="761.759766"/>
      <use xlink:href="#DejaVuSans-73" x="789.542969"/>
      <use xlink:href="#DejaVuSans-74" x="841.642578"/>
      <use xlink:href="#DejaVuSans-61" x="880.851562"/>
      <use xlink:href="#DejaVuSans-6e" x="942.130859"/>
      <use xlink:href="#DejaVuSans-63" x="1005.509766"/>
      <use xlink:href="#DejaVuSans-65" x="1060.490234"/>
      <use xlink:href="#DejaVuSans-20" x="1122.013672"/>
      <use xlink:href="#DejaVuSans-28" x="1153.800781"/>
      <use xlink:href="#DejaVuSans-6d" x="1192.814453"/>
      <use xlink:href="#DejaVuSans-29" x="1290.226562"/>
     </g>
    </g>
   </g>
   <g id="matplotlib.axis_2">
    <g id="ytick_1">
     <g id="line2d_9">
      <path d="M 79.22 482.520915 
L 1225.51 482.520915 
" clip-path="url(#pe1bf2a5a5e)" style="fill: none; stroke: #b0b0b0; stroke-width: 0.8; stroke-linecap: square"/>
     </g>
     <g id="line2d_10">
      <defs>
       <path id="m01ba465a0f" d="M 0 0 
L -3.5 0 
" style="stroke: #000000; stroke-width: 0.8"/>
      </defs>
      <g>
       <use xlink:href="#m01ba465a0f" x="79.22" y="482.520915" style="stroke: #000000; stroke-width: 0.8"/>
      </g>
     </g>
     <g id="text_6">
      <!-- 10 -->
      <g transform="translate(40.4075 492.018962) scale(0.25 -0.25)">
       <use xlink:href="#DejaVuSans-31"/>
       <use xlink:href="#DejaVuSans-30" x="63.623047"/>
      </g>
     </g>
    </g>
    <g id="ytick_2">
     <g id="line2d_11">
      <path d="M 79.22 370.085464 
L 1225.51 370.085464 
" clip-path="url(#pe1bf2a5a5e)" style="fill: none; stroke: #b0b0b0; stroke-width: 0.8; stroke-linecap: square"/>
     </g>
     <g id="line2d_12">
      <g>
       <use xlink:href="#m01ba465a0f" x="79.22" y="370.085464" style="stroke: #000000; stroke-width: 0.8"/>
      </g>
     </g>
     <g id="text_7">
      <!-- 15 -->
      <g transform="translate(40.4075 379.583511) scale(0.25 -0.25)">
       <use xlink:href="#DejaVuSans-31"/>
       <use xlink:href="#DejaVuSans-35" x="63.623047"/>
      </g>
     </g>
    </g>
    <g id="ytick_3">
     <g id="line2d_13">
      <path d="M 79.22 257.650012 
L 1225.51 257.650012 
" clip-path="url(#pe1bf2a5a5e)" style="fill: none; stroke: #b0b0b0; stroke-width: 0.8; stroke-linecap: square"/>
     </g>
     <g id="line2d_14">
      <g>
       <use xlink:href="#m01ba465a0f" x="79.22" y="257.650012" style="stroke: #000000; stroke-width: 0.8"/>
      </g>
     </g>
     <g id="text_8">
      <!-- 20 -->
      <g transform="translate(40.4075 267.148059) scale(0.25 -0.25)">
       <use xlink:href="#DejaVuSans-32"/>
       <use xlink:href="#DejaVuSans-30" x="63.623047"/>
      </g>
     </g>
    </g>
    <g id="ytick_4">
     <g id="line2d_15">
      <path d="M 79.22 145.21456 
L 1225.51 145.21456 
" clip-path="url(#pe1bf2a5a5e)" style="fill: none; stroke: #b0b0b0; stroke-width: 0.8; stroke-linecap: square"/>
     </g>
     <g id="line2d_16">
      <g>
       <use xlink:href="#m01ba465a0f" x="79.22" y="145.21456" style="stroke: #000000; stroke-width: 0.8"/>
      </g>
     </g>
     <g id="text_9">
      <!-- 25 -->
      <g transform="translate(40.4075 154.712607) scale(0.25 -0.25)">
       <use xlink:href="#DejaVuSans-32"/>
       <use xlink:href="#DejaVuSans-35" x="63.623047"/>
      </g>
     </g>
    </g>
    <g id="text_10">
     <!-- Predicted Distance (m) -->
     <g transform="translate(31.208281 449.947031) rotate(-90) scale(0.25 -0.25)">
      <defs>
       <path id="DejaVuSans-50" d="M 1259 4147 
L 1259 2394 
L 2053 2394 
Q 2494 2394 2734 2622 
Q 2975 2850 2975 3272 
Q 2975 3691 2734 3919 
Q 2494 4147 2053 4147 
L 1259 4147 
z
M 628 4666 
L 2053 4666 
Q 2838 4666 3239 4311 
Q 3641 3956 3641 3272 
Q 3641 2581 3239 2228 
Q 2838 1875 2053 1875 
L 1259 1875 
L 1259 0 
L 628 0 
L 628 4666 
z
" transform="scale(0.015625)"/>
      </defs>
      <use xlink:href="#DejaVuSans-50"/>
      <use xlink:href="#DejaVuSans-72" x="58.552734"/>
      <use xlink:href="#DejaVuSans-65" x="97.416016"/>
      <use xlink:href="#DejaVuSans-64" x="158.939453"/>
      <use xlink:href="#DejaVuSans-69" x="222.416016"/>
      <use xlink:href="#DejaVuSans-63" x="250.199219"/>
      <use xlink:href="#DejaVuSans-74" x="305.179688"/>
      <use xlink:href="#DejaVuSans-65" x="344.388672"/>
      <use xlink:href="#DejaVuSans-64" x="405.912109"/>
      <use xlink:href="#DejaVuSans-20" x="469.388672"/>
      <use xlink:href="#DejaVuSans-44" x="501.175781"/>
      <use xlink:href="#DejaVuSans-69" x="578.177734"/>
      <use xlink:href="#DejaVuSans-73" x="605.960938"/>
      <use xlink:href="#DejaVuSans-74" x="658.060547"/>
      <use xlink:href="#DejaVuSans-61" x="697.269531"/>
      <use xlink:href="#DejaVuSans-6e" x="758.548828"/>
      <use xlink:href="#DejaVuSans-63" x="821.927734"/>
      <use xlink:href="#DejaVuSans-65" x="876.908203"/>
      <use xlink:href="#DejaVuSans-20" x="938.431641"/>
      <use xlink:href="#DejaVuSans-28" x="970.21875"/>
      <use xlink:href="#DejaVuSans-6d" x="1009.232422"/>
      <use xlink:href="#DejaVuSans-29" x="1106.644531"/>
     </g>
    </g>
   </g>
   <g id="line2d_17">
    <path d="M 131.324091 551.667273 
L 1173.405909 77.753289 
L 1173.405909 77.753289 
" clip-path="url(#pe1bf2a5a5e)" style="fill: none; stroke: #0000ff; stroke-width: 1.5; stroke-linecap: square"/>
   </g>
   <g id="line2d_18">
    <path d="M 131.324091 421.198761 
L 137.791288 419.946465 
L 137.791288 419.946465 
L 139.97405 418.684524 
L 139.97405 418.684524 
L 144.380629 418.252191 
L 144.380629 418.252191 
L 146.604616 417.81678 
L 148.842518 417.833424 
L 148.842518 417.833424 
L 153.360412 416.969601 
L 153.360412 416.969601 
L 155.64058 416.969601 
L 155.64058 416.969601 
L 157.935014 417.394906 
L 162.567036 416.076711 
L 162.567036 416.076711 
L 176.814872 413.318919 
L 176.814872 413.318919 
L 179.24178 413.335004 
L 186.613985 411.909787 
L 191.605981 412.372302 
L 196.660635 409.477928 
L 196.660635 409.477928 
L 201.778735 407.964142 
L 204.361826 408.456818 
L 204.361826 408.456818 
L 206.961077 407.451752 
L 228.349138 403.20563 
L 233.864987 401.542706 
L 233.864987 401.542706 
L 236.64882 400.426998 
L 239.45007 400.979422 
L 245.105257 398.695363 
L 256.629469 396.318906 
L 256.629469 396.318906 
L 265.463274 395.100605 
L 265.463274 395.100605 
L 283.634561 391.348835 
L 296.132072 386.004633 
L 312.198847 383.17869 
L 318.767165 381.712575 
L 318.767165 381.712575 
L 328.774547 376.427062 
L 328.774547 376.427062 
L 332.152168 366.484618 
L 332.152168 366.484618 
L 335.550921 369.097914 
L 338.970937 369.097914 
L 338.970937 369.097914 
L 342.41235 362.879347 
L 345.875294 363.804416 
L 352.866313 360.112795 
L 356.394661 361.040591 
L 370.730182 349.078144 
L 370.730182 349.078144 
L 381.718976 348.031157 
L 381.718976 348.031157 
L 385.427836 344.747316 
L 389.1599 340.179962 
L 389.1599 340.179962 
L 396.694221 336.632677 
L 396.694221 336.632677 
L 415.946366 330.413457 
L 435.808335 326.497004 
L 439.855597 315.323 
L 439.855597 315.323 
L 443.92818 321.061925 
L 443.92818 321.061925 
L 448.026243 323.814075 
L 448.026243 323.814075 
L 456.299445 307.714499 
L 456.299445 307.714499 
L 460.474907 309.276918 
L 464.676492 304.525666 
L 468.904363 306.130893 
L 468.904363 306.130893 
L 477.439624 301.248559 
L 477.439624 301.248559 
L 481.747346 302.898374 
L 486.082019 296.166632 
L 490.44381 299.575751 
L 499.249432 292.644704 
L 503.693603 292.644704 
L 503.693603 292.644704 
L 508.165579 285.304501 
L 508.165579 285.304501 
L 512.665534 281.476176 
L 512.665534 281.476176 
L 517.193641 289.027976 
L 521.750078 277.530117 
L 521.750078 277.530117 
L 526.335022 279.52105 
L 530.948651 277.535181 
L 530.948651 277.535181 
L 544.963448 281.482165 
L 554.453391 281.482165 
L 554.453391 281.482165 
L 564.06245 289.047153 
L 568.912115 285.317578 
L 568.912115 285.317578 
L 573.792121 292.664456 
L 573.792121 292.664456 
L 578.702658 290.868862 
L 583.643918 294.439847 
L 583.643918 294.439847 
L 588.616091 292.669706 
L 588.616091 292.669706 
L 593.619372 292.664456 
L 593.619372 292.664456 
L 598.653955 296.184971 
L 608.817814 306.164212 
L 608.817814 306.164212 
L 613.947484 307.748252 
L 613.947484 307.748252 
L 619.109247 299.602254 
L 624.303304 304.558545 
L 624.303304 304.558545 
L 640.081265 309.311098 
L 640.081265 309.311098 
L 645.40653 315.358822 
L 645.40653 315.358822 
L 656.157219 321.105016 
L 656.157219 321.105016 
L 661.583061 321.105016 
L 661.583061 321.105016 
L 672.536796 334.263075 
L 672.536796 334.263075 
L 678.065114 331.753877 
L 678.065114 331.753877 
L 683.62802 334.257081 
L 683.62802 334.257081 
L 689.225729 335.486387 
L 689.225729 335.486387 
L 700.52643 339.094541 
L 700.52643 339.094541 
L 706.229862 345.933181 
L 706.229862 345.933181 
L 711.968976 347.028225 
L 711.968976 347.028225 
L 717.743996 343.711705 
L 729.402654 343.705628 
L 729.402654 343.705628 
L 735.286746 348.111057 
L 735.286746 348.111057 
L 741.20765 348.111057 
L 741.20765 348.111057 
L 747.165598 349.188316 
L 747.165598 349.188316 
L 753.16082 348.117422 
L 753.16082 348.117422 
L 765.264025 341.438011 
L 765.264025 341.438011 
L 771.372478 342.578691 
L 771.372478 342.578691 
L 777.519147 336.71802 
L 777.519147 336.71802 
L 789.928094 334.273431 
L 789.928094 334.273431 
L 796.190854 299.917664 
L 796.190854 299.917664 
L 802.492795 325.241015 
L 808.834164 318.287813 
L 808.834164 318.287813 
L 815.215207 319.714011 
L 821.636172 307.766448 
L 821.636172 307.766448 
L 828.097309 302.947321 
L 828.097309 302.947321 
L 834.598869 302.947321 
L 834.598869 302.947321 
L 841.141105 294.458794 
L 847.724271 281.504864 
L 847.724271 281.504864 
L 861.014422 273.473453 
L 867.721923 246.096646 
L 867.721923 246.096646 
L 874.471388 246.100646 
L 874.471388 246.100646 
L 881.263081 240.985823 
L 881.263081 240.985823 
L 894.974205 235.690861 
L 894.974205 235.690861 
L 908.857429 235.690861 
L 908.857429 235.690861 
L 922.914914 230.206082 
L 922.914914 230.206082 
L 930.009686 221.59398 
L 930.009686 221.59398 
L 951.56144 212.49818 
L 958.835435 206.141647 
L 958.835435 206.141647 
L 973.520235 206.141647 
L 973.520235 206.141647 
L 980.931612 199.534863 
L 988.389357 202.870451 
L 988.389357 202.870451 
L 995.893761 192.662763 
L 995.893761 192.662763 
L 1003.445114 189.122178 
L 1011.043712 170.295195 
L 1011.043712 170.295195 
L 1026.383823 162.173914 
L 1026.383823 162.173914 
L 1041.916481 153.701214 
L 1041.916481 153.701214 
L 1049.755769 130.767454 
L 1057.644102 125.866127 
L 1057.644102 125.866127 
L 1065.581787 110.372679 
L 1065.581787 110.372679 
L 1073.569134 115.674121 
L 1081.606452 99.414101 
L 1081.606452 99.414101 
L 1097.832255 87.849062 
L 1097.832255 87.849062 
L 1106.021372 93.69753 
L 1106.021372 93.69753 
L 1122.553628 81.864366 
L 1122.553628 81.864366 
L 1139.293394 99.414101 
L 1139.293394 99.414101 
L 1147.741906 99.429691 
L 1147.741906 99.429691 
L 1164.797832 87.898814 
L 1164.797832 87.898814 
L 1173.405909 81.881467 
L 1173.405909 81.881467 
" clip-path="url(#pe1bf2a5a5e)" style="fill: none; stroke: #bfbf00; stroke-width: 1.5; stroke-linecap: square"/>
   </g>
   <g id="line2d_19">
    <path d="M 131.324091 547.989635 
L 135.622097 542.796091 
L 135.622097 542.796091 
L 137.791288 541.729241 
L 137.791288 541.729241 
L 139.97405 545.491043 
L 139.97405 545.491043 
L 144.380629 541.580006 
L 146.604616 539.38631 
L 148.842518 543.683202 
L 148.842518 543.683202 
L 153.360412 539.578203 
L 153.360412 539.578203 
L 155.64058 538.010324 
L 155.64058 538.010324 
L 157.935014 533.123629 
L 162.567036 531.800071 
L 162.567036 531.800071 
L 167.257198 527.510302 
L 172.006231 531.236413 
L 176.814872 525.693967 
L 176.814872 525.693967 
L 179.24178 528.695552 
L 186.613985 523.187948 
L 191.605981 523.02863 
L 194.125427 519.639517 
L 196.660635 516.899826 
L 196.660635 516.899826 
L 201.778735 512.306983 
L 204.361826 514.045791 
L 204.361826 514.045791 
L 206.961077 512.228246 
L 217.52172 504.425727 
L 222.901665 504.86749 
L 222.901665 504.86749 
L 228.349138 504.053073 
L 233.864987 500.926936 
L 233.864987 500.926936 
L 236.64882 500.632098 
L 239.45007 495.803204 
L 245.105257 491.874441 
L 250.831426 492.714988 
L 250.831426 492.714988 
L 256.629469 488.465042 
L 256.629469 488.465042 
L 265.463274 489.393955 
L 265.463274 489.393955 
L 268.444798 482.076942 
L 283.634561 481.935873 
L 286.72977 470.819359 
L 286.72977 470.819359 
L 292.978404 468.14293 
L 296.132072 467.067122 
L 312.198847 466.559746 
L 318.767165 457.720298 
L 318.767165 457.720298 
L 328.774547 450.216482 
L 328.774547 450.216482 
L 332.152168 450.783977 
L 332.152168 450.783977 
L 335.550921 458.011922 
L 338.970937 446.076881 
L 338.970937 446.076881 
L 342.41235 447.633551 
L 345.875294 446.855387 
L 352.866313 449.34011 
L 356.394661 438.498684 
L 370.730182 434.070474 
L 370.730182 434.070474 
L 381.718976 424.513757 
L 381.718976 424.513757 
L 385.427836 423.065487 
L 389.1599 421.417686 
L 389.1599 421.417686 
L 396.694221 425.759796 
L 396.694221 425.759796 
L 404.323111 417.416782 
L 408.173391 424.383554 
L 415.946366 420.983013 
L 435.808335 413.171036 
L 439.855597 399.460323 
L 439.855597 399.460323 
L 443.92818 395.936346 
L 443.92818 395.936346 
L 448.026243 403.863805 
L 448.026243 403.863805 
L 456.299445 401.801606 
L 456.299445 401.801606 
L 460.474907 391.455715 
L 464.676492 390.512694 
L 468.904363 384.928215 
L 468.904363 384.928215 
L 477.439624 382.439216 
L 477.439624 382.439216 
L 481.747346 377.51994 
L 486.082019 378.438388 
L 490.44381 387.040578 
L 494.832891 372.108181 
L 494.832891 372.108181 
L 499.249432 373.008667 
L 503.693603 381.832453 
L 503.693603 381.832453 
L 508.165579 368.742314 
L 508.165579 368.742314 
L 512.665534 375.313792 
L 512.665534 375.313792 
L 517.193641 362.374473 
L 521.750078 358.814888 
L 521.750078 358.814888 
L 526.335022 366.928371 
L 530.948651 357.736475 
L 530.948651 357.736475 
L 544.963448 355.237317 
L 549.693623 358.009451 
L 554.453391 349.138898 
L 554.453391 349.138898 
L 559.242938 344.9051 
L 559.242938 344.9051 
L 564.06245 348.533566 
L 568.912115 343.646517 
L 568.912115 343.646517 
L 573.792121 348.342152 
L 573.792121 348.342152 
L 578.702658 333.573035 
L 583.643918 332.245848 
L 583.643918 332.245848 
L 588.616091 340.689349 
L 588.616091 340.689349 
L 593.619372 335.772588 
L 593.619372 335.772588 
L 598.653955 322.5464 
L 598.653955 322.5464 
L 608.817814 327.245876 
L 608.817814 327.245876 
L 613.947484 321.014942 
L 613.947484 321.014942 
L 619.109247 313.927037 
L 624.303304 314.890534 
L 624.303304 314.890534 
L 629.529857 318.066817 
L 640.081265 301.015068 
L 640.081265 301.015068 
L 645.40653 312.389434 
L 645.40653 312.389434 
L 650.765112 300.702785 
L 650.765112 300.702785 
L 656.157219 298.27029 
L 656.157219 298.27029 
L 661.583061 304.962838 
L 661.583061 304.962838 
L 672.536796 300.996807 
L 672.536796 300.996807 
L 678.065114 284.884473 
L 678.065114 284.884473 
L 683.62802 285.75444 
L 683.62802 285.75444 
L 689.225729 278.415739 
L 689.225729 278.415739 
L 700.52643 277.355484 
L 700.52643 277.355484 
L 706.229862 287.372612 
L 706.229862 287.372612 
L 711.968976 277.295179 
L 711.968976 277.295179 
L 717.743996 275.004993 
L 729.402654 269.166698 
L 729.402654 269.166698 
L 735.286746 268.85823 
L 735.286746 268.85823 
L 741.20765 269.384183 
L 741.20765 269.384183 
L 747.165598 262.905009 
L 747.165598 262.905009 
L 753.16082 248.070515 
L 753.16082 248.070515 
L 765.264025 247.724842 
L 765.264025 247.724842 
L 771.372478 259.005228 
L 771.372478 259.005228 
L 777.519147 240.619189 
L 777.519147 240.619189 
L 783.704272 233.430713 
L 783.704272 233.430713 
L 789.928094 244.551557 
L 789.928094 244.551557 
L 796.190854 242.809465 
L 796.190854 242.809465 
L 802.492795 240.846429 
L 808.834164 228.493992 
L 808.834164 228.493992 
L 815.215207 227.081926 
L 821.636172 227.002266 
L 821.636172 227.002266 
L 828.097309 217.053105 
L 828.097309 217.053105 
L 834.598869 225.443872 
L 834.598869 225.443872 
L 841.141105 208.718102 
L 847.724271 202.419261 
L 847.724271 202.419261 
L 854.348624 204.903935 
L 854.348624 204.903935 
L 861.014422 218.683067 
L 867.721923 192.646655 
L 867.721923 192.646655 
L 874.471388 191.883338 
L 874.471388 191.883338 
L 881.263081 200.134413 
L 881.263081 200.134413 
L 894.974205 194.16138 
L 894.974205 194.16138 
L 901.89417 185.841591 
L 901.89417 185.841591 
L 908.857429 195.416416 
L 908.857429 195.416416 
L 915.864253 177.218906 
L 915.864253 177.218906 
L 922.914914 178.652433 
L 922.914914 178.652433 
L 930.009686 182.816564 
L 930.009686 182.816564 
L 937.148846 163.406596 
L 937.148846 163.406596 
L 951.56144 158.393228 
L 958.835435 160.870164 
L 958.835435 160.870164 
L 966.154938 158.219262 
L 966.154938 158.219262 
L 980.931612 142.307485 
L 988.389357 158.394129 
L 988.389357 158.394129 
L 995.893761 137.142092 
L 995.893761 137.142092 
L 1003.445114 138.963792 
L 1011.043712 142.541932 
L 1011.043712 142.541932 
L 1018.689849 132.944682 
L 1018.689849 132.944682 
L 1026.383823 120.084546 
L 1026.383823 120.084546 
L 1034.125933 131.874459 
L 1041.916481 124.350557 
L 1041.916481 124.350557 
L 1049.755769 118.873726 
L 1049.755769 118.873726 
L 1057.644102 121.532677 
L 1057.644102 121.532677 
L 1065.581787 113.749267 
L 1065.581787 113.749267 
L 1073.569134 103.13831 
L 1081.606452 102.527548 
L 1081.606452 102.527548 
L 1089.694054 107.418669 
L 1089.694054 107.418669 
L 1097.832255 111.447009 
L 1097.832255 111.447009 
L 1106.021372 81.093401 
L 1106.021372 81.093401 
L 1114.261723 85.419271 
L 1114.261723 85.419271 
L 1122.553628 94.286084 
L 1122.553628 94.286084 
L 1139.293394 72.243725 
L 1139.293394 72.243725 
L 1147.741906 73.262136 
L 1147.741906 73.262136 
L 1156.243276 79.851546 
L 1156.243276 79.851546 
L 1164.797832 61.812727 
L 1164.797832 61.812727 
L 1173.405909 65.620704 
L 1173.405909 65.620704 
" clip-path="url(#pe1bf2a5a5e)" style="fill: none; stroke: #00bfbf; stroke-width: 1.5; stroke-linecap: square"/>
   </g>
   <g id="patch_3">
    <path d="M 79.22 576.16 
L 79.22 37.32 
" style="fill: none; stroke: #000000; stroke-width: 0.8; stroke-linejoin: miter; stroke-linecap: square"/>
   </g>
   <g id="patch_4">
    <path d="M 1225.51 576.16 
L 1225.51 37.32 
" style="fill: none; stroke: #000000; stroke-width: 0.8; stroke-linejoin: miter; stroke-linecap: square"/>
   </g>
   <g id="patch_5">
    <path d="M 79.22 576.16 
L 1225.51 576.16 
" style="fill: none; stroke: #000000; stroke-width: 0.8; stroke-linejoin: miter; stroke-linecap: square"/>
   </g>
   <g id="patch_6">
    <path d="M 79.22 37.32 
L 1225.51 37.32 
" style="fill: none; stroke: #000000; stroke-width: 0.8; stroke-linejoin: miter; stroke-linecap: square"/>
   </g>
   <g id="text_11">
    <!-- Comparison of Distance Estimation Performance -->
    <g transform="translate(349.159922 31.32) scale(0.25 -0.25)">
     <defs>
      <path id="DejaVuSans-43" d="M 4122 4306 
L 4122 3641 
Q 3803 3938 3442 4084 
Q 3081 4231 2675 4231 
Q 1875 4231 1450 3742 
Q 1025 3253 1025 2328 
Q 1025 1406 1450 917 
Q 1875 428 2675 428 
Q 3081 428 3442 575 
Q 3803 722 4122 1019 
L 4122 359 
Q 3791 134 3420 21 
Q 3050 -91 2638 -91 
Q 1578 -91 968 557 
Q 359 1206 359 2328 
Q 359 3453 968 4101 
Q 1578 4750 2638 4750 
Q 3056 4750 3426 4639 
Q 3797 4528 4122 4306 
z
" transform="scale(0.015625)"/>
      <path id="DejaVuSans-70" d="M 1159 525 
L 1159 -1331 
L 581 -1331 
L 581 3500 
L 1159 3500 
L 1159 2969 
Q 1341 3281 1617 3432 
Q 1894 3584 2278 3584 
Q 2916 3584 3314 3078 
Q 3713 2572 3713 1747 
Q 3713 922 3314 415 
Q 2916 -91 2278 -91 
Q 1894 -91 1617 61 
Q 1341 213 1159 525 
z
M 3116 1747 
Q 3116 2381 2855 2742 
Q 2594 3103 2138 3103 
Q 1681 3103 1420 2742 
Q 1159 2381 1159 1747 
Q 1159 1113 1420 752 
Q 1681 391 2138 391 
Q 2594 391 2855 752 
Q 3116 1113 3116 1747 
z
" transform="scale(0.015625)"/>
      <path id="DejaVuSans-66" d="M 2375 4863 
L 2375 4384 
L 1825 4384 
Q 1516 4384 1395 4259 
Q 1275 4134 1275 3809 
L 1275 3500 
L 2222 3500 
L 2222 3053 
L 1275 3053 
L 1275 0 
L 697 0 
L 697 3053 
L 147 3053 
L 147 3500 
L 697 3500 
L 697 3744 
Q 697 4328 969 4595 
Q 1241 4863 1831 4863 
L 2375 4863 
z
" transform="scale(0.015625)"/>
      <path id="DejaVuSans-45" d="M 628 4666 
L 3578 4666 
L 3578 4134 
L 1259 4134 
L 1259 2753 
L 3481 2753 
L 3481 2222 
L 1259 2222 
L 1259 531 
L 3634 531 
L 3634 0 
L 628 0 
L 628 4666 
z
" transform="scale(0.015625)"/>
     </defs>
     <use xlink:href="#DejaVuSans-43"/>
     <use xlink:href="#DejaVuSans-6f" x="69.824219"/>
     <use xlink:href="#DejaVuSans-6d" x="131.005859"/>
     <use xlink:href="#DejaVuSans-70" x="228.417969"/>
     <use xlink:href="#DejaVuSans-61" x="291.894531"/>
     <use xlink:href="#DejaVuSans-72" x="353.173828"/>
     <use xlink:href="#DejaVuSans-69" x="394.287109"/>
     <use xlink:href="#DejaVuSans-73" x="422.070312"/>
     <use xlink:href="#DejaVuSans-6f" x="474.169922"/>
     <use xlink:href="#DejaVuSans-6e" x="535.351562"/>
     <use xlink:href="#DejaVuSans-20" x="598.730469"/>
     <use xlink:href="#DejaVuSans-6f" x="630.517578"/>
     <use xlink:href="#DejaVuSans-66" x="691.699219"/>
     <use xlink:href="#DejaVuSans-20" x="726.904297"/>
     <use xlink:href="#DejaVuSans-44" x="758.691406"/>
     <use xlink:href="#DejaVuSans-69" x="835.693359"/>
     <use xlink:href="#DejaVuSans-73" x="863.476562"/>
     <use xlink:href="#DejaVuSans-74" x="915.576172"/>
     <use xlink:href="#DejaVuSans-61" x="954.785156"/>
     <use xlink:href="#DejaVuSans-6e" x="1016.064453"/>
     <use xlink:href="#DejaVuSans-63" x="1079.443359"/>
     <use xlink:href="#DejaVuSans-65" x="1134.423828"/>
     <use xlink:href="#DejaVuSans-20" x="1195.947266"/>
     <use xlink:href="#DejaVuSans-45" x="1227.734375"/>
     <use xlink:href="#DejaVuSans-73" x="1290.917969"/>
     <use xlink:href="#DejaVuSans-74" x="1343.017578"/>
     <use xlink:href="#DejaVuSans-69" x="1382.226562"/>
     <use xlink:href="#DejaVuSans-6d" x="1410.009766"/>
     <use xlink:href="#DejaVuSans-61" x="1507.421875"/>
     <use xlink:href="#DejaVuSans-74" x="1568.701172"/>
     <use xlink:href="#DejaVuSans-69" x="1607.910156"/>
     <use xlink:href="#DejaVuSans-6f" x="1635.693359"/>
     <use xlink:href="#DejaVuSans-6e" x="1696.875"/>
     <use xlink:href="#DejaVuSans-20" x="1760.253906"/>
     <use xlink:href="#DejaVuSans-50" x="1792.041016"/>
     <use xlink:href="#DejaVuSans-65" x="1848.71875"/>
     <use xlink:href="#DejaVuSans-72" x="1910.242188"/>
     <use xlink:href="#DejaVuSans-66" x="1951.355469"/>
     <use xlink:href="#DejaVuSans-6f" x="1986.560547"/>
     <use xlink:href="#DejaVuSans-72" x="2047.742188"/>
     <use xlink:href="#DejaVuSans-6d" x="2087.105469"/>
     <use xlink:href="#DejaVuSans-61" x="2184.517578"/>
     <use xlink:href="#DejaVuSans-6e" x="2245.796875"/>
     <use xlink:href="#DejaVuSans-63" x="2309.175781"/>
     <use xlink:href="#DejaVuSans-65" x="2364.15625"/>
    </g>
   </g>
  </g>
  <g id="axes_2">
   <g id="matplotlib.axis_3">
    <g id="ytick_5">
     <g id="line2d_20">
      <defs>
       <path id="m5e1a74981e" d="M 0 0 
L 3.5 0 
" style="stroke: #000000; stroke-width: 0.8"/>
      </defs>
      <g>
       <use xlink:href="#m5e1a74981e" x="1225.51" y="533.529642" style="stroke: #000000; stroke-width: 0.8"/>
      </g>
     </g>
     <g id="text_12">
      <!-- −80 -->
      <g transform="translate(1232.51 537.708782) scale(0.11 -0.11)">
       <defs>
        <path id="DejaVuSans-2212" d="M 678 2272 
L 4684 2272 
L 4684 1741 
L 678 1741 
L 678 2272 
z
" transform="scale(0.015625)"/>
        <path id="DejaVuSans-38" d="M 2034 2216 
Q 1584 2216 1326 1975 
Q 1069 1734 1069 1313 
Q 1069 891 1326 650 
Q 1584 409 2034 409 
Q 2484 409 2743 651 
Q 3003 894 3003 1313 
Q 3003 1734 2745 1975 
Q 2488 2216 2034 2216 
z
M 1403 2484 
Q 997 2584 770 2862 
Q 544 3141 544 3541 
Q 544 4100 942 4425 
Q 1341 4750 2034 4750 
Q 2731 4750 3128 4425 
Q 3525 4100 3525 3541 
Q 3525 3141 3298 2862 
Q 3072 2584 2669 2484 
Q 3125 2378 3379 2068 
Q 3634 1759 3634 1313 
Q 3634 634 3220 271 
Q 2806 -91 2034 -91 
Q 1263 -91 848 271 
Q 434 634 434 1313 
Q 434 1759 690 2068 
Q 947 2378 1403 2484 
z
M 1172 3481 
Q 1172 3119 1398 2916 
Q 1625 2713 2034 2713 
Q 2441 2713 2670 2916 
Q 2900 3119 2900 3481 
Q 2900 3844 2670 4047 
Q 2441 4250 2034 4250 
Q 1625 4250 1398 4047 
Q 1172 3844 1172 3481 
z
" transform="scale(0.015625)"/>
       </defs>
       <use xlink:href="#DejaVuSans-2212"/>
       <use xlink:href="#DejaVuSans-38" x="83.789062"/>
       <use xlink:href="#DejaVuSans-30" x="147.412109"/>
      </g>
     </g>
    </g>
    <g id="ytick_6">
     <g id="line2d_21">
      <g>
       <use xlink:href="#m5e1a74981e" x="1225.51" y="437.603863" style="stroke: #000000; stroke-width: 0.8"/>
      </g>
     </g>
     <g id="text_13">
      <!-- −60 -->
      <g transform="translate(1232.51 441.783004) scale(0.11 -0.11)">
       <defs>
        <path id="DejaVuSans-36" d="M 2113 2584 
Q 1688 2584 1439 2293 
Q 1191 2003 1191 1497 
Q 1191 994 1439 701 
Q 1688 409 2113 409 
Q 2538 409 2786 701 
Q 3034 994 3034 1497 
Q 3034 2003 2786 2293 
Q 2538 2584 2113 2584 
z
M 3366 4563 
L 3366 3988 
Q 3128 4100 2886 4159 
Q 2644 4219 2406 4219 
Q 1781 4219 1451 3797 
Q 1122 3375 1075 2522 
Q 1259 2794 1537 2939 
Q 1816 3084 2150 3084 
Q 2853 3084 3261 2657 
Q 3669 2231 3669 1497 
Q 3669 778 3244 343 
Q 2819 -91 2113 -91 
Q 1303 -91 875 529 
Q 447 1150 447 2328 
Q 447 3434 972 4092 
Q 1497 4750 2381 4750 
Q 2619 4750 2861 4703 
Q 3103 4656 3366 4563 
z
" transform="scale(0.015625)"/>
       </defs>
       <use xlink:href="#DejaVuSans-2212"/>
       <use xlink:href="#DejaVuSans-36" x="83.789062"/>
       <use xlink:href="#DejaVuSans-30" x="147.412109"/>
      </g>
     </g>
    </g>
    <g id="ytick_7">
     <g id="line2d_22">
      <g>
       <use xlink:href="#m5e1a74981e" x="1225.51" y="341.678085" style="stroke: #000000; stroke-width: 0.8"/>
      </g>
     </g>
     <g id="text_14">
      <!-- −40 -->
      <g transform="translate(1232.51 345.857226) scale(0.11 -0.11)">
       <defs>
        <path id="DejaVuSans-34" d="M 2419 4116 
L 825 1625 
L 2419 1625 
L 2419 4116 
z
M 2253 4666 
L 3047 4666 
L 3047 1625 
L 3713 1625 
L 3713 1100 
L 3047 1100 
L 3047 0 
L 2419 0 
L 2419 1100 
L 313 1100 
L 313 1709 
L 2253 4666 
z
" transform="scale(0.015625)"/>
       </defs>
       <use xlink:href="#DejaVuSans-2212"/>
       <use xlink:href="#DejaVuSans-34" x="83.789062"/>
       <use xlink:href="#DejaVuSans-30" x="147.412109"/>
      </g>
     </g>
    </g>
    <g id="ytick_8">
     <g id="line2d_23">
      <g>
       <use xlink:href="#m5e1a74981e" x="1225.51" y="245.752307" style="stroke: #000000; stroke-width: 0.8"/>
      </g>
     </g>
     <g id="text_15">
      <!-- −20 -->
      <g transform="translate(1232.51 249.931447) scale(0.11 -0.11)">
       <use xlink:href="#DejaVuSans-2212"/>
       <use xlink:href="#DejaVuSans-32" x="83.789062"/>
       <use xlink:href="#DejaVuSans-30" x="147.412109"/>
      </g>
     </g>
    </g>
    <g id="ytick_9">
     <g id="line2d_24">
      <g>
       <use xlink:href="#m5e1a74981e" x="1225.51" y="149.826528" style="stroke: #000000; stroke-width: 0.8"/>
      </g>
     </g>
     <g id="text_16">
      <!-- 0 -->
      <g transform="translate(1232.51 154.005669) scale(0.11 -0.11)">
       <use xlink:href="#DejaVuSans-30"/>
      </g>
     </g>
    </g>
    <g id="ytick_10">
     <g id="line2d_25">
      <g>
       <use xlink:href="#m5e1a74981e" x="1225.51" y="53.90075" style="stroke: #000000; stroke-width: 0.8"/>
      </g>
     </g>
     <g id="text_17">
      <!-- 20 -->
      <g transform="translate(1232.51 58.079891) scale(0.11 -0.11)">
       <use xlink:href="#DejaVuSans-32"/>
       <use xlink:href="#DejaVuSans-30" x="63.623047"/>
      </g>
     </g>
    </g>
    <g id="text_18">
     <!-- Predicted Error (m) -->
     <g transform="translate(1278.72125 425.753672) rotate(-90) scale(0.25 -0.25)">
      <use xlink:href="#DejaVuSans-50"/>
      <use xlink:href="#DejaVuSans-72" x="58.552734"/>
      <use xlink:href="#DejaVuSans-65" x="97.416016"/>
      <use xlink:href="#DejaVuSans-64" x="158.939453"/>
      <use xlink:href="#DejaVuSans-69" x="222.416016"/>
      <use xlink:href="#DejaVuSans-63" x="250.199219"/>
      <use xlink:href="#DejaVuSans-74" x="305.179688"/>
      <use xlink:href="#DejaVuSans-65" x="344.388672"/>
      <use xlink:href="#DejaVuSans-64" x="405.912109"/>
      <use xlink:href="#DejaVuSans-20" x="469.388672"/>
      <use xlink:href="#DejaVuSans-45" x="501.175781"/>
      <use xlink:href="#DejaVuSans-72" x="564.359375"/>
      <use xlink:href="#DejaVuSans-72" x="603.722656"/>
      <use xlink:href="#DejaVuSans-6f" x="642.585938"/>
      <use xlink:href="#DejaVuSans-72" x="703.767578"/>
      <use xlink:href="#DejaVuSans-20" x="744.880859"/>
      <use xlink:href="#DejaVuSans-28" x="776.667969"/>
      <use xlink:href="#DejaVuSans-6d" x="815.681641"/>
      <use xlink:href="#DejaVuSans-29" x="913.09375"/>
     </g>
    </g>
   </g>
   <g id="line2d_26">
    <path d="M 131.324091 551.667273 
L 137.791288 539.113349 
L 137.791288 539.113349 
L 139.97405 537.501899 
L 139.97405 537.501899 
L 144.380629 528.033246 
L 144.380629 528.033246 
L 146.604616 523.983464 
L 148.842518 518.626322 
L 148.842518 518.626322 
L 153.360412 510.60868 
L 153.360412 510.60868 
L 155.64058 505.383463 
L 155.64058 505.383463 
L 157.935014 498.975262 
L 162.567036 492.422077 
L 162.567036 492.422077 
L 172.006231 477.187639 
L 176.814872 469.719913 
L 176.814872 469.719913 
L 179.24178 464.705461 
L 186.613985 453.757355 
L 186.613985 453.757355 
L 191.605981 442.832856 
L 196.660635 440.741274 
L 196.660635 440.741274 
L 201.778735 435.056238 
L 204.361826 429.050097 
L 204.361826 429.050097 
L 206.961077 426.867485 
L 217.52172 413.36603 
L 217.52172 413.36603 
L 228.349138 400.230409 
L 233.864987 395.122209 
L 233.864987 395.122209 
L 236.64882 393.243036 
L 239.45007 387.45441 
L 245.105257 383.843413 
L 250.831426 377.652864 
L 250.831426 377.652864 
L 256.629469 371.618552 
L 256.629469 371.618552 
L 265.463274 361.312729 
L 265.463274 361.312729 
L 268.444798 358.372474 
L 283.634561 343.926193 
L 292.978404 339.741418 
L 296.132072 338.438177 
L 312.198847 323.616526 
L 318.767165 318.43476 
L 318.767165 318.43476 
L 328.774547 316.743985 
L 328.774547 316.743985 
L 332.152168 332.026119 
L 332.152168 332.026119 
L 335.550921 322.869389 
L 338.970937 318.811433 
L 338.970937 318.811433 
L 342.41235 326.627487 
L 345.875294 320.794509 
L 352.866313 319.633131 
L 356.394661 313.871042 
L 370.730182 319.695427 
L 370.730182 319.695427 
L 381.718976 309.518568 
L 381.718976 309.518568 
L 385.427836 311.349417 
L 389.1599 315.387915 
L 389.1599 315.387915 
L 396.694221 313.545286 
L 396.694221 313.545286 
L 408.173391 307.880884 
L 415.946366 304.252879 
L 435.808335 291.170413 
L 439.855597 305.413258 
L 439.855597 305.413258 
L 443.92818 292.223647 
L 443.92818 292.223647 
L 448.026243 283.95257 
L 448.026243 283.95257 
L 456.299445 301.785579 
L 456.299445 301.785579 
L 460.474907 295.405057 
L 464.676492 298.932926 
L 468.904363 292.534164 
L 468.904363 292.534164 
L 477.439624 292.297923 
L 477.439624 292.297923 
L 481.747346 285.91869 
L 486.082019 292.27384 
L 490.44381 283.281068 
L 494.832891 284.562428 
L 494.832891 284.562428 
L 499.249432 285.971641 
L 503.693603 282.143095 
L 503.693603 282.143095 
L 508.165579 289.101239 
L 508.165579 289.101239 
L 512.665534 290.831778 
L 512.665534 290.831778 
L 517.193641 276.03713 
L 521.750078 288.817066 
L 521.750078 288.817066 
L 526.335022 282.123465 
L 530.948651 281.141307 
L 530.948651 281.141307 
L 544.963448 264.310713 
L 554.453391 256.945939 
L 554.453391 256.945939 
L 559.242938 248.046909 
L 559.242938 248.046909 
L 564.06245 239.379854 
L 568.912115 240.883745 
L 568.912115 240.883745 
L 573.792121 227.463587 
L 573.792121 227.463587 
L 578.702658 226.396537 
L 583.643918 218.199571 
L 583.643918 218.199571 
L 588.616091 217.12683 
L 588.616091 217.12683 
L 593.619372 213.733204 
L 593.619372 213.733204 
L 598.653955 205.768549 
L 598.653955 205.768549 
L 608.817814 186.293266 
L 608.817814 186.293266 
L 613.947484 181.059597 
L 613.947484 181.059597 
L 619.109247 188.231574 
L 624.303304 178.753663 
L 624.303304 178.753663 
L 629.529857 173.577271 
L 640.081265 163.438114 
L 640.081265 163.438114 
L 645.40653 152.924593 
L 645.40653 152.924593 
L 650.765112 146.359017 
L 650.765112 146.359017 
L 656.157219 139.952765 
L 656.157219 139.952765 
L 661.583061 137.032084 
L 661.583061 137.032084 
L 672.536796 115.540463 
L 672.536796 115.540463 
L 678.065114 115.747764 
L 678.065114 115.747764 
L 683.62802 110.026947 
L 683.62802 110.026947 
L 689.225729 105.852304 
L 689.225729 105.852304 
L 700.52643 96.277577 
L 700.52643 96.277577 
L 706.229862 85.766071 
L 706.229862 85.766071 
L 711.968976 81.931152 
L 711.968976 81.931152 
L 717.743996 83.136948 
L 729.402654 78.024863 
L 729.402654 78.024863 
L 735.286746 70.579811 
L 735.286746 70.579811 
L 741.20765 68.090453 
L 741.20765 68.090453 
L 747.165598 64.430958 
L 747.165598 64.430958 
L 753.16082 63.151112 
L 753.16082 63.151112 
L 765.264025 65.494953 
L 765.264025 65.494953 
L 771.372478 61.812727 
L 771.372478 61.812727 
L 777.519147 65.630004 
L 777.519147 65.630004 
L 789.928094 63.303669 
L 789.928094 63.303669 
L 796.190854 96.830679 
L 796.190854 96.830679 
L 802.492795 67.828937 
L 808.834164 72.546569 
L 808.834164 72.546569 
L 815.215207 68.579407 
L 821.636172 78.303593 
L 821.636172 78.303593 
L 828.097309 80.65701 
L 828.097309 80.65701 
L 834.598869 78.104998 
L 834.598869 78.104998 
L 841.141105 84.07683 
L 847.724271 94.406442 
L 847.724271 94.406442 
L 861.014422 97.048441 
L 867.721923 121.157975 
L 867.721923 121.157975 
L 874.471388 118.350263 
L 874.471388 118.350263 
L 881.263081 120.502142 
L 881.263081 120.502142 
L 894.974205 119.968849 
L 894.974205 119.968849 
L 908.857429 114.393373 
L 908.857429 114.393373 
L 922.914914 113.987943 
L 922.914914 113.987943 
L 930.009686 119.18829 
L 930.009686 119.18829 
L 951.56144 119.11633 
L 958.835435 122.055368 
L 958.835435 122.055368 
L 973.520235 116.454026 
L 973.520235 116.454026 
L 980.931612 119.52481 
L 988.389357 113.798322 
L 988.389357 113.798322 
L 995.893761 119.959568 
L 995.893761 119.959568 
L 1003.445114 120.237665 
L 1011.043712 133.686348 
L 1011.043712 133.686348 
L 1026.383823 134.862227 
L 1026.383823 134.862227 
L 1041.916481 136.233516 
L 1041.916481 136.233516 
L 1049.755769 152.51906 
L 1049.755769 152.51906 
L 1057.644102 153.594508 
L 1057.644102 153.594508 
L 1065.581787 163.387962 
L 1065.581787 163.387962 
L 1073.569134 155.969345 
L 1081.606452 166.21478 
L 1081.606452 166.21478 
L 1097.832255 169.384374 
L 1097.832255 169.384374 
L 1106.021372 161.597692 
L 1106.021372 161.597692 
L 1122.553628 164.863823 
L 1122.553628 164.863823 
L 1139.293394 145.025551 
L 1139.293394 145.025551 
L 1147.741906 142.061231 
L 1147.741906 142.061231 
L 1164.797832 145.050522 
L 1164.797832 145.050522 
L 1173.405909 146.681877 
L 1173.405909 146.681877 
" clip-path="url(#pe1bf2a5a5e)" style="fill: none; stroke-dasharray: 5.55,2.4; stroke-dashoffset: 0; stroke: #ff0000; stroke-width: 1.5"/>
   </g>
   <g id="line2d_27">
    <path d="M 131.324091 161.153589 
L 133.466392 166.27556 
L 133.466392 166.27556 
L 135.622097 170.865309 
L 135.622097 170.865309 
L 137.791288 170.977401 
L 137.791288 170.977401 
L 139.97405 156.563016 
L 139.97405 156.563016 
L 144.380629 162.137391 
L 144.380629 162.137391 
L 146.604616 165.546694 
L 148.842518 149.876653 
L 148.842518 149.876653 
L 153.360412 155.8093 
L 155.64058 157.298881 
L 157.935014 168.235962 
L 162.567036 165.797841 
L 162.567036 165.797841 
L 167.257198 171.611855 
L 172.006231 155.138532 
L 176.814872 164.195825 
L 176.814872 164.195825 
L 179.24178 153.014477 
L 186.613985 158.669751 
L 186.613985 158.669751 
L 191.605981 153.031772 
L 194.125427 158.850435 
L 196.660635 162.898372 
L 196.660635 162.898372 
L 201.778735 168.522697 
L 204.361826 161.010383 
L 204.361826 161.010383 
L 206.961077 162.543967 
L 217.52172 169.611845 
L 217.52172 169.611845 
L 222.901665 162.347464 
L 222.901665 162.347464 
L 228.349138 158.201215 
L 233.864987 159.56138 
L 233.864987 159.56138 
L 236.64882 157.213265 
L 239.45007 165.488847 
L 245.105257 168.431624 
L 250.831426 160.336298 
L 250.831426 160.336298 
L 256.629469 163.843383 
L 256.629469 163.843383 
L 265.463274 152.637126 
L 265.463274 152.637126 
L 268.444798 165.729795 
L 283.634561 150.81615 
L 286.72977 171.378353 
L 286.72977 171.378353 
L 292.978404 170.765341 
L 296.132072 169.889945 
L 312.198847 155.57041 
L 318.767165 167.147784 
L 318.767165 167.147784 
L 328.774547 172.594859 
L 328.774547 172.594859 
L 332.152168 168.369508 
L 332.152168 168.369508 
L 335.550921 151.327245 
L 338.970937 171.219 
L 338.970937 171.219 
L 342.41235 165.137863 
L 345.875294 163.534082 
L 352.866313 152.771957 
L 356.394661 169.919727 
L 370.730182 165.633959 
L 370.730182 165.633959 
L 381.718976 173.452124 
L 381.718976 173.452124 
L 385.427836 172.88369 
L 389.1599 172.653445 
L 389.1599 172.653445 
L 396.694221 158.890374 
L 396.694221 158.890374 
L 404.323111 167.129897 
L 408.173391 152.175469 
L 415.946366 151.920259 
L 435.808335 149.865749 
L 439.855597 169.097031 
L 439.855597 169.097031 
L 443.92818 171.66907 
L 443.92818 171.66907 
L 448.026243 155.866628 
L 448.026243 155.866628 
L 456.299445 153.104932 
L 456.299445 153.104932 
L 460.474907 166.349868 
L 464.676492 164.736796 
L 468.904363 170.323281 
L 468.904363 170.323281 
L 477.439624 167.936064 
L 477.439624 167.936064 
L 481.747346 172.329534 
L 486.082019 167.818181 
L 490.44381 151.792289 
L 494.832891 171.106794 
L 494.832891 171.106794 
L 499.249432 166.655465 
L 503.693603 150.549561 
L 503.693603 150.549561 
L 508.165579 166.756972 
L 508.165579 166.756972 
L 512.665534 154.093837 
L 512.665534 154.093837 
L 517.193641 169.822872 
L 521.750078 171.839121 
L 521.750078 171.839121 
L 526.335022 157.116568 
L 530.948651 167.153366 
L 530.948651 167.153366 
L 544.963448 161.427625 
L 549.693623 154.530543 
L 554.453391 163.739615 
L 554.453391 163.739615 
L 559.242938 166.467408 
L 559.242938 166.467408 
L 564.06245 158.445134 
L 568.912115 162.017251 
L 568.912115 162.017251 
L 573.792121 152.649898 
L 573.792121 152.649898 
L 578.702658 169.372035 
L 583.643918 168.029665 
L 583.643918 168.029665 
L 588.616091 153.799257 
L 588.616091 153.799257 
L 593.619372 157.236322 
L 593.619372 157.236322 
L 598.653955 171.434455 
L 598.653955 171.434455 
L 608.817814 159.176103 
L 608.817814 159.176103 
L 613.947484 164.100867 
L 613.947484 164.100867 
L 619.109247 170.03414 
L 624.303304 165.710065 
L 624.303304 165.710065 
L 629.529857 158.644279 
L 640.081265 173.71728 
L 640.081265 173.71728 
L 645.40653 156.580928 
L 645.40653 156.580928 
L 650.765112 167.85766 
L 650.765112 167.85766 
L 656.157219 167.721587 
L 656.157219 167.721587 
L 661.583061 156.540193 
L 661.583061 156.540193 
L 672.536796 155.244971 
L 672.536796 155.244971 
L 678.065114 171.340308 
L 678.065114 171.340308 
L 683.62802 167.19901 
L 683.62802 167.19901 
L 689.225729 172.705574 
L 689.225729 172.705574 
L 700.52643 167.70296 
L 700.52643 167.70296 
L 706.229862 153.093067 
L 706.229862 153.093067 
L 711.968976 161.604661 
L 711.968976 161.604661 
L 717.743996 161.149743 
L 729.402654 161.610674 
L 729.402654 161.610674 
L 735.286746 158.899093 
L 735.286746 158.899093 
L 741.20765 155.278137 
L 741.20765 155.278137 
L 747.165598 159.393052 
L 747.165598 159.393052 
L 753.16082 172.57661 
L 753.16082 172.57661 
L 765.264025 166.722385 
L 765.264025 166.722385 
L 771.372478 151.526136 
L 771.372478 151.526136 
L 777.519147 168.147603 
L 777.519147 168.147603 
L 783.704272 172.672562 
L 783.704272 172.672562 
L 789.928094 157.83187 
L 789.928094 157.83187 
L 796.190854 156.624029 
L 796.190854 156.624029 
L 802.492795 155.642253 
L 808.834164 165.396931 
L 808.834164 165.396931 
L 815.215207 163.769106 
L 821.636172 160.7817 
L 821.636172 160.7817 
L 828.097309 167.82864 
L 828.097309 167.82864 
L 834.598869 156.272034 
L 834.598869 156.272034 
L 841.141105 170.013983 
L 847.724271 173.180419 
L 847.724271 173.180419 
L 854.348624 167.593652 
L 854.348624 167.593652 
L 861.014422 150.946414 
L 867.721923 173.410474 
L 867.721923 173.410474 
L 874.471388 171.023347 
L 874.471388 171.023347 
L 881.263081 159.94326 
L 881.263081 159.94326 
L 894.974205 159.567593 
L 894.974205 159.567593 
L 901.89417 164.40863 
L 901.89417 164.40863 
L 908.857429 152.319386 
L 908.857429 152.319386 
L 915.864253 166.351672 
L 915.864253 166.351672 
L 922.914914 161.933655 
L 922.914914 161.933655 
L 930.009686 155.027679 
L 930.009686 155.027679 
L 937.148846 169.841077 
L 937.148846 169.841077 
L 951.56144 168.195005 
L 958.835435 162.865867 
L 958.835435 162.865867 
L 966.154938 162.177553 
L 966.154938 162.177553 
L 980.931612 170.156815 
L 988.389357 152.904151 
L 988.389357 152.904151 
L 995.893761 168.472633 
L 995.893761 168.472633 
L 1003.445114 163.792756 
L 1011.043712 157.636087 
L 1011.043712 157.636087 
L 1018.689849 162.835937 
L 1018.689849 162.835937 
L 1026.383823 170.733093 
L 1026.383823 170.733093 
L 1034.125933 157.635501 
L 1041.916481 160.937672 
L 1041.916481 160.937672 
L 1049.755769 162.467652 
L 1049.755769 162.467652 
L 1057.644102 157.196716 
L 1057.644102 157.196716 
L 1065.581787 160.598603 
L 1065.581787 160.598603 
L 1073.569134 166.260642 
L 1081.606452 163.674682 
L 1081.606452 163.674682 
L 1089.694054 156.640912 
L 1089.694054 156.640912 
L 1097.832255 150.370703 
L 1106.021372 171.690127 
L 1106.021372 171.690127 
L 1114.261723 165.129827 
L 1114.261723 165.129827 
L 1122.553628 155.040747 
L 1122.553628 155.040747 
L 1139.293394 166.245495 
L 1139.293394 166.245495 
L 1147.741906 162.370911 
L 1147.741906 162.370911 
L 1156.243276 154.228342 
L 1156.243276 154.228342 
L 1164.797832 165.045992 
L 1164.797832 165.045992 
L 1173.405909 159.068559 
L 1173.405909 159.068559 
" clip-path="url(#pe1bf2a5a5e)" style="fill: none; stroke-dasharray: 5.55,2.4; stroke-dashoffset: 0; stroke: #008000; stroke-width: 1.5"/>
   </g>
   <g id="patch_7">
    <path d="M 79.22 576.16 
L 79.22 37.32 
" style="fill: none; stroke: #000000; stroke-width: 0.8; stroke-linejoin: miter; stroke-linecap: square"/>
   </g>
   <g id="patch_8">
    <path d="M 1225.51 576.16 
L 1225.51 37.32 
" style="fill: none; stroke: #000000; stroke-width: 0.8; stroke-linejoin: miter; stroke-linecap: square"/>
   </g>
   <g id="patch_9">
    <path d="M 79.22 576.16 
L 1225.51 576.16 
" style="fill: none; stroke: #000000; stroke-width: 0.8; stroke-linejoin: miter; stroke-linecap: square"/>
   </g>
   <g id="patch_10">
    <path d="M 79.22 37.32 
L 1225.51 37.32 
" style="fill: none; stroke: #000000; stroke-width: 0.8; stroke-linejoin: miter; stroke-linecap: square"/>
   </g>
  </g>
 </g>
 <defs>
  <clipPath id="pe1bf2a5a5e">
   <rect x="79.22" y="37.32" width="1146.29" height="538.84"/>
  </clipPath>
 </defs>
</svg>
